<svg height="512pt" viewBox="0 0 512 512" width="512pt" xmlns="http://www.w3.org/2000/svg"><path d="m416 512h-320c-53.023438 0-96-42.976562-96-96v-320c0-53.023438 42.976562-96 96-96h320c53.023438 0 96 42.976562 96 96v320c0 53.023438-42.976562 96-96 96zm0 0" fill="#ff000000"/><path d="m373.328125 266.671875h-234.65625c-5.902344 0-10.671875-4.769531-10.671875-10.671875 0-5.886719 4.785156-10.671875 10.671875-10.671875h234.671875c5.886719.015625 10.65625 4.785156 10.65625 10.671875 0 5.902344-4.769531 10.671875-10.671875 10.671875zm0 0" fill="#fd907e"/><path d="m256 384c-5.886719 0-10.671875-4.769531-10.671875-10.671875v-234.65625c0-5.886719 4.785156-10.671875 10.671875-10.671875s10.671875 4.769531 10.671875 10.671875v234.671875c0 5.886719-4.785156 10.65625-10.671875 10.65625zm0 0" fill="#fd907e"/><path d="m357.328125 384h-202.65625c-14.703125 0-26.671875-11.953125-26.671875-26.65625v-202.671875c0-14.703125 11.96875-26.671875 26.671875-26.671875h202.671875c14.6875 0 26.65625 11.96875 26.65625 26.671875v202.671875c0 14.703125-11.96875 26.65625-26.671875 26.65625zm-202.65625-234.65625c-2.945313 0-5.328125 2.398438-5.328125 5.328125v202.671875c0 2.945312 2.382812 5.328125 5.328125 5.328125h202.671875c2.945312 0 5.328125-2.398437 5.328125-5.328125v-202.671875c0-2.945313-2.382813-5.328125-5.328125-5.328125zm0 0" fill="#fc573b"/></svg>