<svg id="Capa_1" enable-background="new 0 0 512 512" height="512" viewBox="0 0 512 512" width="512" xmlns="http://www.w3.org/2000/svg"><g><g fill="#ffa1c0"><path d="m111.861 264.024c17.178 11.042 36.878 16.666 56.683 16.666 13.758 0 27.571-2.717 40.61-8.219l46.846-19.766 46.846 19.766c13.043 5.503 26.848 8.22 40.609 8.219 19.802-.001 39.509-5.626 56.683-16.666 29.013-18.648 46.22-48.966 47.21-83.168.032-1.066.047-2.136.047-3.209 0-5.342-2.841-10.281-7.459-12.966-24.319-14.144-40.883-38.063-45.58-65.753v-83.928c0-8.284-6.716-15-15-15h-63.167c-8.284 0-15 6.716-15 15v97.938c0 39.84-16.33 77.036-45.189 103.796-28.859-26.76-45.189-63.956-45.189-103.796v-97.938c0-8.284-6.716-15-15-15h-63.167c-8.284 0-15 6.716-15 15v83.927c-4.698 27.69-21.261 51.609-45.58 65.753-4.618 2.686-7.459 7.625-7.459 12.966 0 1.068.015 2.132.046 3.196.991 34.215 18.199 64.533 47.21 83.182z"/><path d="m432.823 346.808h-353.646c-8.284 0-15 6.716-15 15s6.716 15 15 15c66.274 0 120.192 53.918 120.192 120.192 0 8.284 6.716 15 15 15h83.262c8.284 0 15-6.716 15-15 0-66.274 53.918-120.192 120.192-120.192 8.284 0 15-6.716 15-15s-6.716-15-15-15z"/></g><g fill="#ff5e92"><path d="m432.823 346.808h-176.78v165.192h41.588c8.284 0 15-6.716 15-15 0-66.274 53.918-120.192 120.192-120.192 8.284 0 15-6.716 15-15s-6.716-15-15-15z"/><path d="m439.936 164.681c-24.319-14.144-40.883-38.063-45.58-65.753v-83.928c0-8.284-6.716-15-15-15h-63.167c-8.284 0-15 6.716-15 15v97.938c0 39.82-16.314 76.997-45.145 103.755v36.031l46.802 19.747c13.043 5.503 26.848 8.22 40.609 8.219 19.802-.001 39.509-5.626 56.683-16.666 29.013-18.648 46.22-48.966 47.21-83.168.032-1.066.047-2.136.047-3.209 0-5.342-2.841-10.281-7.459-12.966z"/></g></g></svg>