<svg id="Layer_1" enable-background="new 0 0 512 512" height="512" viewBox="0 0 512 512" width="512" xmlns="http://www.w3.org/2000/svg"><g><path d="m281.029 512s89.651-138.191 166.052-185.918h-382.162c78.431 45.359 166.052 185.918 166.052 185.918z" fill="#97e3fc"/><g><g><g><g><path d="m103.251 0c-4.204 0-7.611 3.408-7.611 7.611v105.843c0 4.204 3.408 7.611 7.611 7.611s7.611-3.408 7.611-7.611v-105.843c.001-4.203-3.407-7.611-7.611-7.611z" fill="#fff345"/><path d="m409.731 0c-4.204 0-7.612 3.408-7.612 7.611v95.958c0 4.204 3.407 7.611 7.612 7.611s7.611-3.408 7.611-7.611v-95.958c.001-4.203-3.406-7.611-7.611-7.611z" fill="#ffea05"/></g><path d="m101.287 84.28c64.392 113.132 154.713 130.776 154.713 130.776-35.363 57.306-150.465 70.366-183.738-6.761-26.967-62.506 29.025-124.015 29.025-124.015" fill="#fff345"/><path d="m410.713 84.28s55.991 61.509 29.025 124.015c-33.274 77.126-148.375 64.067-183.738 6.761 0 0 95.54-6.768 154.713-130.776" fill="#fff345"/><path d="m410.713 84.28c-5.841 12.242-12.041 23.324-18.464 33.387 11.887 23.631 21.41 56.982 6.895 90.628-13.25 30.712-39.478 47.111-68.476 52.122 42.861 7.026 89.754-7.348 109.071-52.122 26.966-62.506-29.026-124.015-29.026-124.015z" fill="#ffea05"/><g><g fill="#97e3fc"><path d="m256 224.052-29.159 25.532c-55.087 48.236-55.148-109.153 0-60.864l29.159 25.532z"/><path d="m256 214.252 29.159-25.532c55.087-48.236 55.148 109.153 0 60.864l-29.159-25.532z"/></g><ellipse cx="256" cy="219.142" fill="#ccf7fc" rx="22.04" ry="21.979"/></g></g><path d="m230.971 512c0-160.856-166.052-185.918-166.052-185.918v-21.356h382.161v21.356s-166.052 29.152-166.052 185.918z" fill="#fff345"/><path d="m406.486 304.727v21.356s-166.052 29.152-166.052 185.917h40.595c0-156.766 166.052-185.917 166.052-185.917v-21.356z" fill="#ffea05"/></g></g></g></svg>