<svg height="512pt" viewBox="0 -36 512.00023 512" width="512pt" xmlns="http://www.w3.org/2000/svg"><path d="m510.832031 243.484375c-8.257812 99.035156-8.257812 161.96875-8.257812 161.96875s-51.300781 35.183594-158.855469 34.496094c-20.042969-.117188-42.054688-1.488281-66.058594-4.570313v-89.757812h-43.332031v89.757812c-84.605469 10.863282-144.5.496094-181.097656-10.902344-29.460938-9.175781-43.816407-19.023437-43.816407-19.023437s0-62.933594-8.246093-161.96875c-4.464844-53.550781 4.644531-108 13.957031-153.410156 3.523438-17.21875 7.082031-33.136719 9.941406-47.21875 3.546875-17.457031 6.019532-32.097657 6.019532-42.855469h449.820312c0 19.433594 8.050781 51.492188 15.96875 90.074219 9.3125 45.410156 18.421875 99.859375 13.957031 153.410156zm0 0" fill="#7ace84"/><g fill="#4baa54"><path d="m343.71875 299.070312v140.878907c-20.042969-.117188-42.054688-1.488281-66.058594-4.570313v-89.757812s49.878906-19.234375 66.058594-46.550782zm0 0"/><path d="m208.898438 74.304688-60.949219 109.335937c0-39.890625-66.3125-66.027344-92.449219-39.890625s-2.269531 280.726562-2.269531 280.726562c-29.460938-9.175781-43.816407-19.023437-43.816407-19.023437s0-62.933594-8.246093-161.96875c-4.464844-53.550781 4.644531-108 13.957031-153.410156 3.523438-17.21875 7.082031-33.136719 9.941406-47.21875l182.957032-5.847657zm0 0"/><path d="m175.179688 90.074219c-44.0625 64.289062-26.136719 163.722656-6.910157 208.996093 14.195313 26.929688 37.214844 42.140626 66.058594 46.550782h21.671875c-39.550781 0-72.566406-165.464844-39.550781-255.546875zm0 0"/></g><path d="m496.875 90.074219h-481.75c7.90625-38.582031 15.960938-70.640625 15.960938-90.074219h449.820312c0 19.433594 8.050781 51.492188 15.96875 90.074219zm0 0" fill="#343c3f"/><path d="m496.875 90.074219h-396.636719c7.90625-38.582031 15.960938-70.640625 15.960938-90.074219h364.707031c0 19.433594 8.050781 51.492188 15.96875 90.074219zm0 0" fill="#515a5e"/><path d="m292.753906 63.960938h-73.511718c-6.195313 0-11.21875-5.023438-11.21875-11.21875v-15.734376c0-6.195312 5.019531-11.21875 11.21875-11.21875h73.511718c6.195313 0 11.21875 5.019532 11.21875 11.21875v15.734376c-.003906 6.195312-5.023437 11.21875-11.21875 11.21875zm0 0" fill="#cce6f6"/></svg>