<?xml version="1.0" encoding="iso-8859-1"?>
<!-- Generator: Adobe Illustrator 19.0.0, SVG Export Plug-In . SVG Version: 6.00 Build 0)  -->
<svg version="1.1" id="Capa_1" xmlns="http://www.w3.org/2000/svg" xmlns:xlink="http://www.w3.org/1999/xlink" x="0px" y="0px"
	 viewBox="0 0 368 368" style="enable-background:new 0 0 368 368;" xml:space="preserve">
<g>
	<g>
		<path d="M184,0C82.544,0,0,82.544,0,184s82.544,184,184,184s184-82.544,184-184S285.456,0,184,0z M184,352
			c-92.64,0-168-75.36-168-168S91.36,16,184,16s168,75.36,168,168S276.64,352,184,352z"/>
	</g>
</g>
<g>
	<g>
		<path d="M280.408,88.192c-0.096-0.104-0.128-0.248-0.24-0.36c-0.104-0.104-0.248-0.136-0.36-0.24
			C255.216,63.144,221.344,48,184,48c-37.36,0-71.232,15.152-95.84,39.616c-0.104,0.088-0.232,0.12-0.328,0.216
			s-0.128,0.224-0.216,0.328C63.152,112.768,48,146.64,48,184c0,5.984,0.392,11.936,1.168,17.824
			c2.328,17.672,8.096,34.752,17.024,50.176c24.216,41.944,69.36,68,117.808,68s93.592-26.056,117.808-68
			c10.24-17.696,16.296-37.584,17.8-58.024c0.24-3.312,0.392-6.64,0.392-9.976C320,146.656,304.856,112.8,280.408,88.192z
			 M279.68,256.408c-2.472,3.264-5.128,6.36-7.904,9.328c-0.504,0.536-1,1.08-1.512,1.608c-2.784,2.872-5.704,5.608-8.752,8.184
			c-0.536,0.456-1.088,0.888-1.632,1.336c-3.16,2.576-6.424,5.024-9.824,7.264c-0.352,0.232-0.712,0.432-1.064,0.656
			c-3.416,2.2-6.944,4.24-10.568,6.08c-0.296,0.152-0.576,0.32-0.872,0.464c-3.672,1.832-7.464,3.44-11.32,4.896
			c-0.632,0.24-1.256,0.488-1.888,0.712c-3.768,1.352-7.608,2.504-11.504,3.472c-0.712,0.176-1.424,0.344-2.144,0.504
			c-3.952,0.904-7.96,1.648-12.016,2.152c-0.568,0.072-1.144,0.112-1.712,0.168C192.688,303.704,188.36,304,184,304
			s-8.688-0.296-12.968-0.768c-0.568-0.064-1.144-0.104-1.712-0.168c-4.056-0.504-8.064-1.24-12.016-2.152
			c-0.712-0.168-1.432-0.328-2.144-0.504c-3.896-0.968-7.736-2.12-11.496-3.472c-0.64-0.232-1.264-0.48-1.904-0.72
			c-3.848-1.456-7.632-3.056-11.304-4.888c-0.304-0.152-0.584-0.32-0.888-0.472c-3.616-1.84-7.128-3.872-10.536-6.064
			c-0.36-0.232-0.728-0.44-1.088-0.672c-3.392-2.24-6.648-4.68-9.808-7.256c-0.552-0.448-1.104-0.888-1.648-1.344
			c-3.048-2.568-5.96-5.304-8.744-8.176c-0.512-0.528-1.008-1.064-1.504-1.6c-2.776-2.976-5.44-6.072-7.912-9.344
			c-0.096-0.128-0.184-0.264-0.288-0.392h191.936C279.872,256.136,279.776,256.272,279.68,256.408z M264,192h39.512
			c-0.128,1.912-0.128,3.84-0.352,5.736c-0.048,0.416-0.072,0.832-0.12,1.24c-0.544,4.32-1.352,8.592-2.36,12.816
			c-0.144,0.6-0.264,1.2-0.416,1.792c-1.04,4.104-2.32,8.136-3.784,12.104c-0.24,0.648-0.48,1.304-0.736,1.952
			c-1.528,3.92-3.264,7.76-5.2,11.504c-0.144,0.288-0.304,0.576-0.448,0.856H77.904c-0.152-0.28-0.304-0.568-0.456-0.848
			c-1.944-3.744-3.672-7.584-5.2-11.504c-0.256-0.648-0.496-1.296-0.736-1.952c-1.464-3.968-2.744-8-3.784-12.104
			c-0.152-0.592-0.272-1.2-0.416-1.792c-1-4.224-1.816-8.496-2.36-12.816c-0.048-0.408-0.072-0.824-0.12-1.24
			c-0.216-1.904-0.224-3.824-0.352-5.736H104c4.416,0,8-3.584,8-8c0-4.416-3.584-8-8-8H64.408
			c1.8-27.064,12.552-51.656,29.392-70.888l27.976,27.976c1.56,1.56,3.608,2.344,5.656,2.344c2.048,0,4.096-0.784,5.656-2.344
			c3.128-3.128,3.128-8.184,0-11.312l-27.976-27.976c19.232-16.84,43.824-27.6,70.888-29.392V104c0,4.416,3.584,8,8,8
			c4.416,0,8-3.584,8-8V64.408c27.064,1.8,51.664,12.56,70.888,29.4l-68.608,68.6C191.152,160.912,187.696,160,184,160
			c-13.232,0-24,10.768-24,24s10.768,24,24,24s24-10.768,24-24c0-3.696-0.904-7.152-2.408-10.28l68.608-68.6
			c16.84,19.232,27.592,43.824,29.392,70.88H264c-4.416,0-8,3.584-8,8S259.584,192,264,192z"/>
	</g>
</g>
<g>
</g>
<g>
</g>
<g>
</g>
<g>
</g>
<g>
</g>
<g>
</g>
<g>
</g>
<g>
</g>
<g>
</g>
<g>
</g>
<g>
</g>
<g>
</g>
<g>
</g>
<g>
</g>
<g>
</g>
</svg>
