<svg id="Layer_1" enable-background="new 0 0 512.068 512.068" height="512" viewBox="0 0 512.068 512.068" width="512" xmlns="http://www.w3.org/2000/svg"><g><path d="m490.369 341.663c-.137-.139-30.068-29.571-81.771-80.412-.93-.916-.598 11.343-.598-181.236 0-4.418-3.582-8-8-8h-136c-4.418 0-8 3.582-8 8v230.783c0 13.13 5.469 25.836 15.005 34.862l110.357 104.445c14.509 14.185 33.684 21.994 54.097 21.909 41.929-.189 76.163-33.973 76.538-76.204.181-20.315-7.501-39.545-21.628-54.147z" fill="#f79caf"/><path d="m502.12 432.886c-21.654 38.136-68.861 49.513-104.76 29.24-2.08-1.18-3.53-3.23-3.94-5.59-10.641-61.019 38.582-114.056 95.71-112.51 3.817.148 5.499 2.432 7 4.32 19.811 25.838 20.379 60.18 5.99 84.54z" fill="#e2e0e0"/><path d="m250.369 381.663c-.137-.139-30.068-29.571-81.771-80.412-.93-.916-.598 11.343-.598-181.236 0-4.418-3.582-8-8-8h-136c-4.418 0-8 3.582-8 8v230.783c0 13.13 5.469 25.836 15.005 34.862l110.357 104.445c14.509 14.185 33.684 21.994 54.097 21.909 41.929-.189 76.163-33.973 76.538-76.204.181-20.315-7.501-39.545-21.628-54.147z" fill="#f79caf"/><path d="m272 435.816c-.436 49.224-46.586 85.807-95.25 74.01 60.564-10.832 84.215-85.148 41.62-129.16-27.785-27.751-82.37-80.026-82.37-81.84v-179.81c0-3.02-1.67-5.65-4.14-7h28.14c4.42 0 8 3.58 8 8 0 192.63-.329 180.311.6 181.24 81.437 80.081 81.561 80.202 81.77 80.41 14.13 14.6 21.81 33.83 21.63 54.15z" fill="#e3889b"/><g fill="#e2e0e0"><path d="m262.12 472.886c-21.453 37.783-68.501 49.714-104.76 29.24-2.08-1.18-3.53-3.23-3.94-5.59-10.268-58.876 35.3-112.52 94.58-112.52 2.771 0 5.163.594 7.08 3 20.444 24.985 21.987 60.565 7.04 85.87z"/><path d="m24 288.016c-4.418 0-8 3.582-8 8v54.78c0 13.135 5.468 25.841 15.001 34.86l39.79 37.66c3.201 3.03 8.263 2.905 11.307-.309 14.124-14.91 21.902-34.44 21.902-54.991 0-44.113-35.888-80-80-80z"/><path d="m168 192.016v80c0 4.42-3.58 8-8 8-26.636 0-48-21.697-48-48 0-26.301 21.369-48 48-48 4.42 0 8 3.579 8 8z"/><path d="m24 240.016c26.467 0 48-21.533 48-48s-21.533-48-48-48c-4.418 0-8 3.582-8 8v80c0 4.418 3.582 8 8 8z"/></g><path d="m512 395.816c-.428 48.342-45.033 84.663-92.89 74.54 59.092-12.434 81.144-85.412 39.26-128.69-25.763-25.763-82.37-80.022-82.37-81.84v-179.81c0-4.42-3.58-8-8-8h32c4.42 0 8 3.58 8 8 0 192.63-.329 180.311.6 181.24 81.275 79.921 81.561 80.201 81.77 80.41 14.13 14.6 21.81 33.83 21.63 54.15z" fill="#e3889b"/><path d="m512 395.816c-.296 35.148-24.495 64.803-56.1 73.37-19.701 5.633-36.844 1.16-36.74 1.16 55.175-11.664 79.973-78.233 44.12-123.09 9.066-2.436 18.643-3.425 25.85-3.23 3.817.148 5.499 2.432 7 4.32 9.634 12.247 16.031 29.129 15.87 47.47z" fill="#cecccc"/><path d="m264 248.016c-4.418 0-8 3.582-8 8v54.78c0 13.135 5.468 25.841 15.001 34.86l39.79 37.66c3.201 3.03 8.263 2.905 11.307-.309 14.124-14.91 21.902-34.44 21.902-54.992 0-44.112-35.888-79.999-80-79.999z" fill="#e2e0e0"/><path d="m408 152.016v80c0 4.42-3.58 8-8 8-26.636 0-48-21.697-48-48 0-26.301 21.369-48 48-48 4.42 0 8 3.579 8 8z" fill="#e2e0e0"/><path d="m264 200.016c26.467 0 48-21.533 48-48s-21.533-48-48-48c-4.418 0-8 3.582-8 8v80c0 4.418 3.582 8 8 8z" fill="#e2e0e0"/><path d="m266.75 463.146c-.02.06-.05.12-.07.18-10.356 26.473-35.376 45.818-64.45 48.36-12.331 1.372-26.153-1.87-25.4-1.87 57.066-10.301 82.095-77.681 47.1-122.74 7.7-2 15.76-3.06 24.07-3.06 2.771 0 5.163.594 7.08 3 16.918 20.676 21.813 50.246 11.67 76.13z" fill="#cecccc"/><path d="m168 192.016v80c0 4.42-3.58 8-8 8-8.74 0-16.94-2.34-24-6.44v-83.12c7.06-4.1 15.26-6.44 24-6.44 4.42 0 8 3.579 8 8z" fill="#cecccc"/><path d="m166 40.016h-148c-9.925 0-18 8.075-18 18v52c0 9.925 8.075 18 18 18h148c9.925 0 18-8.075 18-18v-52c0-9.926-8.075-18-18-18z" fill="#f79caf"/><path d="m184 58.016v52c0 9.93-8.07 18-18 18h-32c9.93 0 18-8.07 18-18v-52c0-9.93-8.07-18-18-18h32c9.93 0 18 8.07 18 18z" fill="#e3889b"/><path d="m406 .016h-148c-9.925 0-18 8.075-18 18v52c0 9.925 8.075 18 18 18h148c9.925 0 18-8.075 18-18v-52c0-9.926-8.075-18-18-18z" fill="#f79caf"/><path d="m424 18.016v52c0 9.93-8.07 18-18 18h-32c9.93 0 18-8.07 18-18v-52c0-9.93-8.07-18-18-18h32c9.93 0 18 8.07 18 18z" fill="#e3889b"/><path d="m408 152.016v80c0 4.42-3.58 8-8 8-8.74 0-16.94-2.34-24-6.44v-83.12c7.06-4.1 15.26-6.44 24-6.44 4.42 0 8 3.579 8 8z" fill="#cecccc"/></g></svg>