<svg height="512pt" viewBox="-22 0 511 512" width="512pt" xmlns="http://www.w3.org/2000/svg"><path d="m11.8125 504.164062c-7.679688-6.597656-12.203125-16.703124-11.164062-27.664062l39.921874-423.039062h386.382813l37.023437 392.289062-43.40625 66.25h-37.507812c-14.195312 0-26.75-9.234375-30.976562-22.792969l-28.929688-92.789062 10.847656-39.664063-29.363281-19.71875-51.375-164.796875c-1.820313-5.828125-7.207031-9.796875-13.3125-9.796875h-12.378906c-6.109375 0-11.496094 3.96875-13.316407 9.796875l-42.871093 137.523438-31.183594 21.289062 9.714844 47.539063-34.480469 110.617187c-4.226562 13.558594-16.78125 22.792969-30.980469 22.792969h-8.5l-16.460937-23.132812zm0 0" fill="#75b8db"/><path d="m426.953125 53.460938h-386.382813l193.191407-26.730469zm0 0" fill="#b4dbf3"/><path d="m426.953125 53.460938h-386.382813l1.539063-16.316407c1.984375-21.054687 19.667969-37.144531 40.816406-37.144531h301.671875c21.148438 0 38.828125 16.089844 40.8125 37.144531zm0 0" fill="#96ccec"/><g fill="#545b67"><path d="m157.105469 116.671875c-4.269531 0-7.726563-3.457031-7.726563-7.726563v-13.871093c0-4.269531 3.457032-7.726563 7.726563-7.726563 4.265625 0 7.726562 3.457032 7.726562 7.726563v13.871093c0 4.269532-3.460937 7.726563-7.726562 7.726563zm0 0"/><path d="m310.417969 116.671875c-4.269531 0-7.726563-3.457031-7.726563-7.726563v-13.871093c0-4.269531 3.457032-7.726563 7.726563-7.726563s7.726562 3.457032 7.726562 7.726563v13.871093c0 4.269532-3.457031 7.726563-7.726562 7.726563zm0 0"/><path d="m233.761719 124.078125c-9.605469 0-18.621094-4.011719-24.738281-11.011719-2.808594-3.214844-2.480469-8.09375.734374-10.902344 3.210938-2.808593 8.09375-2.480468 10.898438.730469 3.183594 3.640625 7.960938 5.730469 13.105469 5.730469s9.917969-2.085938 13.101562-5.726562c2.808594-3.214844 7.691407-3.542969 10.902344-.734376 3.214844 2.808594 3.542969 7.6875.734375 10.902344-6.117188 7-15.136719 11.011719-24.738281 11.011719zm0 0"/></g><path d="m166.234375 207.21875c-.039063 0-.078125 0-.117187 0-35.144532 0-63.632813-28.492188-63.632813-63.632812 0-8.292969 1.585937-16.210938 4.472656-23.472657 1.632813-4.105469-2.453125-8.226562-6.574219-6.648437-24.332031 9.316406-41.488281 33.128906-40.871093 60.878906.746093 33.542969 27.933593 61.046875 61.46875 62.148438 19.460937.640624 37.039062-7.460938 49.121093-20.675782 3.035157-3.320312.628907-8.605468-3.867187-8.597656zm0 0" fill="#fed994"/><path d="m407.296875 399.441406c-13.839844 11.371094-32.386719 16.902344-51.558594 13.511719-12.648437-2.242187-23.832031-8.183594-32.582031-16.535156l-18.515625-59.382813c5.253906-24.757812 24.519531-43.417968 48.144531-48.792968 4.308594-.976563 7.761719 3.679687 5.5625 7.515624-3.886718 6.773438-6.578125 14.394532-7.75 22.597657-4.988281 34.789062 19.183594 67.03125 53.964844 72.007812.039062.011719.082031.011719.121094.019531 4.453125.628907 6.089844 6.199219 2.613281 9.058594zm0 0" fill="#fed994"/><path d="m401.917969 165.578125-27.445313.21875-15.738281-22.484375c-4.226563-6.035156-13.542969-4.605469-15.761719 2.421875l-8.273437 26.167969-26.246094 8.019531c-7.046875 2.15625-8.566406 11.453125-2.566406 15.738281l22.328125 15.953125-.480469 27.441407c-.128906 7.367187 8.246094 11.6875 14.171875 7.308593l22.074219-16.308593 25.949219 8.9375c6.96875 2.398437 13.660156-4.234376 11.328124-11.222657l-8.6875-26.035156 16.515626-21.914063c4.4375-5.886718.199218-14.304687-7.167969-14.242187zm0 0" fill="#edc15f"/><path d="m171.386719 309.761719-21.46875 68.832031-19.542969-12.234375-25.191406 10.90625c-6.765625 2.929687-13.941406-3.164063-12.160156-10.3125l6.660156-26.625-18.15625-20.574219c-4.871094-5.53125-1.304688-14.25 6.054687-14.753906l27.378907-1.902344 13.953124-23.625c3.753907-6.34375 13.148438-5.632812 15.90625 1.203125l10.257813 25.445313zm0 0" fill="#edc15f"/><path d="m434.570312 512h-14l-1.472656-14.835938-24.035156-13.242187c-6.457031-3.558594-6.027344-12.972656.71875-15.925781l25.136719-11.019532 5.171875-26.957031c1.386718-7.238281 10.476562-9.738281 15.371094-4.238281l18.25 20.503906 4.265624-.535156 2.898438 30.75c1.800781 19.039062-13.179688 35.5-32.304688 35.5zm0 0" fill="#edc15f"/><path d="m85.074219 480.726562c-.246094 11.390626-3.554688 22.082032-9.117188 31.273438h-43.007812c-8.109375 0-15.480469-2.972656-21.136719-7.835938 18.175781-11.195312 30.296875-31.285156 30.296875-54.199218 0-8.296875-1.59375-16.214844-4.480469-23.472656-1.625-4.101563 2.457032-8.226563 6.578125-6.652344 24.335938 9.316406 41.484375 33.125 40.867188 60.886718zm0 0" fill="#fed994"/></svg>