<svg height="512pt" viewBox="-22 0 512 512" width="512pt" xmlns="http://www.w3.org/2000/svg"><path d="m18.476562 496.894531c-7.457031-6.40625-11.847656-16.214843-10.839843-26.855469l38.753906-410.644531h375.0625l35.941406 380.796875-42.136719 64.308594h-36.40625c-13.78125 0-25.96875-8.960938-30.070312-22.125l-28.082031-90.070312 10.527343-38.5-28.5-19.144532-49.871093-159.964844c-1.765625-5.660156-6.996094-9.511718-12.925781-9.511718h-12.015626c-5.925781 0-11.15625 3.851562-12.921874 9.511718l-41.617188 133.488282-30.269531 20.667968 9.429687 46.148438-33.472656 107.375c-4.101562 13.164062-16.285156 22.125-30.066406 22.125h-8.253906l-15.976563-22.453125zm0 0" fill="#75b8db"/><path d="m421.453125 59.394531h-375.0625l187.53125-25.945312zm0 0" fill="#b4dbf3"/><path d="m421.453125 59.394531h-375.0625l1.496094-15.835937c1.925781-20.441406 19.089843-36.058594 39.621093-36.058594h292.828126c20.53125 0 37.695312 15.617188 39.621093 36.058594zm0 0" fill="#96ccec"/><path d="m168.371094 208.648438c-.035156 0-.074219 0-.109375 0-34.117188 0-61.773438-27.65625-61.773438-61.769532 0-8.050781 1.542969-15.734375 4.34375-22.785156 1.585938-3.984375-2.378906-7.984375-6.382812-6.453125-23.617188 9.042969-40.269531 32.15625-39.671875 59.09375.722656 32.5625 27.117187 59.257813 59.667968 60.332031 18.890626.621094 35.957032-7.246094 47.679688-20.074218 2.949219-3.222657.613281-8.351563-3.753906-8.34375zm0 0" fill="#fed994"/><path d="m402.375 395.238281c-13.433594 11.039063-31.4375 16.410157-50.050781 13.117188-12.273438-2.175781-23.132813-7.945313-31.625-16.050781l-17.972657-57.644532c5.097657-24.03125 23.800782-42.144531 46.734376-47.363281 4.183593-.949219 7.535156 3.574219 5.398437 7.296875-3.773437 6.574219-6.386719 13.96875-7.523437 21.933594-4.839844 33.773437 18.621093 65.070312 52.382812 69.898437.042969.011719.082031.011719.121094.019531 4.320312.609376 5.90625 6.019532 2.535156 8.792969zm0 0" fill="#fed994"/><g fill="#edc15f"><path d="m397.152344 168.226562-26.640625.210938-15.277344-21.824219c-4.101563-5.859375-13.144531-4.46875-15.300781 2.351563l-8.03125 25.398437-25.476563 7.789063c-6.839843 2.089844-8.3125 11.117187-2.492187 15.277344l21.675781 15.484374-.46875 26.636719c-.125 7.152344 8.007813 11.34375 13.757813 7.09375l21.429687-15.832031 25.1875 8.675781c6.761719 2.332031 13.261719-4.105469 10.996094-10.890625l-8.433594-25.273437 16.035156-21.273438c4.304688-5.710937.191407-13.882812-6.960937-13.824219zm0 0"/><path d="m173.375 308.183594-20.839844 66.816406-18.972656-11.875-24.449219 10.589844c-6.566406 2.84375-13.535156-3.074219-11.804687-10.011719l6.464844-25.847656-17.625-19.96875c-4.730469-5.371094-1.265626-13.832031 5.878906-14.320313l26.578125-1.847656 13.542969-22.933594c3.640624-6.15625 12.761718-5.46875 15.4375 1.167969l9.960937 24.699219zm0 0"/><path d="m428.851562 504.5h-13.59375l-1.429687-14.402344-23.332031-12.851562c-6.265625-3.453125-5.847656-12.597656.699218-15.460938l24.402344-10.695312 5.019532-26.167969c1.347656-7.027344 10.167968-9.453125 14.917968-4.113281l17.714844 19.902344 4.144531-.519532 2.8125 29.847656c1.746094 18.484376-12.792969 34.460938-31.355469 34.460938zm0 0"/></g><path d="m89.59375 474.140625c-.242188 11.058594-3.453125 21.4375-8.851562 30.359375h-41.746094c-7.875 0-15.03125-2.882812-20.519532-7.605469 17.644532-10.867187 29.410157-30.367187 29.410157-52.613281 0-8.054688-1.546875-15.738281-4.351563-22.785156-1.578125-3.980469 2.386719-7.984375 6.386719-6.457032 23.621094 9.042969 40.269531 32.15625 39.671875 59.101563zm0 0" fill="#fed994"/><path d="m167.011719 113.253906v-13.464844c0-4.144531-3.355469-7.5-7.5-7.5-4.140625 0-7.5 3.355469-7.5 7.5v13.464844c0 4.144532 3.359375 7.5 7.5 7.5 4.144531 0 7.5-3.359375 7.5-7.5zm0 0"/><path d="m315.835938 113.253906v-13.464844c0-4.144531-3.359376-7.5-7.5-7.5-4.144532 0-7.5 3.355469-7.5 7.5v13.464844c0 4.144532 3.355468 7.5 7.5 7.5 4.140624 0 7.5-3.359375 7.5-7.5zm0 0"/><path d="m246.644531 107.382812c-3.089843 3.53125-7.726562 5.5625-12.71875 5.5625-4.996093 0-9.632812-2.027343-12.722656-5.5625-2.722656-3.121093-7.460937-3.4375-10.582031-.710937-3.117188 2.726563-3.4375 7.464844-.710938 10.582031 5.9375 6.792969 14.691406 10.691406 24.015625 10.691406 9.320313 0 18.074219-3.898437 24.011719-10.691406 2.726562-3.117187 2.40625-7.855468-.710938-10.582031-3.121093-2.726563-7.855468-2.410156-10.582031.710937zm0 0"/><path d="m116.546875 115.316406c-3.222656-4.746094-9.421875-6.726562-14.773437-4.679687-27.261719 10.4375-45.140626 37.066406-44.492188 66.261719.816406 36.734374 30.210938 66.453124 66.921875 67.660156 20.078125.667968 39.90625-7.675782 53.464844-22.507813 3.382812-3.699219 4.226562-8.84375 2.207031-13.421875-2-4.546875-6.511719-7.480468-11.5-7.480468h-.113281c-29.925781 0-54.269531-24.347657-54.269531-54.269532 0-6.914062 1.28125-13.648437 3.8125-20.015625 1.523437-3.824219 1.050781-8.140625-1.257813-11.546875zm46.003906 100.597656c-9.878906 8.757813-22.71875 13.683594-36.015625 13.683594-.609375 0-1.222656-.007812-1.839844-.027344-28.753906-.949218-51.777343-24.230468-52.417968-53.003906-.464844-20.953125 11.242187-40.214844 29.621094-49.589844-1.929688 6.429688-2.90625 13.101563-2.90625 19.902344 0 36.273438 28.023437 66.121094 63.558593 69.035156zm0 0"/><path d="m411.660156 169.660156c-2.75-5.511718-8.277344-8.933594-14.433594-8.933594-.019531 0-.113281 0-.132812 0l-22.699219.179688s-12.996093-18.5625-13.015625-18.59375c-7.539062-10.765625-24.640625-8.117188-28.59375 4.390625l-6.84375 21.640625s-21.652344 6.621094-21.703125 6.636719c-12.554687 3.835937-15.335937 20.925781-4.664062 28.550781l18.46875 13.195312s-.398438 22.660157-.398438 22.691407c-.230469 13.101562 15.175781 21.046875 25.714844 13.257812l18.253906-13.488281s21.421875 7.378906 21.460938 7.390625c12.351562 4.257813 24.679687-7.992187 20.554687-20.355469l-7.1875-21.53125 13.664063-18.125c3.703125-4.917968 4.300781-11.394531 1.554687-16.90625zm-13.535156 7.875-16.035156 21.277344c-1.484375 1.96875-1.90625 4.546875-1.125 6.886719 0 0 8.339844 24.984375 8.433594 25.269531.296874.886719-.550782 1.734375-1.441407 1.429688l-25.1875-8.675782c-2.332031-.804687-4.914062-.410156-6.898437 1.058594l-21.425782 15.832031c-.757812.558594-1.820312.019531-1.800781-.929687l.464844-26.636719c.042969-2.46875-1.128906-4.800781-3.136719-6.234375 0 0-21.375-15.269531-21.675781-15.484375-.769531-.550781-.570313-1.730469.324219-2.003906l25.476562-7.785157c2.359375-.722656 4.214844-2.558593 4.960938-4.914062 0 0 7.996094-25.304688 8.027344-25.402344.28125-.886718 1.476562-1.0625 2.003906-.308594l15.277344 21.824219c1.417968 2.023438 3.71875 3.214844 6.203124 3.199219 0 0 26.207032-.210938 26.652344-.210938.945313-.007812 1.457032 1.078126.902344 1.808594zm0 0"/><path d="m87.507812 15h41.792969c4.140625 0 7.5-3.359375 7.5-7.5s-3.359375-7.5-7.5-7.5h-41.792969c-24.539062 0-44.785156 18.421875-47.085937 42.851562l-40.25 426.480469c-1.191406 12.578125 3.824219 25.007813 13.421875 33.253907 7.058594 6.070312 16.082031 9.414062 25.402344 9.414062h50c17.164062 0 32.125-11.007812 37.230468-27.394531l95.925782-307.675781c.792968-2.539063 3.109375-4.246094 5.765625-4.246094h12.015625c2.652344 0 4.972656 1.707031 5.761718 4.242187l95.929688 307.679688c5.105469 16.386719 20.066406 27.394531 37.230469 27.394531h49.996093c22.628907 0 40.953126-20.148438 38.824219-42.664062 0 0-2.8125-29.839844-2.8125-29.851563l-8.601562-91.148437c-.390625-4.125-4.054688-7.15625-8.171875-6.765626-4.125.390626-7.152344 4.050782-6.761719 8.171876l6.996094 74.148437s-7.175781-8.066406-7.179688-8.066406c-8.703125-9.773438-25.429687-5.152344-27.890625 7.683593l-4.277344 22.292969s-20.738281 9.09375-20.785156 9.113281c-11.800781 5.175782-12.542968 22.710938-1.308594 28.898438l19.878907 10.949219.21875 2.234375h-28.125c-10.5625 0-19.769531-6.773438-22.910157-16.855469l-21.722656-69.671875c.714844.332031 1.4375.648438 2.167969.957031 11.523437 4.84375 24.382813 6.453125 36.75 4.644531 11.757813-1.714843 22.984375-6.601562 32.425781-13.792968 4.546875-3.460938 7.296875-8.421875 5.660156-14.238282-1.210937-4.296874-5.644531-9.039062-10.441406-9.039062-14.164062-2.023438-27.152344-9.71875-35.730468-21.167969-8.695313-11.601562-12.351563-25.890625-10.292969-40.246093.964843-6.738282 3.214843-13.351563 6.605469-19.261719 5.273437-9.195313-3.257813-20.699219-13.570313-18.34375-8.015625 1.824219-15.828125 5.136719-22.683594 9.6875-.03125.019531-.058593.042969-.089843.0625-8.527344 5.683593-15.914063 13.300781-21.25 22.160156-.0625.105469-.132813.203125-.191407.304687l-43.566406-139.738281c-2.757813-8.839843-10.828125-14.777343-20.082031-14.777343h-12.015625c-9.253907 0-17.324219 5.9375-20.085938 14.78125l-39.558593 126.898437-5.242188-1.167969s-8.480469-21.035156-8.484375-21.042968c-4.898437-12.144532-22.191406-13.4375-28.855469-2.179688l-11.539062 19.539062s-22.605469 1.570313-22.632813 1.574219c-12.050781.835938-19.0625 14.820313-12.382812 24.945313.414062.628906 16.40625 18.835937 16.40625 18.835937s-5.496094 21.972657-5.511719 22.027344c-3.132812 12.523437 10.304688 23.800781 22.066406 18.707031l20.832032-9.023437 10.726562 6.714843-31.75 101.855469c-2.757812 8.847657-10.1875 15.148438-19.101562 16.558594.023437-.066406.042968-.136719.066406-.199219 2.574218-6.992187 4.054687-14.644531 4.222656-22.195312.488281-21.902344-9.449219-42.359375-25.949219-55.625-5.570312-4.484375-11.859375-8.105469-18.542969-10.648438-9.882812-3.78125-19.917968 6.421875-16.03125 16.238282 2.535157 6.367187 3.820313 13.097656 3.820313 20.007812 0 16.566406-7.792969 32.566406-20.859375 42.742188-3.359375-4.664063-4.976562-10.445313-4.425781-16.277344l38.113281-403.851563h361.414062l23.859376 252.847657c.390624 4.125 4.050781 7.15625 8.171874 6.765624 4.125-.390624 7.152344-4.050781 6.761719-8.171874l-26-275.480469c-2.300781-24.433594-22.542969-42.855469-47.085937-42.855469h-221.042969c-4.140625 0-7.5 3.359375-7.5 7.5s3.359375 7.5 7.5 7.5h221.042969c16.757812 0 30.582031 12.578125 32.152344 29.265625l.722656 7.628906h-358.582032l.722657-7.632812c1.574219-16.683594 15.394531-29.261719 32.152343-29.261719zm306.609376 455.675781c-.816407-.453125-.742188-1.65625.089843-2.023437l24.402344-10.699219c2.261719-.988281 3.890625-3.027344 4.355469-5.453125 0 0 5.015625-26.140625 5.019531-26.171875.175781-.898437 1.351563-1.210937 1.953125-.535156 0 0 17.695312 19.882812 17.714844 19.902343.261718.292969 2.917968 2.019532 2.917968 2.015626 0 0 2.171876 23.023437 2.171876 23.03125 1.3125 13.90625-9.949219 26.257812-23.890626 26.257812h-6.796874l-.757813-7.640625c-.246094-2.460937-1.683594-4.640625-3.84375-5.832031 0 .003906-23.28125-12.820313-23.335937-12.851563zm-83.605469-136.382812c3.234375-12.695313 11.183593-24.007813 21.9375-31.46875 4.046875-2.808594 8.496093-5.050781 13.15625-6.644531-2.820313 6.089843-4.730469 12.550781-5.695313 19.285156-2.582031 18.074218 2.195313 36.761718 13.140625 51.363281 9.949219 13.277344 23.996094 22.363281 39.992188 25.988281-.074219.050782-.148438.09375-.222657.144532-3.609374 2.355468-7.496093 4.269531-11.550781 5.71875-11.460937 4.082031-24.324219 4.136718-35.871093.136718-6.644532-2.300781-12.851563-5.941406-18.097657-10.625-.015625-.011718-.027343-.027344-.039062-.039062l-16.773438-53.785156c.007813-.023438.015625-.050782.023438-.074219zm-172.964844 22.472656c-2.09375-1.308594-4.695313-1.503906-6.960937-.523437 0 0-24.449219 10.585937-24.449219 10.589843-.839844.363281-1.777344-.398437-1.550781-1.308593l6.464843-25.847657c.601563-2.394531-.019531-4.933593-1.652343-6.78125 0 0-17.59375-19.933593-17.621094-19.964843-.621094-.703126-.160156-1.820313.773437-1.882813l26.574219-1.847656c2.441406-.167969 4.695312-1.558594 5.9375-3.667969 0 0 13.523438-22.898438 13.550781-22.941406.472657-.78125 1.679688-.667969 2.019531.167968 0 0 9.953126 24.691407 9.957032 24.699219.890625 2.210938 2.9375 3.984375 5.324218 4.515625l7.875 1.757813-15.515624 49.753906zm-105.085937 139.011719c11.109374-9.945313 18.757812-23.507813 21.644531-38.128906 2.167969-10.992188 1.597656-22.550782-1.628907-33.277344 1.148438.589844 2.269532 1.210937 3.367188 1.875 16.425781 9.914062 26.6875 28.078125 26.253906 47.734375-.179687 7.988281-2.1875 15.886719-5.777344 23.019531h-37.324218c-2.316406 0-4.601563-.335938-6.792969-.980469.089844-.082031.171875-.164062.257813-.242187zm0 0"/></svg>