<svg id="Capa_1" enable-background="new 0 0 512 512" height="512" viewBox="0 0 512 512" width="512" xmlns="http://www.w3.org/2000/svg"><g><g><path d="m491.888 74.14c-.939-7.507-7.32-13.14-14.885-13.14h-442.006c-7.565 0-13.946 5.633-14.884 13.14l-7.733 61.86c0 8.284 6.716 15 15 15h457.24c8.284 0 15-6.716 15-15z" fill="#e2dff4"/><g><g><path d="m491.888 74.14c-.939-7.507-7.32-13.14-14.885-13.14h-221.003v90h228.62c8.284 0 15-6.716 15-15z" fill="#bebcdd"/></g></g><path d="m499.62 136h-487.24l-12.268 98.14c-.077.619-.112 1.24-.112 1.86l214.997 215h82.007l214.996-215c0-.62-.035-1.241-.112-1.86z" fill="#f9f9f9"/><g><path d="m512 236c0-.62-.035-1.241-.112-1.86l-12.268-98.14h-243.62v315h41.003z" fill="#e2dff4"/></g></g><path d="m156.418 294.579c-37.775-37.775-87.999-58.579-141.421-58.579h-14.997c0 2.025.406 4.036 1.209 5.909 19.923 46.488 48.159 88.193 83.922 123.956 35.763 35.764 77.468 63.999 123.956 83.922 1.867.8 3.877 1.213 5.909 1.213v-15c.001-53.422-20.803-103.646-58.578-141.421z" fill="#e2dff4"/><g><path d="m355.582 294.579c37.775-37.775 87.999-58.579 141.421-58.579h14.997c0 2.025-.406 4.036-1.209 5.909-19.923 46.488-48.159 88.193-83.922 123.956-35.763 35.764-77.468 63.999-123.956 83.922-1.867.8-3.877 1.213-5.909 1.213v-15c-.001-53.422 20.803-103.646 58.578-141.421z" fill="#bebcdd"/></g><g><path d="m256 313.857c-2.344 0-4.688-.549-6.833-1.646-.672-.344-16.647-8.577-32.729-21.88-23.515-19.454-35.438-39.656-35.438-60.045 0-27.177 22.109-49.286 49.286-49.286 9.143 0 18.028 2.598 25.714 7.361 7.686-4.764 16.571-7.361 25.714-7.361 27.177 0 49.286 22.109 49.286 49.286 0 20.39-11.923 40.592-35.438 60.045-16.081 13.303-32.057 21.536-32.729 21.88-2.145 1.097-4.489 1.646-6.833 1.646z" fill="#eca0e2"/><path d="m281.714 181c-9.143 0-18.028 2.598-25.714 7.361v125.496c2.344 0 4.688-.549 6.833-1.646.672-.344 16.647-8.577 32.729-21.88 23.515-19.454 35.438-39.656 35.438-60.045 0-27.177-22.109-49.286-49.286-49.286z" fill="#dd78ef"/></g></g></svg>