<?xml version="1.0" encoding="iso-8859-1"?>
<!-- Generator: Adobe Illustrator 19.0.0, SVG Export Plug-In . SVG Version: 6.00 Build 0)  -->
<svg version="1.1" id="Capa_1" xmlns="http://www.w3.org/2000/svg" xmlns:xlink="http://www.w3.org/1999/xlink" x="0px" y="0px"
	 viewBox="0 0 511.999 511.999" style="enable-background:new 0 0 511.999 511.999;" xml:space="preserve">
<path style="fill:#FFAA16;" d="M226.834,194.489h57.33c-1.072,2.935-2.043,6.009-2.935,9.235
	c-1.442,5.268-1.663,10.657-0.771,15.805H230.54c0.891-5.148,0.671-10.537-0.771-15.805
	C228.877,200.499,227.905,197.424,226.834,194.489z"/>
<path style="fill:#E84F8E;" d="M230.312,194.489h-3.478c1.072,2.935,2.043,6.009,2.935,9.235c0.35,1.278,0.625,2.562,0.832,3.849
	C231.289,203.301,231.215,198.873,230.312,194.489z"/>
<path style="fill:#FF914D;" d="M280.337,207.993h-49.674c0.58,3.88,0.53,7.772-0.122,11.536h49.919
	C279.807,215.765,279.757,211.873,280.337,207.993z"/>
<path style="fill:#E84F8E;" d="M280.398,207.573c0.207-1.287,0.483-2.572,0.832-3.849c0.891-3.225,1.863-6.3,2.935-9.235h-3.478
	C279.784,198.873,279.71,203.301,280.398,207.573z"/>
<path style="fill:#FFAA16;" d="M146.958,13.684c-0.371-3.766-3.726-6.51-7.492-6.14L129.18,8.566
	c-3.766,0.371-6.51,3.726-6.14,7.492l12.54,126.62v9.986h22.329l1.107-17.267L146.958,13.684z"/>
<path style="fill:#FF914D;" d="M147.997,152.243v-9.986l-12.54-126.62c-0.371-3.766,2.374-7.121,6.14-7.492l1.16-0.115
	c-1.008-0.417-2.128-0.6-3.289-0.486l-10.286,1.022c-3.766,0.371-6.51,3.726-6.14,7.492l12.54,126.62v9.986h22.329l0.027-0.421
	H147.997z"/>
<path style="fill:#FFAA16;" d="M382.821,8.566l-10.286-1.022c-3.766-0.371-7.121,2.374-7.492,6.14l-12.059,121.712v16.426h23.265
	l0.172-9.144l12.54-126.62C389.331,12.292,386.586,8.937,382.821,8.566z"/>
<path style="fill:#FF914D;" d="M365.316,136.238l12.059-121.712c0.293-2.986,2.466-5.323,5.23-5.981l-10.071-1.001
	c-3.766-0.371-7.121,2.374-7.492,6.14l-12.059,121.712v16.426h12.332V136.238z"/>
<path style="fill:#FFC943;" d="M376.42,142.678c-1.833-1.492-3.776-2.694-5.829-3.556c-3.996-1.823-8.253-2.985-12.59-3.465
	c-1.552-0.18-3.115-0.27-4.677-0.27c-0.11,0-0.23,0-0.341,0.01c-0.952,0-1.903,0.04-2.865,0.11
	c-5.088,0.401-11.408,1.272-18.299,3.115c-8.433,2.264-17.728,5.969-26.662,12.009v0.01c-13.01,8.774-25.25,22.495-33.012,43.849
	c-1.072,2.935-2.043,6.009-2.935,9.235c-1.442,5.268-1.663,10.657-0.771,15.805c1.793,10.456,8.123,19.901,17.858,25.25
	c4.377,2.394,9.685,4.587,16.155,6.35c7.702,2.113,17.037,3.626,28.355,4.187c2.534,0.13,5.158,0.21,7.892,0.24
	c7.111,0.07,13.451-0.871,19.08-2.644C405.566,237.888,401.53,163.08,376.42,142.678z"/>
<path style="fill:#FFAA16;" d="M381.507,234.452c-5.629,1.773-11.969,2.714-19.08,2.644c-2.734-0.03-5.358-0.11-7.892-0.24
	c-11.318-0.561-20.653-2.073-28.355-4.187c-6.47-1.763-11.779-3.956-16.155-6.35c-9.735-5.348-16.065-14.793-17.858-25.25
	c-0.891-5.148-0.671-10.537,0.771-15.805c0.891-3.225,1.863-6.3,2.935-9.235c4.575-12.585,10.711-22.501,17.637-30.334
	c-2.794,1.447-5.59,3.067-8.351,4.934v0.01c-13.01,8.774-25.25,22.495-33.012,43.849c-1.072,2.935-2.043,6.009-2.935,9.235
	c-1.442,5.268-1.663,10.657-0.771,15.805c1.793,10.456,8.123,19.901,17.858,25.25c4.377,2.394,9.685,4.587,16.155,6.35
	c7.702,2.113,17.037,3.626,28.355,4.187c2.534,0.13,5.158,0.21,7.892,0.24c7.111,0.07,13.451-0.871,19.08-2.644
	c11.255-3.539,19.633-10.395,25.54-19.074C382.722,234.05,382.122,234.259,381.507,234.452z"/>
<path style="fill:#FFFFFF;" d="M358.001,135.657c8.864,37.94,8.734,77.021-0.22,117.245v0.01c-5.629,1.773-11.969,2.714-19.08,2.644
	c-2.734-0.03-5.358-0.11-7.892-0.24c8.013-38.901,8.343-77.793,1.012-116.684v-0.01c6.891-1.843,13.211-2.714,18.299-3.115
	c0.961-0.07,1.913-0.11,2.865-0.11c0.11-0.01,0.23-0.01,0.341-0.01C354.886,135.386,356.448,135.476,358.001,135.657z"/>
<path style="fill:#E2EBF9;" d="M354.534,236.954c-7.593-0.393-14.275-1.239-20.189-2.414c0,0.005-0.001,0.009-0.002,0.014
	c-0.901,6.922-2.022,13.845-3.37,20.768c2.483,0.125,5.051,0.204,7.727,0.233c7.111,0.07,13.451-0.871,19.08-2.644v-0.01
	c1.172-5.263,2.183-10.507,3.053-15.731C358.675,237.13,356.566,237.064,354.534,236.954z"/>
<path style="fill:#FFFFFF;" d="M305.157,150.64c5.949,33.242,5.088,66.715-2.704,100.478v0.01c-6.47-1.763-11.779-3.956-16.155-6.35
	c-9.735-5.348-16.065-14.793-17.858-25.25c-0.891-5.148-0.671-10.537,0.771-15.805c0.891-3.225,1.863-6.3,2.935-9.235
	C279.907,173.136,292.147,159.414,305.157,150.64z"/>
<path style="fill:#E2EBF9;" d="M291.899,201.275c-0.906-5.221-0.683-10.686,0.785-16.029c0.907-3.271,1.897-6.389,2.987-9.366
	c2.872-7.872,6.35-14.711,10.246-20.664c-0.244-1.525-0.487-3.051-0.76-4.576c-13.01,8.774-25.25,22.495-33.012,43.849
	c-1.072,2.935-2.043,6.009-2.935,9.235c-1.442,5.268-1.663,10.657-0.771,15.805c1.793,10.456,8.123,19.901,17.858,25.25
	c4.377,2.394,9.685,4.587,16.155,6.35v-0.01c2.011-8.713,3.551-17.405,4.641-26.08C298.881,219.434,293.534,210.772,291.899,201.275
	z"/>
<path style="fill:#FFC943;" d="M378.192,381.294c-7.342,0.891-14.693,1.693-22.035,2.424c-8.013,0.791-16.025,1.492-24.038,2.093
	c-10.687,0.801-21.364,1.432-32.051,1.903c-8.013,0.351-16.025,0.601-24.038,0.751c-13.351,0.26-26.702,0.26-40.063-0.01
	c-8.013-0.15-16.025-0.401-24.038-0.761c-10.677-0.461-21.364-1.092-32.051-1.903c-8.013-0.601-16.025-1.292-24.038-2.083
	c-7.342-0.721-14.683-1.532-22.035-2.414c-10.496,10.338-15.415,23.084-16.691,37.392c-0.186,2.089,1.399,3.919,3.494,4.046
	c9.374,0.568,21.907,1.951,35.233,5.175c7.902,1.903,16.075,4.447,24.038,7.862c11.648,4.978,22.836,11.799,32.051,21.103
	c10.046,10.156,17.728,23.267,21.083,40.213c0.411,2.053,1.472,3.816,2.955,5.108v0.01c1.623,1.432,3.756,2.284,6.05,2.284h27.964
	c2.294,0,4.427-0.851,6.05-2.284c1.482-1.292,2.544-3.065,2.955-5.108c3.355-16.947,11.037-30.067,21.093-40.213
	c9.194-9.315,20.392-16.125,32.04-21.103c7.963-3.415,16.145-5.969,24.038-7.882c13.606-3.289,26.387-4.658,35.816-5.202
	c2.021-0.117,3.589-1.829,3.511-3.851C394.885,403.29,390.078,390.205,378.192,381.294z"/>
<path style="fill:#FFAA16;" d="M269.888,493.789c-2.294,0-4.427-0.851-6.05-2.284v-0.01c-1.482-1.292-2.544-3.055-2.955-5.108
	c-3.355-16.947-11.037-30.057-21.083-40.213c-9.215-9.305-20.402-16.125-32.051-21.103c-7.963-3.415-16.135-5.959-24.038-7.862
	c-6.195-1.498-12.217-2.599-17.832-3.405c-14.697-2.11-21.485-14.746-15.036-28.12c0.385-0.798,0.79-1.589,1.215-2.37
	c-6.082-0.622-12.163-1.29-18.253-2.02c-10.497,10.34-15.416,23.089-16.692,37.4c-0.186,2.092,1.39,3.911,3.486,4.038
	c9.375,0.568,21.911,1.95,35.241,5.175c7.902,1.903,16.075,4.447,24.038,7.862c11.648,4.978,22.836,11.799,32.051,21.103
	c10.046,10.156,17.728,23.267,21.083,40.213c0.411,2.053,1.472,3.816,2.955,5.108v0.01c1.623,1.432,3.756,2.284,6.05,2.284h27.964
	c2.294,0,4.427-0.851,6.05-2.284c1.482-1.292,2.544-3.065,2.955-5.108c0.221-1.12,0.465-2.221,0.724-3.307L269.888,493.789
	L269.888,493.789z"/>
<g>
	<path style="fill:#FFFFFF;" d="M356.158,383.718v44.18c-7.892,1.913-16.075,4.467-24.038,7.882v-0.01v-49.959
		C340.132,385.21,348.145,384.509,356.158,383.718z"/>
	<path style="fill:#FFFFFF;" d="M300.069,456.873l0.01,0.01c-10.056,10.146-17.738,23.267-21.093,40.213
		c-0.411,2.043-1.472,3.816-2.955,5.108V388.465c8.013-0.15,16.025-0.401,24.038-0.751V456.873z"/>
	<path style="fill:#FFFFFF;" d="M235.968,388.455v113.739c-1.482-1.292-2.544-3.055-2.955-5.108
		c-3.355-16.947-11.037-30.057-21.083-40.213v-69.179C219.943,388.055,227.956,388.305,235.968,388.455z"/>
</g>
<path style="fill:#E2EBF9;" d="M211.93,456.873c10.046,10.156,17.728,23.267,21.083,40.213c0.411,2.053,1.472,3.816,2.955,5.108
	v-59.169c-7.24-6.637-15.459-11.907-24.038-16.075V456.873z"/>
<path style="fill:#FFFFFF;" d="M179.88,385.791v49.979c-7.963-3.415-16.135-5.959-24.038-7.862v-44.2
	C163.854,384.499,171.867,385.19,179.88,385.791z"/>
<path style="fill:#E2EBF9;" d="M165.881,413.803c-3.956-0.568-7.333-1.904-10.038-3.806v17.91c0.79,0.19,1.585,0.392,2.38,0.595
	c7.156,1.83,14.492,4.194,21.658,7.267v-19.435C175.038,415.274,170.328,414.441,165.881,413.803z"/>
<path style="fill:#FFC943;" d="M242.79,203.724c-0.891-3.225-1.863-6.3-2.935-9.235c-7.762-21.354-20.002-35.075-33.012-43.849
	v-0.01c-8.934-6.04-18.229-9.745-26.662-12.009c-6.891-1.843-13.211-2.714-18.299-3.115c-0.962-0.07-1.913-0.11-2.865-0.11
	c-0.11-0.01-0.23-0.01-0.341-0.01c-1.562,0-3.125,0.09-4.677,0.27c-4.337,0.481-8.594,1.643-12.59,3.465
	c-2.053,0.861-3.996,2.063-5.829,3.556c-25.11,20.402-29.146,95.21,18.639,110.234c5.629,1.773,11.969,2.714,19.08,2.644
	c2.734-0.03,5.358-0.11,7.892-0.24c11.318-0.561,20.653-2.073,28.355-4.187c6.47-1.763,11.779-3.956,16.155-6.35
	c9.735-5.348,16.065-14.793,17.858-25.25C244.452,214.381,244.231,208.992,242.79,203.724z"/>
<path style="fill:#FFAA16;" d="M233.273,232.67c-7.702,2.113-17.037,3.626-28.355,4.187c-2.534,0.13-5.158,0.21-7.892,0.24
	c-7.111,0.07-13.451-0.871-19.08-2.644c-40.77-12.818-43.813-69.149-28.234-98.085c-2.847,0.622-5.634,1.537-8.302,2.754
	c-2.053,0.861-3.996,2.063-5.829,3.556c-25.11,20.402-29.146,95.21,18.639,110.234c5.629,1.773,11.969,2.714,19.08,2.644
	c2.734-0.03,5.358-0.11,7.892-0.24c11.318-0.561,20.653-2.073,28.355-4.187c6.47-1.763,11.779-3.956,16.155-6.35
	c6.107-3.354,10.871-8.322,14.019-14.138C237.709,231.364,235.568,232.045,233.273,232.67z"/>
<path style="fill:#FFFFFF;" d="M242.789,203.724c1.442,5.268,1.663,10.657,0.771,15.805c-1.793,10.456-8.123,19.901-17.858,25.25
	c-4.377,2.394-9.685,4.587-16.155,6.35v-0.01c-7.792-33.763-8.654-67.236-2.704-100.478c13.011,8.774,25.25,22.495,33.012,43.849
	C240.926,197.424,241.898,200.499,242.789,203.724z"/>
<path style="fill:#E2EBF9;" d="M239.589,230.876c-1.851,0.655-3.802,1.277-5.884,1.85c-7.41,2.055-16.33,3.547-27.016,4.19
	c0.821,4.728,1.764,9.463,2.857,14.203v0.01c6.47-1.763,11.779-3.956,16.155-6.35C231.725,241.469,236.441,236.59,239.589,230.876z"
	/>
<path style="fill:#FFFFFF;" d="M180.18,138.621v0.01c-7.332,38.891-7.001,77.783,1.012,116.684c-2.534,0.13-5.158,0.21-7.892,0.24
	c-7.111,0.07-13.451-0.871-19.08-2.644v-0.01c-8.954-40.223-9.084-79.305-0.22-117.245c1.552-0.18,3.115-0.27,4.677-0.27
	c0.11,0,0.23,0,0.341,0.01c0.952,0,1.903,0.04,2.865,0.11C166.969,135.907,173.289,136.778,180.18,138.621z"/>
<path style="fill:#E2EBF9;" d="M173.299,255.556c2.657-0.029,5.207-0.108,7.674-0.231c-1.356-6.782-2.486-13.562-3.391-20.343
	c-14.186-4.612-23.812-14.519-29.695-26.72c0.871,14.72,2.985,29.601,6.332,44.64v0.01
	C159.848,254.684,166.189,255.626,173.299,255.556z"/>
<g>
	<path style="fill:#FFAA16;" d="M133.807,388.307c-0.818,0-1.651-0.135-2.468-0.419l-30.84-10.727
		c-8.154-2.836-17.09-2.706-25.163,0.369l-9.41,3.585c-13.073,4.979-27.827,4.42-40.485-1.536c-3.754-1.767-5.364-6.241-3.599-9.995
		c1.767-3.755,6.241-5.364,9.995-3.599c8.985,4.227,19.459,4.626,28.739,1.091l9.41-3.585c11.369-4.33,23.958-4.514,35.447-0.518
		l30.84,10.727c3.918,1.362,5.989,5.644,4.627,9.562C139.824,386.362,136.916,388.307,133.807,388.307z"/>
	<path style="fill:#FFAA16;" d="M378.192,388.307c-3.109,0-6.016-1.944-7.095-5.046c-1.362-3.918,0.709-8.2,4.627-9.562
		l30.84-10.727c11.489-3.997,24.078-3.812,35.447,0.518l9.41,3.585c9.28,3.536,19.755,3.138,28.739-1.091
		c3.756-1.769,8.229-0.155,9.995,3.599c1.767,3.754,0.155,8.229-3.599,9.995c-12.658,5.955-27.413,6.514-40.485,1.536l-9.41-3.585
		c-8.072-3.075-17.007-3.205-25.163-0.369l-30.84,10.727C379.844,388.172,379.012,388.307,378.192,388.307z"/>
</g>
<g>
	<path style="fill:#434C54;" d="M172.569,263.074c0.267,0,0.538-0.001,0.806-0.004c23.395-0.241,42.216-4.181,55.94-11.708
		c9.853-5.405,16.86-14.193,20.168-24.322h13.036c3.308,10.129,10.315,18.917,20.168,24.322
		c13.725,7.529,32.545,11.468,55.94,11.708c0.275,0.003,0.548,0.004,0.822,0.004c17.64,0,32.709-5.892,43.613-17.066
		c12.934-13.254,19.897-33.949,19.103-56.777c-0.144-4.147-3.618-7.386-7.768-7.246c-4.147,0.144-7.391,3.623-7.245,7.768
		c0.651,18.75-4.759,35.43-14.841,45.762c-8.256,8.46-19.501,12.689-33.529,12.532c-20.894-0.215-37.336-3.533-48.869-9.859
		c-7.473-4.099-12.426-11.212-13.984-19.227c-0.035-0.473-0.114-0.933-0.233-1.377c-0.556-3.855-0.335-7.887,0.759-11.87
		c0.804-2.93,1.691-5.724,2.652-8.39c0.073-0.177,0.138-0.36,0.197-0.544c15.761-42.972,50.979-52.207,71.394-53.782
		c0.692-0.053,1.386-0.085,2.079-0.096c0.189,0.006,0.378,0.004,0.565-0.004c4.866,0.003,9.711,1.046,14.145,3.061
		c0.062,0.028,0.124,0.055,0.186,0.081c1.295,0.547,2.569,1.318,3.807,2.296c0.137,0.12,0.278,0.234,0.424,0.345
		c3.577,2.981,6.841,7.697,9.454,13.745c1.647,3.808,6.069,5.563,9.875,3.916c3.809-1.646,5.562-6.068,3.916-9.876
		c-2.958-6.844-6.633-12.5-10.882-16.804l12.17-122.861c0.38-3.818-0.751-7.554-3.184-10.522c-2.432-2.967-5.873-4.81-9.691-5.187
		l-10.288-1.02c-7.884-0.782-14.925,4.995-15.708,12.875L346.133,128.34c-20.301,2.253-60.013,12.672-79.127,58.635H244.99
		c-19.112-45.963-58.825-56.383-79.126-58.635L154.434,12.944c-0.782-7.879-7.814-13.65-15.707-12.874l-10.288,1.02
		c-3.818,0.378-7.259,2.219-9.691,5.187c-2.433,2.967-3.564,6.704-3.185,10.52l12.171,122.861
		c-5.842,5.91-10.582,14.332-13.796,24.707c-4.606,14.873-5.425,32.174-2.247,47.464
		C118.371,243.97,141.098,263.075,172.569,263.074z M372.451,15.087l8.97,0.888l-11.375,114.819
		c-2.868-1.033-5.826-1.797-8.832-2.284L372.451,15.087z M261.894,201.999c-0.894,3.335-1.386,6.693-1.499,10.016h-8.79
		c-0.113-3.323-0.605-6.681-1.499-10.016H261.894z M139.549,15.087l11.237,113.425c-3.005,0.487-5.964,1.25-8.832,2.284
		l-11.375-114.82L139.549,15.087z M139.891,148.829c0.276-0.194,0.54-0.407,0.786-0.635c1.171-0.897,2.389-1.623,3.651-2.155
		c0.063-0.026,0.125-0.053,0.187-0.082c4.432-2.014,9.273-3.057,14.141-3.06c0.188,0.009,0.38,0.01,0.571,0.004
		c0.693,0.011,1.386,0.043,2.077,0.096c20.417,1.575,55.645,10.812,71.401,53.802c0.056,0.172,0.117,0.341,0.184,0.507
		c0.964,2.671,1.853,5.472,2.658,8.406c1.094,3.984,1.315,8.018,0.759,11.874c-0.117,0.442-0.196,0.899-0.231,1.369
		c-1.558,8.018-6.511,15.132-13.986,19.231c-11.532,6.326-27.974,9.642-48.868,9.859c-0.233,0.002-0.462,0.003-0.693,0.003
		c-33.006-0.002-43.068-24.565-46.127-39.278C121.654,185.933,128.214,158.731,139.891,148.829z"/>
	<path style="fill:#434C54;" d="M382.698,375.283c-1.547-1.161-3.484-1.68-5.406-1.447c-80.303,9.704-161.919,9.704-242.587,0
		c-2.269-0.275-4.54,0.502-6.17,2.107c-12.052,11.877-18.325,27.011-19.176,46.263c-0.088,1.992,0.62,3.938,1.968,5.408
		c1.347,1.47,3.224,2.344,5.216,2.429c28.977,1.238,97.614,10.39,109.103,68.502c1.541,7.795,8.425,13.454,16.369,13.454h27.974
		c7.943,0,14.826-5.657,16.368-13.451c11.523-58.289,80.418-67.338,109.504-68.523c4.02-0.164,7.197-3.465,7.205-7.49
		C403.109,401.046,396.447,385.59,382.698,375.283z M327.867,429.423c-31.37,13.813-50.296,36.09-56.251,66.211
		c-0.153,0.777-0.839,1.341-1.63,1.341h-27.974c-0.79,0-1.476-0.565-1.631-1.344c-5.932-30.006-24.741-52.231-55.902-66.057
		c-20.649-9.16-42.602-12.761-59.429-14.067c1.531-10.509,5.366-19.186,11.618-26.31c79.575,9.278,160.032,9.256,239.256-0.068
		c6.949,6.166,10.788,14.688,11.826,26.324C372.495,416.614,349.352,419.964,327.867,429.423z"/>
</g>
<g>
</g>
<g>
</g>
<g>
</g>
<g>
</g>
<g>
</g>
<g>
</g>
<g>
</g>
<g>
</g>
<g>
</g>
<g>
</g>
<g>
</g>
<g>
</g>
<g>
</g>
<g>
</g>
<g>
</g>
</svg>
