<svg id="Capa_1" enable-background="new 0 0 506.687 506.687" height="512" viewBox="0 0 506.687 506.687" width="512" xmlns="http://www.w3.org/2000/svg"><g><g><g><path d="m207.668 164.846c-47.595-6.933-121.542-20.016-167.694-39.483-14.225-6-29.974 4.326-29.974 19.765v12.837c0 7.797 4.219 14.974 11.025 18.778 39.915 22.306 175.79 103.714 199.619 190.62 2.547 9.29 11.062 15.68 20.695 15.68h24.01c9.633 0 18.148-6.39 20.695-15.68 23.829-86.907 159.703-168.314 199.619-190.62 6.806-3.803 11.025-10.981 11.025-18.778v-12.837c0-15.438-15.749-25.765-29.974-19.765-46.151 19.467-120.098 32.55-167.694 39.483-30.294 4.412-61.059 4.412-91.352 0z" fill="#80b6ff"/></g><path d="m291.246 218.534c-7.989-7.989-20.943-7.989-28.932 0l-8.97 8.97-8.97-8.97c-7.989-7.989-20.943-7.989-28.932 0-7.989 7.989-7.989 20.943 0 28.932l8.97 8.97 28.932 28.932 28.932-28.932 8.97-8.97c7.989-7.99 7.989-20.943 0-28.932z" fill="#ff5c7d"/></g><g><path d="m492.632 118.919c-8.851-5.873-19.994-6.908-29.805-2.77-46.417 19.579-123.457 32.714-165.249 38.801-29.352 4.274-59.117 4.274-88.469 0-41.792-6.087-118.832-19.223-165.249-38.801-9.812-4.139-20.955-3.103-29.805 2.77-8.801 5.839-14.055 15.637-14.055 26.209v12.837c0 11.401 6.187 21.941 16.146 27.507 16.331 9.126 48.827 28.215 82.977 53.518 10.316 7.644 22.238-8.415 11.906-16.069-35.046-25.967-68.377-45.547-85.127-54.907-11.758-6.57-7.866-41.05 10.185-33.436 46.04 19.42 117.934 32.561 170.138 40.165 31.265 4.554 62.97 4.554 94.234 0 52.204-7.604 124.098-20.745 170.139-40.165 18.053-7.605 21.944 26.865 10.185 33.436-22.118 12.36-65.464 38.156-107.262 72.047-53.706 43.546-86.382 85.487-97.123 124.658-1.344 4.902-5.888 8.325-11.051 8.325h-24.009c-5.163 0-9.708-3.423-11.051-8.325-7.777-28.363-27.254-58.438-57.891-89.392-9.075-9.167-23.289 4.901-14.215 14.068 28.19 28.481 45.96 55.604 52.818 80.612 3.719 13.563 16.195 23.036 30.339 23.036h24.009c14.144 0 26.62-9.473 30.339-23.036 9.613-35.059 40.039-73.552 90.432-114.412 40.634-32.947 82.865-58.077 104.422-70.123 9.959-5.566 16.146-16.106 16.146-27.507v-12.837c.001-10.572-5.253-20.37-14.054-26.209z"/><path d="m255.243 211.463c-1.266 2.085-2.532 2.085-3.798 0-5.753-5.753-13.401-8.921-21.538-8.921-8.136 0-15.784 3.168-21.537 8.921-11.875 11.875-11.875 31.199 0 43.074l37.902 37.902c3.859 3.857 10.284 3.858 14.142 0l37.903-37.902c5.752-5.753 8.92-13.401 8.92-21.537s-3.168-15.784-8.92-21.537c-5.753-5.753-13.401-8.921-21.538-8.921-8.135 0-15.784 3.168-21.536 8.921zm28.931 28.932-30.831 30.832-30.831-30.832c-9.545-9.543 5.247-24.334 14.79-14.789l8.97 8.97c3.906 3.905 10.238 3.905 14.142 0l8.971-8.97c9.647-9.649 24.252 5.326 14.789 14.789z"/><path d="m144.27 252.907c-2.093-5.024-8.027-7.487-13.06-5.4-5.034 2.088-7.491 8.013-5.41 13.05 2.078 5.03 8.033 7.502 13.06 5.41 5.046-2.099 7.48-8.009 5.41-13.06z"/></g></g></svg>