<svg id="Layer_3" height="512" viewBox="0 0 64 64" width="512" xmlns="http://www.w3.org/2000/svg" data-name="Layer 3"><path d="m38.257 50.755a47.13 47.13 0 0 0 11.743-2.755v-4l-.462.154a55.47 55.47 0 0 1 -14.755 2.776h-5.566a55.47 55.47 0 0 1 -14.755-2.776l-.462-.154v4a47.094 47.094 0 0 0 11.744 2.756z" fill="#dd5697"/><path d="m49.537 46.154a55.432 55.432 0 0 1 -14.755 2.777h-5.565a55.432 55.432 0 0 1 -14.755-2.777l-.462-.154v2a47.136 47.136 0 0 0 11.744 2.755h12.513a47.165 47.165 0 0 0 11.743-2.755v-2z" fill="#da327b"/><path d="m39.89 46.43v.01l-1.63 4.31-3.55 9.38a2.9 2.9 0 0 1 -5.42 0l-3.55-9.38-1.63-4.31v-.01c1.69.25 3.4.41 5.11.5h5.56c1.71-.09 3.42-.25 5.11-.5z" fill="#e383af"/><path d="m22.266 22.21h22.252v2h-22.252z" fill="#77787c" transform="matrix(.979 -.204 .204 .979 -4.034 7.304)"/><path d="m26.449 27.897h14.204v2h-14.204z" fill="#77787c" transform="matrix(.932 -.362 .362 .932 -8.19 14.118)"/><g fill="#9a9b9f"><path d="m29.458 12.532h2v21.294h-2z" transform="matrix(.204 -.979 .979 .204 1.554 48.27)"/><path d="m29.034 21.188h2v15.095h-2z" transform="matrix(.362 -.932 .932 .362 -7.633 46.313)"/><path d="m15.829.968h2v21.608h-2z" transform="matrix(.997 -.077 .077 .997 -.853 1.325)"/></g><path d="m37 45.3a2.3 2.3 0 0 0 -4.219-1.277l-.781 1.177-.781-1.172a2.3 2.3 0 0 0 -4.219 1.272 2.7 2.7 0 0 0 2.7 2.7h.435l-.964 1.446 1.664 1.109 1.165-1.755 1.168 1.752 1.664-1.109-.964-1.443h.432a2.7 2.7 0 0 0 2.7-2.7zm-2.555-.168a.315.315 0 0 1 .555.168.7.7 0 0 1 -.7.7h-.435zm-5.445.168a.3.3 0 0 1 .555-.168l.577.865h-.432a.7.7 0 0 1 -.7-.697z" fill="#9b2056"/><path d="m38.506 8.792h17.635v2h-17.635z" fill="#9a9b9f" transform="matrix(.077 -.997 .997 .077 33.933 56.226)"/><path d="m32 35-2.479-2.727a81.069 81.069 0 0 1 -12.521-18.273l-.543 3.8a16 16 0 0 1 -2.118 5.964 9.4 9.4 0 0 0 -1.339 4.836 9.4 9.4 0 0 0 9.4 9.4 8.847 8.847 0 0 0 3.1-.563z" fill="#b72965"/><path d="m13 28.6a9.4 9.4 0 0 0 9.4 9.4 8.847 8.847 0 0 0 3.1-.563l5.075-1.9-2.055-2.261a81 81 0 0 1 -11.847-16.986l-.216 1.51a16 16 0 0 1 -2.118 5.964 9.4 9.4 0 0 0 -1.339 4.836z" fill="#da327b"/><path d="m32 35 2.479-2.727a81.069 81.069 0 0 0 12.521-18.273l.543 3.8a16 16 0 0 0 2.118 5.964 9.4 9.4 0 0 1 1.339 4.836 9.4 9.4 0 0 1 -9.4 9.4 8.847 8.847 0 0 1 -3.1-.563z" fill="#b72965"/><path d="m51 28.6a9.4 9.4 0 0 1 -9.4 9.4 8.847 8.847 0 0 1 -3.1-.563l-5.075-1.9 2.055-2.261a81 81 0 0 0 11.847-16.986l.216 1.514a16 16 0 0 0 2.118 5.964 9.4 9.4 0 0 1 1.339 4.832z" fill="#da327b"/></svg>