<?xml version="1.0" encoding="UTF-8"?>
<svg xmlns="http://www.w3.org/2000/svg" id="Layer_3" data-name="Layer 3" viewBox="0 0 64 64" width="512" height="512"><path d="M38.257,50.755A47.13,47.13,0,0,0,50,48h0V44l-.462.154a55.47,55.47,0,0,1-14.755,2.776H29.217a55.47,55.47,0,0,1-14.755-2.776L14,44v4h0a47.094,47.094,0,0,0,11.744,2.756Z" style="fill:#dd5697"/><path d="M49.537,46.154a55.432,55.432,0,0,1-14.755,2.777H29.217a55.432,55.432,0,0,1-14.755-2.777L14,46v2a47.136,47.136,0,0,0,11.744,2.755H38.257A47.165,47.165,0,0,0,50,48V46Z" style="fill:#da327b"/><path d="M39.89,46.43v.01l-1.63,4.31-3.55,9.38a2.9,2.9,0,0,1-5.42,0l-3.55-9.38-1.63-4.31v-.01c1.69.25,3.4.41,5.11.5h5.56C36.49,46.84,38.2,46.68,39.89,46.43Z" style="fill:#e383af"/><path d="M32,35l-2.479-2.727A81.069,81.069,0,0,1,17,14h0l-.543,3.8a16,16,0,0,1-2.118,5.964h0A9.4,9.4,0,0,0,13,28.6h0A9.4,9.4,0,0,0,22.4,38h0a8.847,8.847,0,0,0,3.1-.563Z" style="fill:#b72965"/><path d="M13,28.6A9.4,9.4,0,0,0,22.4,38a8.847,8.847,0,0,0,3.1-.563l5.075-1.9-2.055-2.261A81,81,0,0,1,16.673,16.29L16.457,17.8a16,16,0,0,1-2.118,5.964A9.4,9.4,0,0,0,13,28.6Z" style="fill:#da327b"/><path d="M32,35l2.479-2.727A81.069,81.069,0,0,0,47,14h0l.543,3.8a16,16,0,0,0,2.118,5.964h0A9.4,9.4,0,0,1,51,28.6h0A9.4,9.4,0,0,1,41.6,38h0a8.847,8.847,0,0,1-3.1-.563Z" style="fill:#b72965"/><path d="M51,28.6A9.4,9.4,0,0,1,41.6,38a8.847,8.847,0,0,1-3.1-.563l-5.075-1.9,2.055-2.261A81,81,0,0,0,47.327,16.29l.216,1.514a16,16,0,0,0,2.118,5.964A9.4,9.4,0,0,1,51,28.6Z" style="fill:#da327b"/><path d="M14.316,43.052A1,1,0,0,0,13,44v4a1,1,0,0,0,.648.936,48.118,48.118,0,0,0,11.372,2.729l3.336,8.817A3.916,3.916,0,0,0,32,63h0a3.917,3.917,0,0,0,3.644-2.517l3.338-8.818a48.137,48.137,0,0,0,11.37-2.729A1,1,0,0,0,51,48V44a1,1,0,0,0-1.316-.948l-.462.154A54.49,54.49,0,0,1,36.953,45.77,2.659,2.659,0,0,0,37,45.3a2.3,2.3,0,0,0-4.219-1.277L32,45.2l-.781-1.172A2.3,2.3,0,0,0,27,45.3a2.659,2.659,0,0,0,.047.467,54.5,54.5,0,0,1-12.269-2.564ZM33.772,59.775A1.9,1.9,0,0,1,32,61h0a1.9,1.9,0,0,1-1.772-1.225L25.634,47.639q1.719.195,3.45.285A2.693,2.693,0,0,0,29.7,48h.435l-.964,1.446,1.664,1.109L32,48.8l1.168,1.752,1.664-1.109L33.868,48H34.3a2.7,2.7,0,0,0,.614-.076q1.73-.09,3.45-.285ZM49,47.3a46.16,46.16,0,0,1-9.215,2.242l.837-2.21A56.494,56.494,0,0,0,49,45.38ZM34.445,45.135A.315.315,0,0,1,35,45.3a.7.7,0,0,1-.7.7h-.435ZM29.3,45a.305.305,0,0,1,.252.135l.577.865H29.7a.7.7,0,0,1-.7-.7A.3.3,0,0,1,29.3,45ZM15,45.38a56.365,56.365,0,0,0,8.379,1.953l.837,2.21A46.2,46.2,0,0,1,15,47.3Z"/><path d="M22.4,39a9.821,9.821,0,0,0,3.456-.626L32,36.068l6.147,2.3A9.8,9.8,0,0,0,41.6,39a10.4,10.4,0,0,0,8.916-15.747,14.866,14.866,0,0,1-1.985-5.59l-.528-3.7L49,1.077,47,.923l-.984,12.8q-1.71,3.4-3.735,6.617L32,22.479,21.716,20.336q-2.019-3.214-3.735-6.617L17,.923,15,1.077l.991,12.889-.528,3.7a14.876,14.876,0,0,1-1.985,5.591A10.4,10.4,0,0,0,22.4,39Zm12.977-9.261-.615-.239,1.207-.469C35.769,29.267,35.574,29.505,35.374,29.739Zm3.051-3.811L32,28.427l-6.425-2.5-.045-.058L32,24.522l6.47,1.348ZM29.241,29.5l-.615.239c-.2-.234-.395-.472-.592-.708ZM32,30.573l1.969.766c-.078.086-.152.175-.23.261L32,33.513,30.261,31.6c-.078-.086-.152-.175-.23-.261Zm16.8-6.291A8.4,8.4,0,0,1,41.6,37a7.777,7.777,0,0,1-2.752-.5l-5.119-1.918,1.488-1.636A82.04,82.04,0,0,0,46.448,17.207l.106.738A16.856,16.856,0,0,0,48.8,24.282ZM40.741,22.7c-.319.47-.648.932-.977,1.395l-2.86-.6ZM27.1,23.5l-2.86.6c-.329-.463-.658-.925-.977-1.395Zm-11.9.783a16.868,16.868,0,0,0,2.25-6.337l.106-.739A82.04,82.04,0,0,0,28.78,32.946l1.488,1.636L25.149,36.5A7.8,7.8,0,0,1,22.4,37a8.4,8.4,0,0,1-7.2-12.717Z"/></svg>
