<svg id="Capa_1" enable-background="new 0 0 512.003 512.003" height="512" viewBox="0 0 512.003 512.003" width="512" xmlns="http://www.w3.org/2000/svg"><g><path d="m286 152.003h-60c-.1 0-105 66.87-105 66.97v64.23c0 6.84 4.63 12.82 11.25 14.53 10.97 2.83 22.33 4.27 33.75 4.27 33.2 0 65.22-12.63 90-35.09 24.78 22.46 56.8 35.09 90 35.09 11.42 0 22.78-1.44 33.75-4.27 6.62-1.71 11.25-7.69 11.25-14.53v-64.23c0-.1-104.9-66.97-105-66.97z" fill="#ff5f96"/><path d="m391 218.973v64.23c0 6.84-4.63 12.82-11.25 14.53-10.97 2.83-22.33 4.27-33.75 4.27-33.2 0-65.22-12.63-90-35.09v-114.91h30c.1 0 105 66.87 105 66.97z" fill="#e30a6c"/><g><g><path d="m406 152.003c-8.284 0-15-6.716-15-15 0-66.814-27.281-112.19-28.417-115.292-3.704-7.41-.7-16.42 6.709-20.125 7.411-3.705 16.419-.7 20.125 6.709 1.182 3.234 31.583 53.983 31.583 128.708 0 8.285-6.716 15-15 15z" fill="#e30a6c"/></g></g><g><g><path d="m106 152.003c-8.284 0-15-6.716-15-15 0-74.414 30.4-125.467 31.584-128.707 3.705-7.409 12.713-10.413 20.125-6.709 7.41 3.705 10.413 12.715 6.708 20.125-1.192 3.254-28.417 48.202-28.417 115.291 0 8.285-6.716 15-15 15z" fill="#ff5f96"/></g></g><g><path d="m166 242.003c-41.355 0-75-33.645-75-75v-30c0-6.134 3.734-11.649 9.429-13.927l5.364-2.146c47.283-18.914 101.65-3.669 132.207 37.073 1.947 2.596 3 5.754 3 9 0 41.356-33.645 75-75 75z" fill="#ff8fb8"/></g><g><path d="m346 242.003c-41.355 0-75-33.645-75-75 0-3.246 1.053-6.404 3-9 30.556-40.742 84.922-55.986 132.207-37.073l5.364 2.146c5.694 2.278 9.429 7.793 9.429 13.927v30c0 41.356-33.644 75-75 75z" fill="#ff5f96"/></g><path d="m408.94 361.713c-11.47 2.29-23.56 4.41-34.21 6.05-15.16 2.34-28.09 11.5-34.59 24.5l-35.1 70.19-49.04.01h-49.04l-35.1-70.2c-6.5-13-19.43-22.16-34.59-24.5-10.46-1.61-23-3.81-34.21-6.05-8.21-1.64-13.37-9.64-11.77-17.65 1.63-8.13 9.53-13.39 17.65-11.77 48.79 9.76 97.92 14.64 147.06 14.64s98.27-4.88 147.06-14.64c8.12-1.62 16.02 3.65 17.65 11.77 1.62 8.11-3.63 16.02-11.77 17.65z" fill="#ff8fb8"/><path d="m408.94 361.713c-11.47 2.29-23.56 4.41-34.21 6.05-15.16 2.34-28.09 11.5-34.59 24.5l-35.1 70.19-49.04.01v-115.53c49.14 0 98.27-4.88 147.06-14.64 8.12-1.62 16.02 3.65 17.65 11.77 1.62 8.11-3.63 16.02-11.77 17.65z" fill="#ff5f96"/><path d="m305.04 462.453-20.62 41.26c-2.54 5.08-7.74 8.29-13.42 8.29h-30c-5.68 0-10.88-3.21-13.42-8.29l-20.62-41.25c10.86-15.4 28.77-25.46 49.04-25.46s38.18 10.06 49.04 25.45z" fill="#ff5f96"/><path d="m305.04 462.453-20.62 41.26c-2.54 5.08-7.74 8.29-13.42 8.29h-15v-75c20.27 0 38.18 10.06 49.04 25.45z" fill="#e30a6c"/></g></svg>