<svg id="Capa_1" fill="#FFFFFF" enable-background="new 0 0 100 0" height="512" viewBox="0 0 512 512" width="512" xmlns="http://www.w3.org/2000/svg"><g><path d="m407 192c-8.284 0-15 6.716-15 15v30c0 8.284 6.716 15 15 15s15-6.716 15-15v-30c0-8.284-6.716-15-15-15z"/><path d="m497 120h-10v-40c0-44.112-35.888-80-80-80s-80 35.888-80 80v40h-10c-8.284 0-15 6.716-15 15v87h-257c-24.813 0-45 20.187-45 45v200c0 24.813 20.187 45 45 45h360c24.813 0 45-20.187 45-45v-155h47c8.284 0 15-6.716 15-15v-162c0-8.284-6.716-15-15-15zm-140-40c0-27.57 22.43-50 50-50s50 22.43 50 50v40h-100zm-312 172h257v30h-272v-15c0-8.271 6.729-15 15-15zm360 230h-360c-8.271 0-15-6.729-15-15v-95h390v95c0 8.271-6.729 15-15 15zm15-140h-390v-30h390zm62-60h-150v-132h150z"/></g></svg>