<svg id="Capa_1" enable-background="new 0 0 512 512" height="512" viewBox="0 0 512 512" width="512" xmlns="http://www.w3.org/2000/svg"><g><g><path d="m335.377 36.336c-12.181 24.447-37.491 61.308-79.389 61.308-10.922 0-20.707-2.521-29.436-6.658l-3.538 3.539 25.691 37.333 38.51 15.768 1.49-2.435 37-32 15-26.667v-32-13.334z" fill="#22a7ff"/><path d="m226.551 90.986c-24.755-11.733-40.947-36.576-49.953-54.65l-4.228 3.688v35l5.833 34.5 38.833 30.667 26 33.333h28.333l17.333-28.333 1.826-1.579c-33.312-8.579-53.559-34.568-63.977-52.626z" fill="#0094fd"/><path d="m374.621 373.107-44.5-18.75-19-33v-57.75l27.625-35.35 9.974-7.66c1.46-1.772 3.247-3.286 5.309-4.43 12.803-7.101 36.582-26.792 36.582-75.091 0-12.498-1.534-25.045-4.015-37.177l-4.391-8.017-42.334-20.692-4.111 1.466c-2.877 16.737-10.429 33.288-26.547 45.463-17.96 13.565-29.904 26.991-37.829 38.56-7.415 10.825-23.377 10.825-30.793 0-7.925-11.569-19.869-24.995-37.829-38.56-16.119-12.175-23.671-28.726-26.547-45.463l-5.344-1.132-15.179 7.707-7.654 25.626 3.083 52.899 15.25 37.931 33.333 27.942 4 40.228-5.333 6.5-.75 2.965v51.535l-18.866 23.045-12.384 48.955 24 20.793 51.5 36.957 32.25 39.75h3.606c5.786-3.54 10.728-8.479 14.263-14.542 11.516-19.754 34.487-49.684 76.043-71.643 5.171-2.732 9.407-6.954 12.119-12.135 3.214-6.141 4.109-13.223 2.524-19.947z" fill="#ffe02f"/><path d="m267.882 483.446c-12.373-19.229-36.636-48.12-79.117-68.233-11.971-5.667-18.469-18.601-16.039-31.408 2.383-12.582 9.472-28.482 16.755-45.005l-17.36 21.206-37.25 16.102-5.572 3.982c-1.585 6.724-.69 13.806 2.524 19.947 2.712 5.182 6.948 9.403 12.119 12.135 41.557 21.959 64.527 51.889 76.043 71.643 7.469 12.812 21.173 20.686 36.002 20.686 9.12 0 17.807-2.988 24.888-8.26-5.137-3.207-9.605-7.53-12.993-12.795z" fill="#ffd500"/><path d="m157.946 216.168c2.062 1.144 3.848 2.657 5.309 4.43l12.116 7.66 22.25 34.85v56.728c1.63-3.993 3.174-7.964 4.566-11.874 8.715-24.485 4.887-58.375 2.073-75.377-.599-3.623-2.224-6.95-4.618-9.608-1.537-1.707-3.388-3.14-5.498-4.192-25.587-12.756-47.702-46.409-37.467-110.729 1.565-9.833 3.758-19.42 6.285-28.514l-33.424 16.97-4.158 7.389c-2.481 12.132-4.015 24.678-4.015 37.177-.001 48.298 23.778 67.989 36.581 75.09z" fill="#ffd500"/><path d="m382.442 379.14c-6.136-22.548-21.823-47.171-32.53-73.528-9.782-24.079-7.447-58.104-5.383-75.213.44-3.646 1.916-7.041 4.191-9.802 0 0-43.744 14.005-43.744 52.005v34.91c0 25.758 15.08 49.136 38.561 59.724 10.981 4.952 24.118 9.635 39.139 12.852-.074-.316-.148-.633-.234-.948z" fill="#fbc700"/><path d="m129.533 379.14c6.136-22.548 21.823-47.171 32.53-73.528 9.782-24.079 7.447-58.104 5.383-75.213-.44-3.646-1.916-7.041-4.191-9.802 0 0 43.744 14.005 43.744 52.005v34.91c0 25.758-15.08 49.136-38.561 59.724-10.981 4.952-24.118 9.635-39.139 12.852.075-.316.148-.633.234-.948z" fill="#fbc700"/><path d="m335.76 76.656c18.517 6.894 35.62 16.117 50.836 27.244-9.294-45.441-31.931-85.047-37.512-94.343-.767-1.278-2.145-2.057-3.636-2.057h-11.518c-2.867 0-4.909 2.776-4.047 5.51 3.522 11.169 10.348 37.631 5.877 63.646z" fill="#60b8ff"/><path d="m168.149 41.524-13.27 44.428c6.873-3.443 13.988-6.56 21.336-9.295-2.343-13.633-1.582-27.384.178-38.998z" fill="#60b8ff"/><path d="m175.731 42.566c1.511-12.717 4.43-23.436 6.36-29.556.862-2.734-1.18-5.51-4.047-5.51h-11.517c-1.491 0-2.869.779-3.636 2.057-5.581 9.295-28.218 48.902-37.512 94.343 11.287-8.253 23.616-15.453 36.786-21.438 3.972-14.893 8.901-28.548 13.566-39.896z" fill="#22a7ff"/></g><path d="m189.256 15.264c2.381-7.553-3.279-15.264-11.2-15.264h-11.518c-4.106 0-7.83 1.922-10.588 6.573-7.209 12.134-28.728 50.939-37.907 95.824-.019.091-.02.182-.035.274-9.422 46.198-4.437 97.453 36.311 120.056 3.147 1.746 5.263 5.012 5.691 8.571 1.664 13.786 4.518 48.348-4.885 71.492-10.5 25.834-28.043 54.116-33.114 75.571-3.681 14.722 2.835 32.199 18.438 40.442 39.378 20.808 61.469 48.893 73.067 68.789 8.778 15.055 25.055 24.408 42.482 24.408s33.705-9.353 42.482-24.408c11.598-19.896 33.689-47.981 73.067-68.789 15.472-8.175 22.5-25.726 18.141-41.636-6.401-23.521-22.222-48.298-32.817-74.377-5.289-13.018-6.7-29.649-6.626-44.164.058-11.289 1.013-21.297 1.741-27.329 0-.001 0-.002 0-.004.424-3.501 2.497-6.795 5.691-8.567 40.754-22.606 45.737-73.833 36.312-120.046-.016-.095-.016-.189-.036-.284-6.814-33.318-21.936-69.051-38.198-96.313-2.456-4.113-6.409-6.083-10.297-6.083h-11.517c-6.135 0-11.42 4.789-11.726 11.185-.225 4.696 2.278 6.46 5.358 23.976-10.642 20.646-28.744 45.735-55.997 52.958-4.004 1.061-6.39 5.167-5.329 9.171 1.062 4.004 5.168 6.392 9.171 5.328 24.096-6.386 41.806-23.712 54.272-41.774-.41 19.759-6.162 41.071-24.988 55.29-16.341 12.343-29.629 25.904-39.496 40.307-4.355 6.358-13.9 6.595-18.417 0-9.867-14.402-23.155-27.963-39.496-40.306-18.828-14.221-24.58-35.533-24.989-55.293 12.465 18.062 30.175 35.39 54.272 41.776 4.008 1.065 8.109-1.324 9.171-5.328 1.061-4.004-1.325-8.11-5.329-9.171-27.252-7.223-45.354-32.311-55.996-52.957 1.242-7.053 2.929-13.841 4.834-19.898zm-20.863-.264h5.286c-5.093 17.921-7.801 38.144-5.745 56.828-10.682 4.307-20.927 9.391-30.648 15.206 9.949-34.446 25.892-63.142 31.107-72.034zm202.913 354.492c-8.427-2.447-16.687-5.49-24.675-9.091-20.741-9.354-34.144-30.113-34.144-52.888v-34.91c0-19.03 13.098-31.12 24.03-37.897-7.218 72.958 15.341 84.684 34.789 134.786zm-27.703-354.492c5.216 8.893 21.158 37.588 31.106 72.034-9.721-5.815-19.967-10.899-30.649-15.207 2.067-18.782-.683-39.032-5.744-56.828h5.287zm-109.188 149.917c10.384 15.16 32.764 15.187 43.167 0 26.69-38.957 52.396-36.658 63.657-78.009 13.757 5.78 26.696 12.957 38.603 21.398 7.229 38.043 4.271 82.603-29.439 101.302-2.213 1.228-4.208 2.769-5.948 4.547-9.286 3.473-46.967 19.943-46.967 58.447v34.91c0 28.661 16.869 54.788 42.978 66.562 11.396 5.14 23.305 9.223 35.47 12.166.164 8.018-4.139 15.466-11.395 19.299-42.512 22.464-66.436 52.911-79.019 74.497-6.1 10.464-17.413 16.964-29.524 16.964-12.11 0-23.423-6.5-29.522-16.963-12.583-21.586-36.507-52.033-79.019-74.497-7.245-3.827-11.559-11.272-11.395-19.299 12.166-2.944 24.074-7.027 35.47-12.167 19.583-8.831 34.214-25.752 40.142-46.426 1.143-3.982-1.16-8.135-5.142-9.277-3.986-1.142-8.135 1.161-9.276 5.142-4.711 16.427-16.334 29.872-31.89 36.887-7.988 3.602-16.247 6.643-24.675 9.091 18.95-48.356 42.085-62.336 34.798-134.685 10.923 6.833 24.021 18.956 24.021 37.796v17.979c0 4.142 3.357 7.5 7.5 7.5s7.5-3.358 7.5-7.5v-17.979c0-38.502-37.679-54.973-46.967-58.447-1.74-1.778-3.735-3.319-5.948-4.547-33.712-18.7-36.668-63.249-29.44-101.302 11.907-8.442 24.846-15.618 38.603-21.398 11.237 41.263 37.129 39.29 63.657 78.009z"/></g></svg>