<svg id="Capa_1" enable-background="new 0 0 512 512" height="512" viewBox="0 0 512 512" width="512" xmlns="http://www.w3.org/2000/svg"><g><path d="m337.785 29.706c-12.548 25.185-38.623 63.158-81.785 63.158-11.252 0-21.332-2.597-30.325-6.859l-3.645 3.645 26.467 38.459 39.673 16.244 1.535-2.508 38.117-32.966 15.453-27.471v-32.965-13.736z" fill="#22a7ff"/><path d="m225.675 86.006c-25.502-12.087-42.183-37.68-51.461-56.299l-4.355 3.799v36.056l6.009 35.541 40.005 31.592 26.785 34.34h29.188l17.857-29.189 1.881-1.627c-34.318-8.837-55.176-35.61-65.909-54.213z" fill="#0094fd"/><path d="m378.214 376.641-45.843-19.316-19.573-33.996v-59.493l28.459-36.417 10.275-7.891c1.505-1.826 3.345-3.385 5.469-4.563 13.189-7.316 37.686-27.601 37.686-77.358 0-12.876-1.58-25.801-4.137-38.299l-4.524-8.259-43.611-21.317-4.235 1.51c-2.963 17.242-10.743 34.293-27.348 46.835-18.502 13.975-30.806 27.806-38.971 39.724-7.639 11.152-24.083 11.152-31.722 0-8.164-11.918-20.468-25.749-38.971-39.724-16.605-12.542-24.385-29.593-27.348-46.835l-5.506-1.166-15.637 7.94-7.885 26.4 3.176 54.496 15.71 39.076 34.339 28.785 4.121 41.442-5.494 6.696-.773 3.054v53.091l-19.436 23.741-12.758 50.432 24.724 21.421 53.054 38.072 33.223 40.95h3.715c5.961-3.647 11.052-8.735 14.693-14.981 11.863-20.351 35.527-51.183 78.338-73.805 5.327-2.814 9.691-7.163 12.485-12.501 3.311-6.326 4.233-13.622 2.6-20.549z" fill="#ffe02f"/><path d="m268.254 490.311c-12.746-19.81-37.742-49.573-81.505-70.292-12.332-5.838-19.027-19.163-16.523-32.356 2.455-12.962 9.758-29.342 17.261-46.364l-17.884 21.846-38.374 16.588-5.74 4.102c-1.633 6.927-.711 14.223 2.6 20.549 2.794 5.338 7.158 9.687 12.485 12.501 42.811 22.622 66.475 53.455 78.338 73.805 7.693 13.198 21.811 21.31 37.088 21.31 9.395 0 18.345-3.078 25.639-8.51-5.293-3.302-9.895-7.756-13.385-13.179z" fill="#ffd500"/><path d="m155 214.966c2.124 1.178 3.965 2.737 5.469 4.563l12.482 7.891 22.922 35.901v58.44c1.679-4.114 3.27-8.205 4.704-12.233 8.978-25.224 5.034-60.136 2.136-77.652-.618-3.733-2.291-7.16-4.757-9.898-1.583-1.758-3.491-3.235-5.664-4.319-26.359-13.141-49.142-47.81-38.598-114.071v-.001c1.612-10.129 3.871-20.006 6.474-29.375l-34.432 17.483-4.283 7.612c-2.556 12.498-4.137 25.423-4.137 38.299-.002 49.759 24.494 70.044 37.684 77.36z" fill="#ffd500"/><path d="m386.271 382.857c-6.321-23.228-22.481-48.595-33.512-75.747-10.077-24.805-7.672-59.857-5.545-77.483.453-3.756 1.974-7.253 4.318-10.097 0 0-45.064 14.428-45.064 53.575v35.964c0 26.535 15.535 50.619 39.725 61.527 11.313 5.102 24.846 9.926 40.32 13.239-.078-.327-.154-.654-.242-.978z" fill="#fbc700"/><path d="m125.729 382.857c6.321-23.228 22.481-48.595 33.512-75.747 10.077-24.805 7.672-59.857 5.545-77.483-.453-3.756-1.974-7.253-4.318-10.097 0 0 45.064 14.428 45.064 53.575v35.964c0 26.535-15.535 50.619-39.725 61.527-11.313 5.102-24.846 9.926-40.32 13.239.078-.327.154-.654.242-.978z" fill="#fbc700"/><path d="m338.18 71.243c19.076 7.102 36.695 16.604 52.37 28.066-9.575-46.812-32.894-87.614-38.644-97.19-.791-1.316-2.21-2.119-3.746-2.119h-11.865c-2.953 0-5.057 2.86-4.169 5.676 3.628 11.506 10.66 38.767 6.054 65.567z" fill="#60b8ff"/><path d="m165.51 35.051-13.67 45.769c7.081-3.547 14.41-6.758 21.98-9.576-2.414-14.044-1.63-28.211.184-40.175z" fill="#60b8ff"/><path d="m173.322 36.125c1.557-13.1 4.564-24.143 6.552-30.448.888-2.817-1.216-5.677-4.169-5.677h-11.865c-1.536 0-2.955.803-3.746 2.119-5.749 9.576-29.069 50.378-38.644 97.19 11.627-8.503 24.329-15.92 37.897-22.085 4.09-15.342 9.168-29.409 13.975-41.099z" fill="#22a7ff"/></g></svg>