<?xml version="1.0"?>
<svg xmlns="http://www.w3.org/2000/svg" viewBox="0 0 64 64" width="512" height="512"><g id="CVV"><path d="M57,2H15a5.006,5.006,0,0,0-5,5v9H7a5.006,5.006,0,0,0-5,5V49a5.006,5.006,0,0,0,5,5H31.381a11.924,11.924,0,0,0,12.708.323l.987.987-.712.711a1,1,0,0,0,0,1.414L47.9,60.971A5,5,0,1,0,54.971,53.9l-1.942-1.941A4.99,4.99,0,0,0,54,49V40h3a5.006,5.006,0,0,0,5-5V7A5.006,5.006,0,0,0,57,2ZM7,18H49a3,3,0,0,1,3,3v1H4V21A3,3,0,0,1,7,18Zm20-6a1,1,0,0,1,1,1v3H25V12Zm-4,4H18V13a1,1,0,0,1,1-1h4Zm17-1a3,3,0,0,1,6,0,2.926,2.926,0,0,1-.2,1H40.2A2.926,2.926,0,0,1,40,15ZM4,24H52v4H4Zm47.47-7.321A4.938,4.938,0,0,0,49,16H47.886A4.874,4.874,0,0,0,48,15a4.987,4.987,0,0,0-.67-2.476,2.982,2.982,0,0,1,4.14,4.155ZM32.5,52.343a1,1,0,0,0-.377-.27A10.041,10.041,0,0,1,30.019,50H45.981A9.959,9.959,0,0,1,32.5,52.343ZM47,48H28.841a9.933,9.933,0,0,1,0-8s18.313-.01,18.317,0a9.921,9.921,0,0,1-.013,8.029A1.006,1.006,0,0,0,47,48ZM30.019,38a9.962,9.962,0,0,1,15.962,0Zm-3.838,8H10V42H26.181a11.14,11.14,0,0,0,0,4Zm19.564,7.151a12.123,12.123,0,0,0,1.406-1.406l.744.745L46.49,53.9Zm7.812,6.406a3.007,3.007,0,0,1-4.244,0l-2.828-2.829,4.243-4.243,2.829,2.828A3.006,3.006,0,0,1,53.557,59.557Zm-2.122-9.193a1,1,0,0,0-1.414,0l-.712.712-.987-.987A11.987,11.987,0,1,0,26.7,40H9a1,1,0,0,0-1,1v6a1,1,0,0,0,1,1H26.7a12,12,0,0,0,2.381,4H7a3,3,0,0,1-3-3V30H52V49a2.976,2.976,0,0,1-.425,1.505ZM60,35a3,3,0,0,1-3,3H54V21a4.955,4.955,0,0,0-1.016-2.989,4.993,4.993,0,0,0-6.984-7A4.994,4.994,0,0,0,38,15a4.874,4.874,0,0,0,.114,1H30V13a3,3,0,0,0-3-3H19a3,3,0,0,0-3,3v3H12V7a3,3,0,0,1,3-3H57a3,3,0,0,1,3,3Z"/><path d="M33,43h1a1,1,0,0,0,0-2H33a3,3,0,0,0,0,6h1a1,1,0,0,0,0-2H33a1,1,0,0,1,0-2Z"/><path d="M40.447,41.105a1,1,0,0,0-1.342.448L38,43.764l-1.1-2.211a1,1,0,1,0-1.79.894l2,4a1,1,0,0,0,1.79,0l2-4A1,1,0,0,0,40.447,41.105Z"/><path d="M46.447,41.105a1,1,0,0,0-1.342.448L44,43.764l-1.1-2.211a1,1,0,1,0-1.79.894l2,4a1,1,0,0,0,1.79,0l2-4A1,1,0,0,0,46.447,41.105Z"/></g></svg>
