<?xml version="1.0" standalone="no"?>
<!DOCTYPE svg PUBLIC "-//W3C//DTD SVG 20010904//EN"
 "http://www.w3.org/TR/2001/REC-SVG-20010904/DTD/svg10.dtd">
<svg version="1.0" xmlns="http://www.w3.org/2000/svg"
 width="2615.000000pt" height="988.000000pt" viewBox="0 0 2615.000000 988.000000"
 preserveAspectRatio="xMidYMid meet">
<metadata>
Created by potrace 1.16, written by Peter Selinger 2001-2019
</metadata>
<g transform="translate(0.000000,988.000000) scale(0.100000,-0.100000)"
fill="#000000" stroke="none">
<path d="M2617 9753 c-250 -248 -488 -520 -687 -788 -163 -219 -418 -611 -406
-623 7 -7 3 -13 71 98 286 468 611 880 1001 1268 96 94 169 172 162 172 -6 0
-69 -57 -141 -127z"/>
<path d="M12086 9722 c229 -227 427 -450 605 -682 218 -284 468 -673 613 -952
25 -50 46 -73 46 -52 0 9 -164 303 -220 394 -232 374 -472 697 -753 1015 -118
132 -422 435 -437 435 -8 0 58 -71 146 -158z"/>
<path d="M6445 9684 c-81 -25 -199 -61 -355 -108 -47 -14 -139 -42 -205 -62
-66 -20 -187 -56 -270 -81 -301 -90 -342 -102 -460 -138 -66 -20 -163 -49
-215 -65 -214 -64 -407 -122 -615 -185 -121 -37 -263 -80 -315 -95 -749 -223
-713 -208 -759 -310 -21 -45 -21 -46 -21 -3890 0 -2750 3 -3856 11 -3885 14
-51 49 -97 96 -127 l38 -23 505 -3 c342 -2 508 -6 517 -14 10 -8 13 -52 13
-172 0 -88 4 -177 10 -196 14 -50 62 -104 115 -129 45 -21 49 -21 920 -21 506
0 894 4 918 9 23 5 90 19 148 30 246 49 467 143 701 299 36 24 70 43 75 41 4
-2 46 -29 93 -60 91 -61 227 -135 300 -163 25 -10 59 -24 75 -31 54 -24 188
-63 295 -84 58 -12 127 -26 153 -31 30 -6 388 -10 918 -10 864 0 869 0 914 21
53 25 104 85 116 137 5 20 9 107 9 193 0 116 3 159 13 167 9 8 175 12 517 14
l505 3 47 32 c30 21 54 49 70 80 l23 48 3 3835 c2 2752 0 3849 -8 3886 -12 56
-62 124 -109 148 -23 12 -138 49 -236 76 -29 8 -277 82 -400 120 -33 10 -130
39 -215 65 -85 26 -184 56 -220 67 -36 11 -78 23 -95 28 -29 8 -281 84 -400
120 -66 20 -315 95 -465 140 -145 43 -398 119 -465 140 -33 10 -114 35 -180
55 -66 20 -133 40 -150 45 -16 4 -105 31 -197 59 l-167 51 -758 -1 -758 -1
-80 -24z m1282 -382 c8 -5 8 -35 -3 -122 -15 -116 -26 -207 -44 -347 -77 -629
-97 -790 -120 -958 -5 -38 -14 -107 -20 -152 -5 -46 -15 -118 -20 -160 -6 -43
-26 -208 -45 -368 -20 -159 -40 -321 -45 -360 -5 -38 -14 -107 -20 -152 -5
-46 -15 -118 -20 -160 -6 -43 -26 -208 -45 -368 -42 -347 -43 -355 -55 -355
-10 0 -12 14 -30 160 -6 52 -15 127 -20 165 -9 61 -28 215 -61 488 -5 42 -13
113 -19 157 -5 44 -14 116 -20 160 -5 44 -14 115 -20 158 -5 42 -25 205 -45
362 -20 157 -40 320 -45 363 -6 42 -14 113 -20 157 -5 44 -14 115 -20 158 -30
247 -63 508 -81 652 -55 433 -62 498 -55 515 5 13 66 15 433 15 235 0 433 -4
440 -8z m-1293 -80 c2 -4 10 -52 16 -107 7 -55 15 -129 20 -165 94 -758 96
-774 120 -955 5 -38 14 -113 20 -165 6 -52 15 -124 20 -160 5 -36 25 -195 45
-355 36 -295 48 -395 65 -520 5 -38 14 -110 20 -160 6 -49 15 -121 21 -160 5
-38 25 -200 44 -360 19 -159 39 -321 45 -360 5 -38 15 -110 21 -160 6 -49 15
-121 20 -159 9 -63 7 -87 -6 -75 -2 3 -58 117 -123 255 -66 137 -143 299 -172
359 -29 61 -65 137 -80 170 -15 33 -58 123 -95 200 -37 77 -87 181 -110 230
-23 50 -86 182 -140 295 -53 113 -114 241 -135 285 -21 44 -76 160 -124 258
-47 99 -86 180 -86 182 0 1 -38 82 -85 180 -47 97 -85 180 -85 185 0 4 89 60
198 125 241 144 268 165 298 229 43 93 41 101 -145 478 -72 146 -131 270 -131
275 0 5 21 15 48 22 120 33 447 132 451 136 7 8 39 6 45 -3z m1866 -31 c69
-21 166 -51 215 -66 50 -15 107 -32 128 -38 20 -7 37 -16 37 -22 0 -5 -59
-129 -131 -275 -168 -340 -161 -324 -161 -397 1 -120 14 -132 369 -342 67 -40
126 -78 132 -85 11 -13 -61 -175 -273 -620 -36 -76 -66 -140 -66 -142 0 -1
-31 -69 -70 -150 -38 -80 -70 -148 -70 -149 0 -2 -34 -74 -75 -160 -41 -87
-75 -158 -75 -160 0 -1 -24 -54 -54 -117 -30 -63 -70 -149 -90 -191 -86 -185
-107 -229 -160 -340 -31 -65 -56 -120 -56 -121 0 -2 -31 -68 -69 -147 -38 -79
-85 -179 -104 -221 -37 -82 -58 -100 -52 -45 9 67 25 200 35 275 5 42 26 208
45 367 33 272 43 353 65 515 5 36 14 108 20 160 6 52 15 124 20 160 5 36 21
162 35 280 14 118 30 247 35 285 5 39 14 107 20 153 5 45 15 117 20 160 8 63
52 415 100 805 6 42 15 113 20 157 6 44 14 115 20 158 41 334 44 352 58 352 4
0 64 -18 132 -39z m-2812 -253 c14 -18 222 -436 222 -448 0 -5 -84 -59 -187
-121 -233 -138 -279 -172 -303 -218 -44 -87 -37 -133 46 -309 30 -63 54 -116
54 -117 0 -2 36 -78 80 -170 44 -92 80 -168 80 -170 0 -1 27 -61 61 -131 34
-71 92 -194 129 -274 37 -80 95 -203 129 -274 34 -70 61 -130 61 -131 0 -1 31
-67 68 -146 38 -79 97 -205 132 -279 34 -74 91 -195 126 -268 35 -74 64 -135
64 -137 0 -2 36 -78 80 -170 44 -92 80 -168 80 -170 0 -2 34 -74 75 -160 41
-87 75 -158 75 -160 0 -2 22 -50 169 -359 34 -70 61 -130 61 -131 0 -2 36 -78
80 -170 44 -92 80 -168 80 -170 0 -2 29 -64 65 -140 l65 -136 0 -1501 0 -1500
-32 -45 c-57 -78 -138 -131 -343 -223 -33 -15 -265 -76 -345 -91 -60 -11 -224
-14 -800 -14 l-725 0 -5 2860 c-5 2763 -6 2861 -24 2897 -73 149 -286 156
-368 13 l-23 -40 -5 -2600 -5 -2600 -369 -3 c-289 -2 -371 1 -378 10 -4 7 -8
1638 -8 3624 0 2873 3 3613 13 3626 6 8 21 18 32 21 11 3 103 31 205 62 102
31 199 61 215 65 17 5 113 34 215 65 102 32 199 61 215 65 17 5 59 17 95 28
282 87 457 140 585 179 83 24 168 51 190 58 52 17 61 17 73 3z m3677 -4 c28
-8 115 -35 195 -59 80 -24 244 -73 365 -110 121 -37 263 -80 315 -95 290 -87
416 -125 615 -185 121 -37 230 -70 242 -72 16 -4 24 -15 28 -37 3 -17 4 -1653
3 -3636 l-3 -3605 -375 0 -375 0 -5 2600 -5 2600 -23 40 c-82 142 -295 135
-368 -12 -18 -37 -19 -124 -24 -2898 l-5 -2860 -725 0 c-565 0 -739 3 -790 13
-166 34 -203 43 -291 72 -189 62 -342 153 -407 243 l-32 46 2 393 3 393 151 5
c146 5 153 6 200 35 130 81 130 269 -1 350 -47 29 -53 30 -199 35 l-151 5 0
455 0 455 145 6 c165 6 199 17 255 81 83 98 59 240 -52 310 -34 21 -53 23
-193 28 l-155 5 0 230 0 230 54 110 c75 154 181 376 181 380 0 2 28 61 61 132
119 248 179 375 179 378 0 2 38 83 85 180 47 98 85 178 85 180 0 1 32 69 71
151 39 82 86 181 104 219 18 39 54 115 80 170 89 188 127 270 160 340 32 70
58 125 186 394 38 79 69 145 69 147 0 1 30 65 66 141 36 76 98 206 136 288 39
83 101 215 139 294 38 79 69 145 69 146 0 2 34 74 76 161 65 135 77 169 81
225 4 53 2 73 -15 105 -30 59 -65 86 -289 219 -112 66 -203 126 -203 132 0 7
25 66 56 130 31 65 76 161 101 213 45 96 60 120 72 120 3 0 29 -7 56 -16z"/>
<path d="M5299 3181 c-100 -20 -223 -112 -270 -202 -41 -78 -49 -112 -55 -229
-11 -208 20 -323 116 -424 58 -61 141 -109 218 -125 73 -15 1061 -15 1134 0
142 30 259 133 316 279 18 48 27 289 13 364 -25 133 -112 246 -236 307 l-70
34 -565 2 c-311 0 -581 -2 -601 -6z m1056 -491 l0 -75 -460 -3 c-253 -1 -470
0 -482 3 -21 5 -23 11 -23 74 0 37 3 71 7 74 3 4 221 6 482 5 l476 -3 0 -75z"/>
<path d="M8129 3181 c-100 -20 -223 -112 -270 -202 -50 -96 -52 -106 -53 -289
l0 -175 31 -67 c58 -124 176 -221 301 -247 74 -15 1061 -15 1134 0 146 31 279
154 319 294 19 68 19 346 0 395 -49 129 -119 208 -228 262 l-68 33 -565 2
c-311 0 -581 -2 -601 -6z m1059 -485 c2 -49 -1 -72 -10 -77 -15 -10 -918 -12
-942 -3 -12 5 -16 21 -16 73 0 37 3 71 7 74 3 4 221 6 482 5 l476 -3 3 -69z"/>
<path d="M13530 2246 c0 -34 -201 -440 -333 -671 -155 -273 -436 -683 -606
-885 -25 -30 -64 -77 -86 -104 -69 -87 -245 -277 -400 -433 -84 -84 -147 -153
-140 -153 19 0 379 371 518 534 204 239 419 530 567 766 29 47 74 119 100 160
26 41 69 116 95 165 26 50 51 95 55 100 12 16 145 281 199 399 51 110 59 136
41 136 -5 0 -10 -6 -10 -14z"/>
<path d="M1210 2111 c0 -28 278 -549 391 -731 181 -295 436 -638 683 -920 136
-155 438 -460 456 -460 8 0 -70 84 -172 188 -531 533 -937 1102 -1266 1774
-68 140 -92 178 -92 149z"/>
</g>
</svg>
