<?xml version="1.0" standalone="no"?>
<!DOCTYPE svg PUBLIC "-//W3C//DTD SVG 20010904//EN"
 "http://www.w3.org/TR/2001/REC-SVG-20010904/DTD/svg10.dtd">
<svg version="1.0" xmlns="http://www.w3.org/2000/svg"
 width="2615.000000pt" height="988.000000pt" viewBox="0 0 2615.000000 988.000000"
 preserveAspectRatio="xMidYMid meet">
<metadata>
Created by potrace 1.16, written by Peter Selinger 2001-2019
</metadata>
<g transform="translate(0.000000,988.000000) scale(0.100000,-0.100000)"
fill="#000000" stroke="none">
<path d="M2617 9753 c-250 -248 -488 -520 -687 -788 -163 -219 -418 -611 -406
-623 7 -7 3 -13 71 98 286 468 611 880 1001 1268 96 94 169 172 162 172 -6 0
-69 -57 -141 -127z"/>
<path d="M12086 9722 c229 -227 427 -450 605 -682 218 -284 468 -673 613 -952
25 -50 46 -73 46 -52 0 9 -164 303 -220 394 -232 374 -472 697 -753 1015 -118
132 -422 435 -437 435 -8 0 58 -71 146 -158z"/>
<path d="M4403 9691 c-129 -44 -193 -139 -193 -285 0 -80 -24 -360 -39 -451
-64 -402 -198 -769 -422 -1157 -157 -271 -236 -477 -280 -733 -19 -107 -19
-453 0 -560 18 -104 56 -252 87 -333 13 -35 24 -72 24 -80 0 -9 -38 -73 -84
-142 -330 -495 -559 -1012 -662 -1495 -63 -300 -85 -514 -86 -835 0 -420 44
-763 158 -1240 61 -251 196 -694 279 -910 9 -25 25 -67 35 -95 11 -27 56 -149
101 -270 140 -376 168 -474 189 -644 13 -109 43 -175 100 -222 44 -37 128 -69
180 -69 37 0 52 4 125 36 43 18 100 78 127 133 54 110 6 415 -117 741 -9 25
-25 68 -35 95 -27 75 -107 286 -151 403 -232 605 -356 1062 -414 1531 -17 134
-19 241 -5 241 5 0 60 -40 122 -88 305 -238 648 -457 1073 -685 143 -76 516
-260 580 -285 28 -11 94 -41 149 -66 91 -43 459 -191 706 -284 127 -48 545
-189 690 -232 58 -17 137 -42 175 -54 l70 -23 5 -624 c5 -573 6 -627 23 -664
54 -119 199 -190 323 -156 56 15 131 67 160 110 53 81 54 88 54 737 l0 601 43
12 c260 75 622 193 852 278 66 25 154 57 195 72 511 190 1213 524 1665 794
240 144 623 408 759 524 57 48 69 44 62 -19 -3 -29 -8 -87 -11 -128 -23 -287
-114 -701 -241 -1093 -59 -179 -104 -304 -287 -787 -79 -207 -141 -396 -178
-540 -27 -106 -32 -144 -33 -251 -1 -114 1 -129 24 -173 44 -87 155 -156 250
-156 50 0 145 42 188 83 53 51 73 100 89 222 15 118 45 238 94 375 27 74 53
144 166 450 91 243 190 533 233 680 12 41 26 86 31 100 5 14 23 79 40 145 87
331 139 606 180 950 18 147 18 727 1 850 -30 208 -44 294 -59 365 -8 41 -19
91 -23 110 -15 70 -60 228 -98 345 -116 353 -302 724 -556 1110 -92 140 -91
136 -55 222 37 87 80 289 97 451 15 151 15 174 -1 325 -32 306 -113 541 -292
847 -215 367 -350 730 -415 1120 -22 134 -40 319 -40 425 0 152 -24 220 -98
287 -113 102 -271 98 -379 -11 -85 -86 -100 -201 -68 -526 56 -565 218 -1064
505 -1554 232 -396 287 -693 198 -1061 -18 -74 -37 -129 -89 -252 -76 -183
-69 -247 44 -400 73 -99 169 -244 239 -357 43 -72 55 -98 46 -108 -15 -19
-120 -91 -240 -166 -361 -226 -732 -391 -1223 -547 -55 -17 -279 -78 -347 -94
-167 -39 -201 -47 -328 -70 -949 -175 -1900 -163 -2780 36 -124 28 -342 85
-415 108 -155 49 -407 143 -505 188 -260 118 -433 213 -603 329 -133 90 -287
211 -287 224 0 23 143 248 267 421 134 186 147 244 87 388 -65 158 -85 213
-112 314 -24 93 -26 117 -26 291 0 174 2 198 26 291 47 178 85 263 211 479
258 445 406 877 487 1430 17 122 30 445 19 495 -22 98 -90 174 -187 210 -65
24 -102 25 -169 1z m6435 -4972 c49 -140 113 -383 139 -526 l17 -96 -115 -111
c-538 -519 -1413 -1024 -2514 -1451 -309 -120 -764 -273 -1082 -364 l-112 -32
-98 26 c-266 72 -873 274 -1010 336 -24 10 -46 19 -50 19 -8 0 -194 73 -368
145 -752 309 -1466 715 -1955 1114 -120 98 -327 287 -340 311 -26 49 162 750
202 750 5 0 44 -26 86 -58 184 -139 397 -267 654 -392 627 -304 1360 -492
2183 -560 426 -36 1072 -26 1435 20 411 53 460 61 845 141 67 13 373 95 480
127 516 156 1093 424 1465 679 41 29 79 51 85 49 5 -1 29 -59 53 -127z"/>
<path d="M7075 5707 c-83 -33 -147 -90 -186 -167 -31 -63 -32 -185 -1 -250 35
-72 77 -116 144 -149 52 -27 72 -31 137 -31 90 0 139 19 203 79 64 58 92 120
96 212 4 70 1 83 -27 142 -37 78 -91 128 -168 157 -60 22 -150 25 -198 7z"/>
<path d="M13530 2246 c0 -34 -201 -440 -333 -671 -155 -273 -436 -683 -606
-885 -25 -30 -64 -77 -86 -104 -69 -87 -245 -277 -400 -433 -84 -84 -147 -153
-140 -153 19 0 379 371 518 534 204 239 419 530 567 766 29 47 74 119 100 160
26 41 69 116 95 165 26 50 51 95 55 100 12 16 145 281 199 399 51 110 59 136
41 136 -5 0 -10 -6 -10 -14z"/>
<path d="M1210 2111 c0 -28 278 -549 391 -731 181 -295 436 -638 683 -920 136
-155 438 -460 456 -460 8 0 -70 84 -172 188 -531 533 -937 1102 -1266 1774
-68 140 -92 178 -92 149z"/>
</g>
</svg>
