<?xml version="1.0" standalone="no"?>
<!DOCTYPE svg PUBLIC "-//W3C//DTD SVG 20010904//EN"
 "http://www.w3.org/TR/2001/REC-SVG-20010904/DTD/svg10.dtd">
<svg version="1.0" xmlns="http://www.w3.org/2000/svg"
 width="2615.000000pt" height="988.000000pt" viewBox="0 0 2615.000000 988.000000"
 preserveAspectRatio="xMidYMid meet">
<metadata>
Created by potrace 1.16, written by Peter Selinger 2001-2019
</metadata>
<g transform="translate(0.000000,988.000000) scale(0.100000,-0.100000)"
fill="#000000" stroke="none">
<path d="M2617 9753 c-250 -248 -488 -520 -687 -788 -163 -219 -418 -611 -406
-623 7 -7 3 -13 71 98 286 468 611 880 1001 1268 96 94 169 172 162 172 -6 0
-69 -57 -141 -127z"/>
<path d="M12086 9722 c229 -227 427 -450 605 -682 218 -284 468 -673 613 -952
25 -50 46 -73 46 -52 0 9 -164 303 -220 394 -232 374 -472 697 -753 1015 -118
132 -422 435 -437 435 -8 0 58 -71 146 -158z"/>
<path d="M6181 9647 c-226 -192 -395 -520 -441 -857 -6 -47 -13 -94 -16 -105
-2 -12 -32 -44 -67 -72 -118 -94 -237 -288 -237 -385 0 -25 20 -123 44 -219
24 -96 53 -217 65 -269 13 -52 31 -131 41 -175 47 -201 108 -508 140 -705 24
-151 30 -264 30 -604 l0 -359 -46 -81 c-752 -1313 -1778 -2718 -2583 -3539
-176 -179 -192 -209 -151 -291 14 -30 47 -61 122 -117 125 -93 387 -265 523
-344 96 -55 121 -69 245 -138 88 -48 91 -52 73 -94 -20 -49 -3 -113 42 -151
118 -104 715 -422 792 -422 80 0 148 71 140 149 -7 67 -31 90 -162 156 -183
91 -410 215 -441 240 l-28 22 80 109 c603 814 1305 2032 1839 3189 97 209 144
318 150 344 14 65 -34 137 -107 160 -30 10 -43 9 -74 -4 -53 -22 -72 -41 -100
-102 -13 -30 -24 -55 -24 -57 0 -2 -23 -53 -51 -112 -28 -60 -72 -154 -97
-209 -109 -233 -470 -948 -571 -1130 -16 -27 -45 -81 -66 -120 -171 -314 -421
-737 -610 -1035 -188 -295 -502 -750 -519 -750 -46 0 -806 463 -806 492 0 6
55 69 123 142 422 452 760 867 1257 1541 353 480 958 1412 1220 1880 18 33 40
68 48 78 14 16 87 17 1261 17 l1247 0 31 -52 c235 -397 305 -512 411 -683 649
-1037 1460 -2118 2072 -2760 102 -107 140 -151 140 -164 0 -36 -779 -505 -808
-487 -9 5 -146 195 -264 366 -440 635 -1065 1742 -1457 2583 -21 45 -64 135
-95 201 -31 65 -56 119 -56 121 0 18 -93 195 -111 211 -62 55 -147 49 -200
-15 -54 -66 -46 -103 91 -396 23 -49 49 -106 57 -125 9 -19 98 -201 199 -405
212 -430 342 -680 519 -995 23 -41 54 -97 69 -125 98 -176 254 -439 418 -705
153 -248 427 -654 597 -885 45 -60 81 -114 81 -120 0 -5 -53 -40 -118 -77
-521 -296 -1128 -523 -1717 -642 -260 -52 -394 -73 -645 -98 -167 -17 -756
-17 -925 0 -121 12 -245 28 -408 52 -244 36 -586 120 -882 217 -200 65 -261
60 -306 -28 -24 -48 -24 -72 1 -124 25 -51 46 -64 200 -113 446 -145 807 -222
1335 -284 150 -17 864 -18 1040 0 72 7 157 17 190 22 33 5 98 14 145 20 335
46 800 163 1160 293 126 46 339 131 418 168 35 16 65 29 68 29 7 0 318 156
384 193 221 121 365 218 398 267 20 29 23 43 17 80 -11 77 -10 82 5 91 8 5 94
53 190 108 366 206 731 455 766 522 17 34 18 92 2 122 -6 12 -84 99 -173 192
-638 670 -1253 1458 -1893 2430 -221 335 -562 890 -681 1108 l-43 77 5 393 c5
405 8 447 61 737 20 110 20 138 -2 179 -49 92 -190 94 -239 3 -27 -49 -56
-200 -86 -447 l-13 -100 -1196 -3 -1197 -2 -5 32 c-3 18 -8 56 -11 83 -22 178
-104 615 -160 850 -36 155 -79 331 -107 446 -18 75 -28 136 -25 151 11 42 92
140 144 175 88 60 152 76 307 81 164 5 225 -5 455 -70 147 -42 310 -108 469
-190 120 -62 127 -62 304 22 84 39 162 76 173 80 108 46 304 109 400 129 28 6
71 15 97 21 75 16 301 13 366 -6 130 -37 224 -110 278 -215 l23 -46 -33 -129
c-98 -385 -102 -421 -50 -475 52 -54 125 -61 186 -18 39 28 49 53 92 234 20
83 50 207 68 276 l31 126 -18 57 c-38 119 -148 270 -262 357 -30 22 -33 31
-43 109 -41 319 -171 609 -367 819 -85 93 -141 131 -188 131 -39 0 -96 -33
-122 -69 -23 -34 -117 -227 -158 -326 -76 -181 -155 -469 -155 -561 0 -22 -4
-45 -8 -51 -5 -7 -40 -24 -79 -38 -109 -38 -209 -79 -304 -124 -48 -23 -93
-41 -101 -41 -7 0 -68 24 -133 54 -66 29 -165 70 -220 90 -55 20 -107 40 -115
45 -8 4 -19 30 -23 57 -48 285 -116 494 -248 761 -82 168 -115 203 -189 203
-41 0 -53 -6 -109 -53z m127 -458 c52 -124 108 -307 118 -379 l7 -51 -64 8
c-35 4 -126 8 -203 8 l-138 -1 5 46 c17 143 178 491 220 477 7 -2 31 -50 55
-108z m1911 71 c42 -58 104 -184 134 -270 32 -92 58 -200 51 -212 -3 -5 -45
-6 -92 -2 -48 3 -134 1 -192 -5 -58 -5 -109 -6 -113 -2 -11 11 33 192 71 296
48 132 93 235 103 235 5 0 22 -18 38 -40z m186 -3065 l0 -180 -1187 -3 -1188
-2 0 185 0 185 1188 -2 1187 -3 0 -180z"/>
<path d="M13530 2246 c0 -34 -201 -440 -333 -671 -155 -273 -436 -683 -606
-885 -25 -30 -64 -77 -86 -104 -69 -87 -245 -277 -400 -433 -84 -84 -147 -153
-140 -153 19 0 379 371 518 534 204 239 419 530 567 766 29 47 74 119 100 160
26 41 69 116 95 165 26 50 51 95 55 100 12 16 145 281 199 399 51 110 59 136
41 136 -5 0 -10 -6 -10 -14z"/>
<path d="M1210 2111 c0 -28 278 -549 391 -731 181 -295 436 -638 683 -920 136
-155 438 -460 456 -460 8 0 -70 84 -172 188 -531 533 -937 1102 -1266 1774
-68 140 -92 178 -92 149z"/>
</g>
</svg>
