<?xml version="1.0" standalone="no"?>
<!DOCTYPE svg PUBLIC "-//W3C//DTD SVG 20010904//EN"
 "http://www.w3.org/TR/2001/REC-SVG-20010904/DTD/svg10.dtd">
<svg version="1.0" xmlns="http://www.w3.org/2000/svg"
 width="2615.000000pt" height="988.000000pt" viewBox="0 0 2615.000000 988.000000"
 preserveAspectRatio="xMidYMid meet">
<metadata>
Created by potrace 1.16, written by Peter Selinger 2001-2019
</metadata>
<g transform="translate(0.000000,988.000000) scale(0.100000,-0.100000)"
fill="#000000" stroke="none">
<path d="M2617 9753 c-250 -248 -488 -520 -687 -788 -163 -219 -418 -611 -406
-623 7 -7 3 -13 71 98 286 468 611 880 1001 1268 96 94 169 172 162 172 -6 0
-69 -57 -141 -127z"/>
<path d="M12086 9722 c229 -227 427 -450 605 -682 218 -284 468 -673 613 -952
25 -50 46 -73 46 -52 0 9 -164 303 -220 394 -232 374 -472 697 -753 1015 -118
132 -422 435 -437 435 -8 0 58 -71 146 -158z"/>
<path d="M5370 9389 c-325 -41 -527 -94 -778 -203 -83 -36 -374 -185 -567
-291 -34 -19 -305 -164 -605 -323 -47 -24 -107 -57 -135 -72 -75 -41 -166 -90
-307 -164 -254 -133 -303 -163 -325 -196 -30 -44 -30 -102 1 -193 14 -40 37
-110 51 -157 15 -47 60 -193 102 -325 41 -132 94 -303 118 -380 24 -77 50
-160 58 -185 15 -47 30 -93 92 -295 20 -66 45 -145 55 -175 10 -30 35 -109 55
-175 58 -190 75 -242 115 -370 21 -66 48 -151 59 -188 12 -38 29 -82 38 -99
21 -35 80 -68 123 -68 26 0 230 52 310 79 14 5 45 14 70 21 25 7 59 17 75 21
17 5 86 25 155 44 69 19 156 45 193 56 37 11 75 18 83 15 12 -5 14 -345 14
-2603 0 -2588 0 -2598 20 -2631 12 -19 38 -41 63 -52 41 -19 103 -20 2891 -20
l2850 0 42 20 c23 12 51 33 61 48 17 26 18 127 23 2632 l5 2605 30 -1 c17 -1
134 -32 260 -69 127 -36 244 -70 260 -75 17 -5 94 -27 173 -49 163 -47 190
-49 242 -20 49 28 63 53 110 210 23 74 50 159 60 189 10 30 35 109 55 175 20
66 40 131 45 145 5 14 27 86 50 160 23 74 55 178 72 230 17 52 38 122 48 155
10 33 44 141 75 240 31 99 65 207 75 240 10 33 43 139 73 235 31 96 78 248
106 337 28 89 51 179 51 200 0 62 -35 101 -136 156 -49 26 -127 67 -174 93
-47 25 -130 69 -185 98 -55 30 -120 65 -145 78 -25 14 -94 51 -155 83 -60 32
-204 108 -320 170 -115 62 -259 139 -320 171 -60 32 -137 73 -170 91 -363 200
-630 301 -935 354 -114 20 -298 39 -378 39 -89 0 -72 6 -307 -105 -135 -63
-147 -68 -249 -105 -371 -135 -709 -205 -1112 -231 -565 -36 -1249 103 -1777
363 -157 77 -160 78 -266 77 -53 -1 -125 -5 -161 -10z m104 -297 c3 -5 17 -61
31 -125 15 -64 37 -151 51 -193 13 -42 24 -82 24 -89 0 -9 -22 -15 -62 -20
-298 -30 -499 -88 -738 -212 -80 -42 -149 -79 -155 -83 -5 -4 -59 -33 -120
-65 -186 -98 -278 -147 -330 -175 -27 -15 -79 -43 -115 -62 -437 -234 -450
-240 -450 -207 0 5 -15 51 -34 102 -92 249 -106 291 -99 298 8 7 146 82 358
194 61 32 115 61 120 65 6 4 73 40 150 80 77 40 145 76 150 80 12 8 178 96
315 167 277 142 550 220 882 251 9 1 19 -2 22 -6z m4056 -18 c173 -26 308 -64
500 -140 98 -39 174 -77 435 -216 83 -45 188 -101 235 -126 47 -24 108 -57
135 -72 28 -15 84 -45 125 -67 41 -22 116 -62 165 -88 50 -26 113 -61 142 -77
l51 -29 -38 -112 c-49 -142 -107 -298 -114 -304 -4 -4 -48 17 -241 122 -33 18
-109 59 -170 90 -106 56 -137 72 -290 155 -38 20 -115 61 -170 90 -55 30 -140
76 -190 103 -290 157 -470 218 -757 253 -97 12 -138 21 -138 30 0 8 6 33 14
56 20 57 51 179 66 253 22 108 22 107 88 100 31 -4 100 -13 152 -21z m-3510
-171 c249 -90 546 -167 785 -202 39 -5 111 -16 160 -23 60 -9 205 -13 430 -13
225 0 370 4 430 13 50 7 122 18 160 23 291 43 625 135 932 258 29 11 54 17 57
13 4 -7 -19 -94 -54 -202 -75 -236 -244 -528 -402 -696 -255 -269 -535 -405
-923 -449 -161 -18 -225 -18 -390 -1 -474 50 -824 256 -1087 639 -92 135 -200
355 -248 507 -35 108 -58 195 -54 202 3 4 28 -2 57 -13 29 -12 95 -37 147 -56z
m-315 -531 c6 -4 17 -20 25 -37 61 -122 181 -303 269 -405 239 -277 493 -438
866 -550 213 -63 598 -81 865 -39 570 90 1051 446 1319 977 36 72 23 69 211
48 125 -14 255 -38 320 -58 96 -30 229 -84 298 -122 42 -24 145 -78 227 -121
83 -43 155 -81 160 -85 6 -4 69 -38 140 -75 72 -37 135 -71 140 -75 6 -4 66
-37 135 -73 69 -36 163 -86 210 -112 47 -25 104 -56 128 -67 23 -12 42 -27 42
-33 0 -12 -36 -118 -90 -265 -17 -47 -46 -128 -64 -180 -19 -53 -44 -116 -56
-140 -112 -223 -330 -368 -580 -387 -87 -6 -134 -26 -164 -66 l-21 -28 -5
-2857 -5 -2857 -2680 0 -2680 0 -5 2857 -5 2857 -21 28 c-28 38 -80 62 -136
63 -185 1 -400 107 -521 256 -64 77 -96 143 -157 316 -28 79 -60 166 -70 193
-37 100 -70 196 -70 209 0 6 19 22 43 34 23 11 78 41 122 65 44 23 134 72 200
107 66 34 143 75 170 90 28 15 91 49 140 75 50 26 104 56 120 65 17 10 84 46
150 80 66 35 143 75 170 90 147 81 251 127 340 150 17 5 55 15 85 23 132 35
412 67 435 49z m-2471 -339 c15 -43 36 -100 46 -128 10 -27 44 -122 75 -210
31 -88 65 -182 75 -210 10 -27 44 -122 75 -210 107 -303 148 -410 182 -475
128 -243 358 -423 631 -496 29 -8 61 -14 71 -14 26 0 31 -19 31 -110 0 -85 -6
-96 -62 -110 -18 -5 -136 -38 -263 -75 -224 -64 -320 -92 -417 -119 -35 -9
-50 -10 -57 -2 -5 6 -20 47 -34 91 -73 235 -120 384 -157 505 -23 74 -57 182
-75 240 -46 144 -126 400 -170 545 -21 66 -54 174 -75 240 -21 66 -59 188 -85
270 -25 83 -51 162 -57 177 -5 15 -8 32 -6 38 4 12 215 129 234 130 6 0 23
-35 38 -77z m8474 21 c59 -31 111 -61 116 -65 6 -5 1 -35 -12 -76 -21 -66 -33
-104 -142 -453 -28 -91 -55 -176 -60 -190 -5 -14 -25 -79 -45 -145 -20 -66
-45 -145 -55 -175 -10 -30 -27 -84 -38 -120 -56 -183 -97 -315 -127 -410 -49
-154 -88 -279 -130 -415 -21 -66 -41 -125 -46 -131 -6 -8 -92 13 -286 68 -153
44 -291 83 -308 88 -118 33 -182 54 -192 62 -14 11 -19 152 -7 182 3 9 17 16
29 16 39 0 203 58 285 100 173 91 338 259 425 435 25 50 45 95 45 99 0 4 15
48 34 99 19 51 60 164 91 252 31 88 65 183 75 210 10 28 44 122 75 210 31 88
65 183 75 210 10 28 31 85 46 128 15 42 31 77 36 77 5 0 58 -25 116 -56z"/>
<path d="M5678 5878 c-187 -141 -332 -257 -345 -277 -13 -19 -23 -48 -23 -65
0 -17 37 -142 81 -278 90 -271 105 -297 181 -320 37 -11 50 -8 171 32 73 23
138 45 144 47 10 4 13 -218 15 -1024 3 -963 4 -1030 21 -1063 10 -19 30 -44
45 -55 26 -19 45 -20 377 -23 334 -2 351 -1 382 17 18 11 41 38 53 60 20 40
20 49 20 1558 -1 1692 5 1561 -69 1610 -34 23 -36 23 -382 23 l-349 0 -322
-242z m820 -1387 c2 -1061 0 -1336 -10 -1343 -15 -9 -249 -11 -272 -2 -14 6
-16 108 -16 1063 0 985 -1 1058 -18 1091 -19 39 -82 80 -123 80 -15 0 -99 -24
-187 -54 -128 -43 -163 -52 -172 -42 -19 24 -63 179 -54 193 5 7 112 90 237
183 l229 170 191 -2 192 -3 3 -1334z"/>
<path d="M8135 6114 c-133 -21 -298 -86 -425 -168 -87 -57 -222 -189 -280
-275 -58 -86 -123 -228 -151 -331 l-24 -85 0 -770 0 -770 24 -85 c63 -229 195
-427 374 -563 189 -145 401 -217 637 -217 498 0 919 346 1020 839 19 94 20
136 20 794 0 749 -1 768 -55 933 -84 256 -277 474 -530 599 -155 76 -244 97
-430 100 -82 2 -163 1 -180 -1z m230 -294 c154 -18 269 -65 391 -161 129 -102
219 -247 259 -419 23 -101 22 -1409 -1 -1513 -64 -284 -297 -511 -582 -567
-94 -19 -291 -8 -367 19 -295 108 -468 316 -515 621 -13 86 -13 1284 0 1370
21 135 53 222 122 325 73 109 157 183 273 242 111 56 150 69 250 82 39 4 72 9
75 10 3 0 46 -4 95 -9z"/>
<path d="M8190 5516 c-159 -35 -297 -173 -336 -334 -10 -45 -13 -194 -14 -697
0 -591 1 -646 18 -706 48 -173 179 -293 360 -330 166 -34 370 64 457 219 60
107 59 91 63 767 4 682 0 738 -49 841 -37 77 -137 175 -211 208 -102 45 -186
54 -288 32z m170 -308 c18 -13 43 -36 54 -51 21 -28 21 -37 24 -659 2 -616 2
-632 -18 -673 -23 -47 -80 -85 -129 -85 -51 0 -108 35 -131 80 -19 38 -20 57
-20 667 l0 628 24 39 c44 73 132 97 196 54z"/>
<path d="M8811 1782 c-67 -36 -71 -55 -71 -352 0 -247 1 -267 20 -298 58 -95
192 -95 250 0 18 29 20 51 20 193 0 88 4 166 8 173 7 9 43 12 148 10 l139 -3
5 -170 c4 -147 8 -175 25 -203 23 -39 81 -72 125 -72 50 0 107 35 130 80 19
36 20 58 20 292 -1 283 -5 302 -69 345 -34 23 -36 23 -375 23 -311 0 -344 -2
-375 -18z"/>
<path d="M13530 2246 c0 -34 -201 -440 -333 -671 -155 -273 -436 -683 -606
-885 -25 -30 -64 -77 -86 -104 -69 -87 -245 -277 -400 -433 -84 -84 -147 -153
-140 -153 19 0 379 371 518 534 204 239 419 530 567 766 29 47 74 119 100 160
26 41 69 116 95 165 26 50 51 95 55 100 12 16 145 281 199 399 51 110 59 136
41 136 -5 0 -10 -6 -10 -14z"/>
<path d="M1210 2111 c0 -28 278 -549 391 -731 181 -295 436 -638 683 -920 136
-155 438 -460 456 -460 8 0 -70 84 -172 188 -531 533 -937 1102 -1266 1774
-68 140 -92 178 -92 149z"/>
</g>
</svg>
