<?xml version="1.0" standalone="no"?>
<!DOCTYPE svg PUBLIC "-//W3C//DTD SVG 20010904//EN"
 "http://www.w3.org/TR/2001/REC-SVG-20010904/DTD/svg10.dtd">
<svg version="1.0" xmlns="http://www.w3.org/2000/svg"
 width="2615.000000pt" height="988.000000pt" viewBox="0 0 2615.000000 988.000000"
 preserveAspectRatio="xMidYMid meet">
<metadata>
Created by potrace 1.16, written by Peter Selinger 2001-2019
</metadata>
<g transform="translate(0.000000,988.000000) scale(0.100000,-0.100000)"
fill="#000000" stroke="none">
<path d="M2617 9753 c-250 -248 -488 -520 -687 -788 -163 -219 -418 -611 -406
-623 7 -7 3 -13 71 98 286 468 611 880 1001 1268 96 94 169 172 162 172 -6 0
-69 -57 -141 -127z"/>
<path d="M12086 9722 c229 -227 427 -450 605 -682 218 -284 468 -673 613 -952
25 -50 46 -73 46 -52 0 9 -164 303 -220 394 -232 374 -472 697 -753 1015 -118
132 -422 435 -437 435 -8 0 58 -71 146 -158z"/>
<path d="M4985 9510 c-298 -76 -695 -296 -985 -545 -121 -105 -328 -318 -412
-426 -341 -437 -544 -928 -612 -1479 -31 -244 -18 -730 25 -960 47 -257 141
-538 265 -797 75 -154 222 -399 312 -517 144 -190 345 -395 507 -520 50 -38
95 -73 100 -78 6 -6 12 -277 15 -756 l5 -747 888 -3 c488 -1 887 -5 887 -10 0
-10 -613 -622 -624 -622 -4 0 -34 15 -65 34 -164 99 -394 150 -570 126 -152
-21 -226 -45 -348 -113 -105 -58 -201 -139 -280 -236 -35 -42 -63 -79 -63 -83
0 -3 -15 -33 -34 -66 -114 -202 -138 -485 -61 -718 28 -83 115 -235 174 -304
245 -286 615 -400 966 -298 240 69 462 257 577 488 73 146 92 228 92 395 0
134 -8 195 -39 290 -21 65 -64 156 -97 208 l-31 49 429 429 429 429 1101 0
1100 0 29 -30 29 -30 -32 -43 c-93 -126 -181 -308 -221 -455 -135 -504 10
-1026 384 -1380 174 -165 349 -263 610 -342 79 -24 230 -42 350 -42 234 0 415
43 630 149 404 201 696 613 755 1063 76 590 -230 1161 -769 1434 -208 106
-505 161 -736 136 -255 -27 -454 -98 -661 -236 -44 -30 -85 -54 -90 -54 -6 0
-20 10 -32 23 l-22 23 0 645 1 644 56 40 c245 174 519 477 712 785 223 355
366 735 437 1160 16 100 39 489 30 525 l-6 25 -288 2 -287 3 91 62 c416 282
737 723 865 1188 12 44 26 84 31 90 5 6 30 -2 66 -22 107 -58 184 -78 307 -77
177 1 306 54 431 178 121 121 184 271 184 436 0 165 -62 312 -184 435 -77 78
-130 111 -240 151 -98 36 -266 38 -371 5 -203 -64 -359 -222 -416 -421 -12
-40 -23 -129 -30 -230 -5 -91 -17 -202 -24 -247 -139 -809 -785 -1432 -1595
-1537 -110 -15 -248 -16 -1124 -14 -876 3 -1000 5 -1006 18 -4 8 -21 44 -37
80 -66 141 -178 251 -313 307 -36 15 -71 31 -77 36 -10 7 -13 177 -13 791 0
667 -2 792 -16 855 -31 151 -76 251 -164 371 -127 171 -303 282 -533 334 -93
22 -271 19 -362 -4z m358 -314 c64 -20 151 -69 209 -117 64 -54 113 -123 156
-222 l37 -82 0 -804 c0 -704 -2 -805 -15 -811 -8 -5 -35 -16 -60 -26 -155 -65
-291 -207 -347 -364 l-18 -50 -1019 0 -1019 0 6 143 c16 350 103 688 261 1010
254 519 669 937 1184 1197 246 123 340 152 482 145 52 -2 116 -11 143 -19z
m5611 -318 c84 -24 159 -88 198 -167 32 -66 32 -196 0 -263 -64 -129 -204
-198 -345 -168 -160 33 -271 201 -238 358 15 67 65 149 116 188 73 55 184 77
269 52z m-4903 -2044 c226 -123 214 -443 -20 -553 -179 -83 -398 34 -429 230
-17 107 28 226 110 292 91 73 237 86 339 31z m-740 -451 c46 -114 88 -182 159
-253 127 -127 261 -183 440 -182 180 1 304 54 435 186 59 60 89 100 113 151
18 39 38 81 45 95 l13 25 1624 3 c893 1 1627 -1 1632 -6 4 -4 3 -43 -2 -87
-48 -433 -220 -877 -486 -1256 -398 -567 -933 -910 -1512 -969 -73 -8 -489
-10 -1322 -8 -1294 4 -1210 2 -1413 49 -110 26 -233 70 -377 137 -216 100
-486 310 -684 532 -308 344 -527 758 -637 1203 -44 179 -71 382 -52 400 3 4
458 7 1010 7 l1003 0 11 -27z m3233 -2419 c10 -26 7 -164 -4 -185 -6 -10 -20
-19 -31 -19 -49 0 -119 -85 -119 -144 0 -62 49 -127 109 -147 20 -7 39 -17 43
-23 4 -6 8 -70 8 -143 0 -146 2 -141 -70 -176 -36 -18 -50 -33 -74 -79 l-28
-58 -143 0 c-153 0 -157 1 -169 54 -10 39 -59 83 -108 97 -77 20 -155 -29
-183 -114 l-10 -32 -151 -3 -151 -3 -12 40 c-26 87 -117 137 -196 107 -52 -20
-80 -50 -98 -101 l-14 -40 -152 -3 c-116 -2 -152 0 -155 10 -3 7 -7 25 -10 40
-9 39 -58 83 -109 97 -40 12 -50 11 -88 -7 -53 -23 -74 -46 -92 -98 l-14 -39
-151 -3 -151 -3 -12 42 c-17 54 -57 93 -112 108 -40 12 -50 11 -88 -7 -53 -23
-74 -46 -92 -98 l-14 -39 -152 0 -153 0 -13 39 c-51 147 -239 147 -290 0 l-13
-39 -152 0 -152 0 -13 39 c-51 148 -249 146 -294 -3 l-12 -42 -72 3 -72 3 -3
78 c-2 67 -1 77 14 77 33 0 101 49 118 84 22 47 20 104 -5 146 -27 44 -44 57
-91 70 l-38 11 0 150 0 149 55 25 c50 22 58 30 81 79 l25 55 67 -24 c161 -58
424 -115 533 -115 31 0 71 -3 88 -6 l31 -7 -32 -24 c-90 -66 -90 -199 0 -259
37 -25 127 -25 164 0 84 56 91 199 12 251 -13 8 -24 20 -24 25 0 6 90 10 240
10 132 0 240 -4 240 -8 0 -5 -12 -19 -26 -33 -55 -51 -69 -120 -38 -185 25
-53 69 -79 134 -79 63 0 110 26 136 77 32 61 11 158 -42 193 -13 8 -24 20 -24
25 0 6 90 10 240 10 252 0 265 -3 215 -42 -97 -76 -59 -236 62 -262 54 -12
102 3 144 45 36 36 39 43 39 97 0 60 -18 100 -59 128 -12 9 -19 20 -16 25 9
14 475 12 475 -2 0 -6 -11 -20 -25 -31 -85 -67 -67 -201 32 -249 83 -40 175
-2 209 86 22 58 8 110 -42 160 -23 23 -30 37 -22 39 7 3 110 7 229 10 171 4
246 11 358 31 l142 25 36 -27 c29 -23 47 -28 88 -28 68 1 110 31 141 101 20
45 30 56 76 77 63 30 84 32 92 11z m1452 -1149 c383 -74 698 -354 822 -731 89
-270 62 -585 -70 -836 -190 -359 -562 -582 -968 -580 -293 1 -545 107 -756
316 -147 146 -242 314 -295 521 -20 77 -23 112 -22 250 1 116 6 176 18 220 9
33 20 75 25 93 21 85 144 322 167 322 5 0 175 -166 378 -370 203 -203 375
-370 380 -370 6 0 57 47 115 105 l105 105 -373 373 c-204 204 -372 377 -372
383 0 18 119 91 210 129 206 88 422 111 636 70z m-5041 -927 c66 -14 165 -58
165 -72 0 -6 -90 -101 -200 -211 -110 -110 -200 -204 -200 -210 0 -6 47 -57
105 -115 l105 -105 210 210 c115 115 211 207 213 205 13 -15 48 -94 63 -145
26 -85 24 -247 -5 -338 -42 -137 -135 -260 -255 -338 -241 -158 -568 -125
-769 76 -72 73 -120 148 -155 243 -21 59 -24 83 -24 197 0 114 3 138 24 197
113 306 411 473 723 406z"/>
<path d="M4785 3760 c-46 -10 -81 -37 -100 -77 -22 -47 -23 -90 -1 -136 28
-56 69 -82 136 -82 65 0 109 26 134 79 55 116 -45 244 -169 216z"/>
<path d="M7887 3763 c-40 -6 -103 -72 -111 -116 -21 -110 77 -206 184 -182 18
4 49 24 69 44 43 43 55 90 39 148 -12 45 -70 103 -103 103 -13 0 -29 2 -37 3
-7 2 -26 2 -41 0z"/>
<path d="M5085 3449 c-128 -39 -144 -217 -25 -280 70 -38 164 -9 202 61 30 54
19 132 -23 177 -18 18 -49 38 -69 43 -40 11 -45 11 -85 -1z"/>
<path d="M5705 3450 c-17 -5 -46 -25 -64 -44 -28 -29 -35 -45 -38 -88 -5 -67
19 -114 73 -145 49 -28 93 -29 145 -3 52 27 79 72 79 133 0 102 -98 176 -195
147z"/>
<path d="M6325 3449 c-40 -12 -58 -28 -84 -69 -44 -73 -18 -166 60 -209 101
-57 221 16 221 135 0 100 -102 174 -197 143z"/>
<path d="M6945 3448 c-168 -60 -114 -315 63 -295 140 16 186 204 67 277 -39
24 -93 32 -130 18z"/>
<path d="M7567 3446 c-96 -35 -134 -130 -86 -216 76 -135 279 -85 281 69 0
109 -97 182 -195 147z"/>
<path d="M8185 3445 c-76 -27 -117 -105 -95 -182 13 -48 26 -65 70 -92 84 -51
193 -4 220 95 32 114 -82 219 -195 179z"/>
<path d="M13530 2246 c0 -34 -201 -440 -333 -671 -155 -273 -436 -683 -606
-885 -25 -30 -64 -77 -86 -104 -69 -87 -245 -277 -400 -433 -84 -84 -147 -153
-140 -153 19 0 379 371 518 534 204 239 419 530 567 766 29 47 74 119 100 160
26 41 69 116 95 165 26 50 51 95 55 100 12 16 145 281 199 399 51 110 59 136
41 136 -5 0 -10 -6 -10 -14z"/>
<path d="M1210 2111 c0 -28 278 -549 391 -731 181 -295 436 -638 683 -920 136
-155 438 -460 456 -460 8 0 -70 84 -172 188 -531 533 -937 1102 -1266 1774
-68 140 -92 178 -92 149z"/>
</g>
</svg>
