<?xml version="1.0" standalone="no"?>
<!DOCTYPE svg PUBLIC "-//W3C//DTD SVG 20010904//EN"
 "http://www.w3.org/TR/2001/REC-SVG-20010904/DTD/svg10.dtd">
<svg version="1.0" xmlns="http://www.w3.org/2000/svg"
 width="3464.000000pt" height="1309.000000pt" viewBox="0 0 3464.000000 1309.000000"
 preserveAspectRatio="xMidYMid meet">
<metadata>
Created by potrace 1.16, written by Peter Selinger 2001-2019
</metadata>
<g transform="translate(0.000000,1309.000000) scale(0.100000,-0.100000)"
fill="#000000" stroke="none">
<path fill="white" d="M3426 12848 c-509 -510 -929 -1041 -1308 -1656 -48 -79 -88 -146 -88
-149 0 -3 -20 -37 -44 -77 -70 -112 -268 -497 -359 -696 -8 -19 -32 -71 -52
-114 -116 -251 -282 -697 -376 -1006 -68 -227 -102 -350 -134 -485 -7 -33 -21
-89 -30 -125 -9 -36 -21 -87 -26 -115 -4 -27 -16 -84 -24 -125 -17 -80 -40
-208 -56 -303 -5 -33 -12 -63 -15 -68 -3 -6 -10 -47 -15 -92 -4 -45 -15 -136
-24 -202 -8 -66 -19 -172 -25 -235 -5 -63 -15 -151 -21 -195 -8 -53 -12 -261
-13 -610 0 -427 3 -566 17 -715 22 -242 25 -273 43 -415 33 -279 41 -332 64
-445 5 -25 18 -97 30 -160 11 -63 25 -133 30 -155 5 -22 17 -76 26 -120 9 -44
26 -114 37 -155 10 -41 25 -100 32 -131 38 -170 177 -611 276 -874 92 -248
152 -392 266 -645 9 -19 57 -118 108 -220 438 -882 959 -1608 1660 -2317 l239
-243 6096 0 6095 0 190 193 c272 274 386 398 618 676 174 207 482 635 638 886
31 50 78 126 106 170 160 255 543 1007 543 1067 0 26 56 165 138 343 68 149
169 397 202 498 11 33 23 93 27 132 3 38 23 124 43 190 36 112 61 211 109 415
69 295 144 769 181 1145 33 333 39 1245 10 1530 -48 471 -115 913 -185 1212
-59 254 -80 339 -101 413 -13 47 -32 110 -40 140 -102 356 -209 652 -393 1090
-134 318 -385 796 -603 1145 -194 311 -575 842 -678 945 -3 3 -23 27 -45 55
-120 150 -348 398 -558 608 l-238 237 -6065 0 -6065 0 -243 -242z m4024 -702
c468 -91 793 -412 891 -881 10 -45 14 -305 19 -1030 l5 -969 64 -23 c195 -70
370 -248 446 -453 l21 -55 1264 0 c1177 0 1273 1 1375 18 496 83 917 298 1265
647 290 290 493 645 593 1035 37 142 54 265 67 460 12 203 16 229 42 320 69
236 265 432 508 506 65 20 95 23 220 22 164 -1 223 -16 360 -88 102 -54 240
-193 293 -295 197 -376 67 -819 -299 -1023 -77 -43 -167 -71 -278 -87 -154
-23 -345 20 -478 108 -21 13 -43 22 -51 19 -7 -3 -26 -51 -41 -108 -156 -571
-575 -1144 -1068 -1464 -43 -27 -80 -56 -82 -62 -4 -10 67 -13 334 -13 337 0
339 0 351 -21 13 -24 6 -298 -12 -474 -72 -707 -366 -1408 -828 -1975 -155
-191 -384 -413 -571 -555 -36 -28 -73 -58 -82 -67 -17 -17 -18 -68 -18 -788
l0 -769 31 -36 c17 -19 35 -35 41 -35 5 0 59 33 121 73 174 113 299 173 472
222 167 49 301 67 481 66 367 -1 709 -115 1014 -340 107 -79 284 -260 362
-371 360 -510 416 -1149 151 -1720 -94 -201 -263 -420 -443 -571 -176 -149
-426 -280 -642 -338 -481 -129 -973 -49 -1388 224 -355 234 -608 591 -709
1001 -42 170 -51 245 -51 417 1 354 88 643 286 944 41 62 74 116 74 121 0 6
-16 24 -35 41 l-36 31 -1337 0 -1337 0 -517 -517 c-297 -297 -518 -525 -518
-536 0 -9 12 -36 27 -60 123 -195 190 -483 163 -710 -16 -142 -51 -254 -121
-392 -192 -380 -585 -625 -1005 -625 -178 0 -329 37 -502 124 -493 245 -737
795 -589 1321 59 206 200 420 371 560 101 84 259 173 361 204 121 37 128 39
228 52 224 29 525 -36 710 -155 40 -26 66 -36 80 -32 30 8 761 741 753 755 -5
8 -312 11 -1087 11 l-1079 0 -1 898 c0 493 -3 905 -7 914 -4 9 -38 40 -77 69
-256 193 -523 468 -714 735 -289 406 -525 923 -630 1384 -68 299 -86 485 -85
860 1 292 6 366 35 585 37 272 139 636 250 886 310 699 788 1249 1436 1652
259 161 583 305 794 351 85 19 266 19 359 2z"/>
<path fill="white" d="M7115 11756 c-345 -87 -849 -394 -1183 -720 -524 -512 -848 -1146
-951 -1861 -15 -102 -35 -411 -28 -429 6 -14 133 -16 1245 -16 l1239 0 17 53
c60 191 254 389 453 463 26 9 54 22 61 27 16 12 18 1756 2 1887 -36 296 -249
531 -541 600 -110 26 -201 25 -314 -4z"/>
<path fill="white" d="M14094 11352 c-62 -22 -98 -47 -153 -107 -188 -204 -83 -541 190
-611 258 -66 507 160 462 421 -15 86 -45 145 -104 206 -72 74 -142 103 -254
106 -65 2 -104 -2 -141 -15z"/>
<path fill="white" d="M8111 8908 c-146 -23 -252 -114 -300 -256 -47 -138 -7 -288 102 -389
142 -131 342 -136 494 -14 206 166 167 508 -71 624 -45 22 -70 29 -151 41 -11
2 -44 -1 -74 -6z"/>
<path fill="white" d="M4967 8338 c-15 -42 30 -322 88 -543 59 -226 124 -398 241 -635 244
-495 589 -910 1009 -1212 342 -246 744 -397 1140 -428 158 -13 2802 -13 2960
0 449 35 885 218 1285 538 211 169 451 434 619 682 205 304 383 675 461 965
66 244 90 361 110 536 7 58 6 86 -1 96 -16 19 -3962 20 -3976 1 -5 -7 -18 -35
-27 -61 -55 -148 -187 -306 -322 -385 -383 -223 -868 -80 -1058 313 -24 50
-49 102 -55 118 l-11 27 -1229 0 c-974 0 -1230 -3 -1234 -12z"/>
<path fill="white" d="M11270 5352 c-67 -33 -76 -41 -85 -75 -13 -48 -56 -102 -98 -123 -44
-23 -129 -22 -163 2 -71 51 -74 52 -117 43 -267 -51 -449 -69 -708 -69 -75 0
-138 -2 -141 -5 -3 -3 14 -24 37 -48 55 -54 73 -111 57 -173 -16 -60 -47 -100
-97 -124 -82 -40 -167 -21 -228 50 -35 41 -37 48 -37 109 0 74 18 114 69 152
17 12 28 26 25 31 -6 10 -584 11 -584 1 0 -5 18 -25 40 -47 91 -88 71 -238
-40 -298 -55 -30 -148 -21 -197 18 -49 40 -73 87 -73 148 0 56 33 123 75 150
14 9 25 21 25 26 0 6 -110 10 -295 10 -176 0 -295 -4 -295 -9 0 -5 13 -19 29
-30 75 -54 93 -186 34 -259 -77 -94 -220 -98 -289 -6 -60 79 -56 167 12 242
24 28 44 53 44 56 0 9 -578 7 -584 -2 -2 -4 11 -20 30 -35 72 -58 89 -157 41
-240 -67 -114 -247 -116 -311 -4 -53 93 -42 165 36 239 32 31 45 49 37 52 -8
2 -72 9 -144 15 -71 6 -164 18 -205 26 -41 8 -102 20 -135 27 -33 6 -128 33
-211 59 -83 27 -156 49 -161 49 -5 0 -14 -20 -22 -44 -18 -62 -89 -126 -141
-126 -13 0 -24 -9 -30 -26 -13 -33 -13 -320 0 -344 5 -10 22 -21 37 -24 79
-20 143 -101 143 -181 0 -60 -36 -123 -88 -156 -25 -16 -54 -29 -64 -29 -28 0
-40 -37 -36 -112 2 -46 9 -72 18 -78 8 -6 45 -10 82 -10 74 0 92 10 103 61 10
42 82 114 124 122 57 12 93 8 138 -14 45 -22 93 -80 93 -111 0 -10 9 -27 20
-38 18 -18 33 -20 184 -20 173 0 196 6 196 49 0 33 54 101 96 121 107 52 220
2 262 -116 l18 -49 179 0 179 0 12 25 c41 88 52 105 84 126 45 30 87 38 146
29 59 -8 128 -72 138 -128 4 -21 15 -41 26 -47 10 -6 91 -10 183 -10 177 0
178 0 191 55 18 73 99 134 180 135 77 0 176 -74 176 -132 0 -10 9 -27 20 -38
18 -18 33 -20 181 -20 167 0 199 7 199 41 0 28 23 69 57 101 86 82 228 58 284
-48 14 -27 28 -60 31 -72 6 -22 9 -22 175 -22 182 0 213 8 213 53 0 36 46 93
93 116 45 22 81 26 138 14 45 -9 116 -81 125 -127 3 -20 15 -41 25 -47 11 -5
88 -8 185 -7 137 3 168 6 174 18 4 8 17 36 28 62 23 52 70 92 120 103 18 4 37
15 42 25 11 20 14 318 4 344 -3 8 -22 20 -42 27 -119 38 -174 157 -121 266 22
45 80 93 111 93 10 0 27 9 38 20 17 17 20 33 20 113 0 108 -6 137 -29 137 -9
-1 -50 -18 -91 -38z m-4323 -258 c58 -44 77 -81 77 -148 -1 -112 -60 -178
-168 -184 -71 -4 -114 15 -158 69 -77 97 -30 253 87 289 47 14 126 2 162 -26z
m3779 6 c60 -38 79 -75 79 -157 0 -64 -3 -75 -30 -108 -48 -59 -89 -77 -162
-72 -69 5 -110 28 -141 80 -48 79 -35 168 33 234 24 23 54 44 67 46 43 10 119
-2 154 -23z m-3402 -380 c105 -73 108 -234 5 -306 -52 -35 -131 -44 -180 -19
-79 40 -109 88 -109 173 0 50 5 66 30 100 43 59 91 83 162 79 39 -2 67 -10 92
-27z m737 10 c21 -11 53 -39 69 -62 25 -34 30 -50 30 -100 0 -65 -9 -88 -49
-131 -112 -121 -316 -38 -315 128 1 139 142 227 265 165z m757 -1 c127 -62
135 -243 14 -320 -94 -59 -213 -25 -262 76 -76 158 88 321 248 244z m774 -8
c57 -39 82 -87 82 -158 0 -51 -5 -68 -28 -102 -73 -105 -225 -107 -303 -4 -25
32 -28 45 -28 108 0 63 3 76 28 108 15 21 45 46 65 57 50 28 137 23 184 -9z
m739 9 c21 -11 53 -39 69 -62 25 -34 30 -50 30 -100 0 -65 -14 -100 -57 -139
-41 -37 -86 -52 -143 -47 -186 18 -226 277 -55 354 44 20 110 17 156 -6z m777
-13 c83 -55 105 -171 48 -257 -72 -109 -238 -105 -308 7 -34 56 -33 145 4 200
55 84 171 107 256 50z"/>
<path fill="white" d="M12790 3989 c-105 -9 -293 -51 -355 -79 -22 -10 -69 -31 -105 -47
-82 -38 -210 -120 -210 -136 0 -7 203 -215 450 -462 248 -247 450 -455 450
-460 0 -13 -242 -255 -255 -255 -6 0 -213 203 -460 450 -247 248 -456 450
-463 450 -19 0 -100 -133 -152 -250 -112 -252 -143 -548 -84 -814 110 -501
507 -894 1014 -1007 87 -20 134 -24 275 -24 188 0 255 10 411 60 434 141 771
504 878 945 85 354 18 737 -182 1040 -269 405 -734 631 -1212 589z"/>
<path fill="white" d="M6735 2850 c-279 -35 -517 -239 -613 -525 -24 -72 -26 -95 -26 -220
0 -125 2 -148 27 -222 34 -103 77 -181 140 -258 43 -52 156 -155 171 -155 3 0
29 -14 58 -31 29 -17 89 -43 133 -56 68 -22 100 -25 215 -26 113 -1 147 3 210
22 251 76 436 260 516 511 23 74 27 101 27 215 0 108 -4 142 -23 200 -28 89
-67 165 -83 165 -7 0 -122 -110 -257 -245 -135 -135 -249 -245 -254 -245 -16
0 -257 244 -254 257 2 7 113 123 247 257 134 135 241 250 239 257 -9 28 -145
82 -249 98 -71 12 -134 12 -224 1z"/>
</g>
</svg>
