<?xml version="1.0" standalone="no"?>
<!DOCTYPE svg PUBLIC "-//W3C//DTD SVG 20010904//EN"
 "http://www.w3.org/TR/2001/REC-SVG-20010904/DTD/svg10.dtd">
<svg version="1.0" xmlns="http://www.w3.org/2000/svg"
 width="3464.000000pt" height="1309.000000pt" viewBox="0 0 3464.000000 1309.000000"
 preserveAspectRatio="xMidYMid meet">
<metadata>
Created by potrace 1.16, written by Peter Selinger 2001-2019
</metadata>
<g transform="translate(0.000000,1309.000000) scale(0.100000,-0.100000)"
fill="#000000" stroke="none">
<path fill="white" d="M3426 12848 c-509 -510 -929 -1041 -1308 -1656 -48 -79 -88 -146 -88
-149 0 -3 -20 -37 -44 -77 -70 -112 -268 -497 -359 -696 -8 -19 -32 -71 -52
-114 -116 -251 -282 -697 -376 -1006 -68 -227 -102 -350 -134 -485 -7 -33 -21
-89 -30 -125 -9 -36 -21 -87 -26 -115 -4 -27 -16 -84 -24 -125 -17 -80 -40
-208 -56 -303 -5 -33 -12 -63 -15 -68 -3 -6 -10 -47 -15 -92 -4 -45 -15 -136
-24 -202 -8 -66 -19 -172 -25 -235 -5 -63 -15 -151 -21 -195 -8 -53 -12 -261
-13 -610 0 -427 3 -566 17 -715 22 -242 25 -273 43 -415 33 -279 41 -332 64
-445 5 -25 18 -97 30 -160 11 -63 25 -133 30 -155 5 -22 17 -76 26 -120 9 -44
26 -114 37 -155 10 -41 25 -100 32 -131 38 -170 177 -611 276 -874 92 -248
152 -392 266 -645 9 -19 57 -118 108 -220 438 -882 959 -1608 1660 -2317 l239
-243 6096 0 6095 0 190 193 c272 274 386 398 618 676 174 207 482 635 638 886
31 50 78 126 106 170 160 255 543 1007 543 1067 0 26 56 165 138 343 68 149
169 397 202 498 11 33 23 93 27 132 3 38 23 124 43 190 36 112 61 211 109 415
69 295 144 769 181 1145 33 333 39 1245 10 1530 -48 471 -115 913 -185 1212
-59 254 -80 339 -101 413 -13 47 -32 110 -40 140 -102 356 -209 652 -393 1090
-134 318 -385 796 -603 1145 -194 311 -575 842 -678 945 -3 3 -23 27 -45 55
-120 150 -348 398 -558 608 l-238 237 -6065 0 -6065 0 -243 -242z m3138 -757
c105 -47 174 -135 195 -246 5 -29 6 -127 0 -242 -32 -709 -228 -1367 -598
-2008 -200 -346 -266 -542 -278 -830 -11 -265 25 -428 171 -775 59 -140 48
-228 -44 -360 -30 -43 -90 -129 -132 -189 -89 -128 -200 -303 -224 -354 -15
-31 -15 -38 -3 -53 43 -52 332 -262 489 -356 158 -94 436 -237 544 -280 27
-10 68 -27 90 -37 119 -54 422 -159 636 -220 124 -35 455 -113 555 -130 39 -7
88 -16 110 -21 130 -29 562 -82 818 -101 241 -17 755 -23 972 -10 689 40 1265
135 1845 302 146 43 409 130 505 169 44 17 99 38 123 47 24 8 71 27 105 42 34
16 96 43 137 61 174 76 436 215 642 343 137 85 278 185 284 202 3 7 -2 27 -11
45 -34 66 -190 305 -295 452 -60 84 -117 175 -126 201 -23 69 -15 165 20 247
79 183 102 246 134 370 33 131 34 141 35 335 1 185 -1 209 -27 320 -45 195
-110 344 -258 599 -371 638 -583 1381 -591 2076 -1 151 1 170 21 222 47 118
178 208 302 208 108 0 237 -78 286 -172 32 -61 44 -131 44 -253 0 -214 40
-517 101 -765 81 -329 239 -719 404 -995 240 -401 341 -699 375 -1105 20 -243
-22 -546 -114 -822 -20 -59 -36 -114 -36 -123 0 -8 39 -72 86 -142 275 -406
512 -874 651 -1288 41 -120 112 -369 127 -440 3 -16 11 -52 16 -80 124 -580
128 -1308 10 -1905 -5 -25 -14 -74 -20 -110 -85 -476 -275 -1099 -565 -1855
-63 -164 -159 -442 -181 -523 -20 -75 -44 -218 -44 -264 -1 -152 -162 -308
-319 -308 -167 0 -313 133 -328 297 -15 167 63 501 207 883 17 47 36 96 40
110 5 14 29 79 55 145 178 462 280 754 366 1050 45 155 105 394 130 520 32
157 72 447 85 616 5 61 3 88 -5 93 -7 5 -40 -15 -79 -46 -910 -732 -2288
-1407 -3832 -1877 -129 -40 -242 -76 -250 -80 -13 -7 -16 -102 -20 -732 l-5
-724 -27 -57 c-46 -99 -128 -161 -249 -188 -51 -11 -63 -11 -124 9 -38 12 -87
35 -110 51 -48 33 -106 115 -123 176 -9 30 -12 234 -12 746 0 553 -3 708 -12
715 -7 5 -85 31 -173 57 -557 167 -1271 426 -1705 621 -58 26 -118 53 -135 60
-515 229 -1053 517 -1485 795 -147 95 -395 272 -545 389 -64 51 -121 89 -127
85 -23 -15 24 -431 81 -707 95 -458 225 -876 476 -1522 26 -66 65 -169 87
-230 184 -511 230 -686 232 -895 1 -107 -1 -119 -27 -172 -16 -33 -49 -76 -78
-102 -135 -122 -326 -113 -451 21 -62 67 -74 99 -93 246 -28 217 -52 291 -364
1127 -64 172 -173 500 -226 680 -92 314 -181 690 -215 905 -6 39 -15 95 -20
125 -76 449 -85 1032 -24 1470 102 727 365 1388 831 2089 57 85 103 161 103
169 0 8 -16 60 -35 116 -144 423 -159 840 -45 1252 57 204 147 412 260 604
225 380 366 724 459 1120 54 232 91 520 91 717 0 216 51 319 193 388 96 46
169 48 261 6z m3148 -4663 c193 -89 272 -305 179 -492 -37 -75 -91 -128 -170
-165 -47 -22 -70 -26 -146 -26 -76 0 -99 4 -146 26 -79 37 -133 90 -171 167
-31 62 -33 74 -32 162 1 114 20 165 91 241 107 115 260 148 395 87z"/>
<path fill="white" d="M13675 6358 c-431 -284 -933 -524 -1485 -711 -551 -187 -1251 -333
-1855 -387 -725 -66 -1485 -48 -2137 50 -1087 164 -2040 525 -2736 1039 -60
44 -114 81 -120 81 -19 0 -127 -331 -177 -545 -26 -108 -50 -225 -60 -291 l-6
-41 123 -115 c159 -148 243 -221 403 -345 829 -642 2040 -1230 3455 -1678 357
-113 484 -147 517 -139 183 41 1139 353 1323 433 14 6 77 30 140 55 475 182
1021 436 1500 699 488 266 996 628 1358 965 137 128 136 124 111 256 -49 258
-192 738 -224 749 -5 2 -64 -32 -130 -75z"/>
</g>
</svg>
