<?xml version="1.0" standalone="no"?>
<!DOCTYPE svg PUBLIC "-//W3C//DTD SVG 20010904//EN"
 "http://www.w3.org/TR/2001/REC-SVG-20010904/DTD/svg10.dtd">
<svg version="1.0" xmlns="http://www.w3.org/2000/svg"
 width="3464.000000pt" height="1309.000000pt" viewBox="0 0 3464.000000 1309.000000"
 preserveAspectRatio="xMidYMid meet">
<metadata>
Created by potrace 1.16, written by Peter Selinger 2001-2019
</metadata>
<g transform="translate(0.000000,1309.000000) scale(0.100000,-0.100000)"
fill="#000000" stroke="none">
<path fill="white" d="M3426 12848 c-509 -510 -929 -1041 -1308 -1656 -48 -79 -88 -146 -88
-149 0 -3 -20 -37 -44 -77 -70 -112 -268 -497 -359 -696 -8 -19 -32 -71 -52
-114 -116 -251 -282 -697 -376 -1006 -68 -227 -102 -350 -134 -485 -7 -33 -21
-89 -30 -125 -9 -36 -21 -87 -26 -115 -4 -27 -16 -84 -24 -125 -17 -80 -40
-208 -56 -303 -5 -33 -12 -63 -15 -68 -3 -6 -10 -47 -15 -92 -4 -45 -15 -136
-24 -202 -8 -66 -19 -172 -25 -235 -5 -63 -15 -151 -21 -195 -8 -53 -12 -261
-13 -610 0 -427 3 -566 17 -715 22 -242 25 -273 43 -415 33 -279 41 -332 64
-445 5 -25 18 -97 30 -160 11 -63 25 -133 30 -155 5 -22 17 -76 26 -120 9 -44
26 -114 37 -155 10 -41 25 -100 32 -131 38 -170 177 -611 276 -874 92 -248
152 -392 266 -645 9 -19 57 -118 108 -220 438 -882 959 -1608 1660 -2317 l239
-243 6096 0 6095 0 190 193 c272 274 386 398 618 676 174 207 482 635 638 886
31 50 78 126 106 170 160 255 543 1007 543 1067 0 26 56 165 138 343 68 149
169 397 202 498 11 33 23 93 27 132 3 38 23 124 43 190 36 112 61 211 109 415
69 295 144 769 181 1145 33 333 39 1245 10 1530 -48 471 -115 913 -185 1212
-59 254 -80 339 -101 413 -13 47 -32 110 -40 140 -102 356 -209 652 -393 1090
-134 318 -385 796 -603 1145 -194 311 -575 842 -678 945 -3 3 -23 27 -45 55
-120 150 -348 398 -558 608 l-238 237 -6065 0 -6065 0 -243 -242z m4993 -23
c54 -33 78 -68 159 -230 114 -226 216 -493 272 -710 24 -92 60 -295 60 -335 0
-33 22 -53 75 -70 80 -25 365 -142 456 -187 52 -25 105 -46 119 -46 14 0 67
21 118 46 93 46 311 136 432 177 73 26 100 50 100 89 0 83 63 360 122 536 48
143 133 348 208 498 82 163 99 189 153 228 32 23 50 29 93 29 65 0 97 -20 208
-128 288 -282 470 -669 531 -1133 8 -62 18 -115 22 -119 5 -3 34 -26 66 -49
119 -90 222 -227 293 -389 39 -88 44 -157 19 -250 -9 -32 -20 -73 -25 -92 -5
-19 -32 -129 -60 -245 -71 -297 -76 -313 -106 -352 -49 -64 -142 -89 -216 -58
-46 18 -94 74 -109 125 -14 47 -16 37 83 440 l70 285 -33 65 c-66 127 -184
221 -342 272 -91 29 -349 36 -489 13 -295 -48 -606 -154 -943 -321 -197 -97
-193 -97 -394 2 -262 129 -492 217 -721 273 -204 51 -245 56 -450 56 -184 -1
-199 -2 -270 -27 -41 -15 -97 -39 -125 -54 -71 -39 -165 -138 -205 -215 l-34
-66 47 -184 c25 -101 58 -236 72 -299 15 -63 36 -151 46 -195 96 -393 195
-912 235 -1228 16 -123 20 -138 38 -143 12 -2 723 -3 1580 -2 1374 3 1560 5
1566 18 5 8 20 105 35 215 14 110 30 218 35 240 5 22 16 83 26 135 9 52 23
107 30 121 31 63 115 105 189 96 64 -7 108 -39 141 -101 31 -59 31 -65 -7
-266 -66 -361 -72 -441 -73 -980 l-1 -505 74 -125 c713 -1209 1368 -2189 2095
-3130 427 -554 917 -1126 1287 -1505 230 -235 249 -261 249 -335 0 -89 -46
-140 -280 -304 -294 -206 -575 -381 -878 -546 -154 -84 -154 -84 -147 -114 33
-157 15 -195 -134 -295 -558 -373 -1442 -760 -2182 -955 -74 -19 -161 -42
-194 -51 -33 -9 -80 -20 -105 -25 -25 -5 -76 -16 -115 -25 -107 -23 -252 -51
-330 -64 -330 -53 -448 -67 -806 -97 -151 -12 -279 -15 -560 -11 -381 5 -500
13 -879 58 -217 26 -560 87 -760 135 -58 14 -134 32 -170 41 -174 42 -636 180
-735 220 -77 31 -134 108 -135 179 0 45 44 125 85 153 67 45 115 41 340 -32
505 -164 1018 -279 1450 -327 55 -6 136 -15 180 -20 355 -43 1020 -43 1390 -1
44 6 127 15 185 22 58 6 157 20 220 31 63 11 140 23 170 28 53 8 122 22 275
55 39 9 90 20 115 25 25 5 72 16 105 25 33 9 103 27 155 41 662 175 1382 477
1943 814 25 15 37 29 34 39 -2 9 -60 93 -129 186 -224 305 -543 778 -751 1115
-50 80 -111 179 -137 220 -171 273 -557 952 -768 1350 -25 47 -58 110 -75 140
-119 217 -605 1203 -725 1470 -29 65 -50 111 -103 228 -49 107 -55 174 -21
237 27 51 104 95 164 95 41 0 106 -30 135 -61 12 -13 69 -127 126 -254 57
-126 133 -288 167 -360 34 -71 87 -182 117 -245 70 -147 347 -699 383 -765 15
-27 60 -113 100 -190 40 -77 83 -158 95 -180 12 -22 35 -65 52 -95 17 -30 49
-91 73 -135 205 -382 548 -965 818 -1390 213 -336 635 -951 677 -985 17 -14
45 -2 255 115 323 180 812 490 824 522 4 9 -24 46 -77 101 -1037 1090 -2173
2627 -3162 4277 -105 176 -206 347 -225 380 -18 33 -40 68 -48 78 -14 16 -106
17 -1662 17 -1556 0 -1648 -1 -1662 -17 -9 -10 -49 -76 -90 -148 -42 -71 -142
-240 -223 -375 -959 -1592 -2054 -3074 -3071 -4157 -75 -79 -131 -148 -129
-155 16 -42 658 -440 972 -603 73 -38 96 -45 107 -36 45 37 515 726 738 1081
273 435 653 1093 901 1560 30 58 88 166 127 240 166 314 573 1147 725 1485
105 232 113 245 180 276 80 37 171 12 224 -62 26 -36 31 -51 31 -102 0 -54 -9
-79 -81 -241 -45 -100 -114 -248 -154 -331 -39 -82 -102 -215 -140 -295 -72
-151 -421 -845 -460 -915 -12 -22 -53 -98 -90 -170 -176 -338 -338 -625 -704
-1250 -249 -425 -714 -1127 -1013 -1529 -48 -65 -88 -124 -88 -131 0 -7 17
-24 38 -37 69 -46 374 -210 538 -290 89 -43 174 -88 189 -100 34 -27 65 -92
65 -138 0 -110 -110 -203 -218 -184 -83 14 -604 285 -862 449 -160 102 -194
133 -215 196 -16 46 -16 54 -1 99 9 27 16 55 16 64 0 8 -53 43 -127 83 -256
139 -454 257 -673 402 -156 103 -374 258 -423 301 -85 75 -108 159 -67 240 11
21 101 122 200 225 289 299 706 771 928 1048 36 45 111 138 167 207 737 910
1642 2245 2315 3414 l75 130 3 365 c4 537 -12 756 -84 1141 -42 224 -104 527
-135 660 -16 69 -45 193 -64 275 -19 83 -62 258 -95 390 -47 186 -59 249 -54
280 8 50 80 205 130 281 62 93 181 211 272 269 1 1 7 40 12 86 56 465 242 871
530 1158 106 105 146 130 208 131 39 0 62 -6 91 -25z"/>
<path fill="white" d="M10800 12263 c-85 -178 -213 -595 -196 -638 6 -16 14 -17 74 -10 37
5 155 9 262 10 l195 1 -3 34 c-8 84 -71 283 -134 417 -30 67 -122 215 -146
236 -20 18 -21 17 -52 -50z"/>
<path fill="white" d="M8217 12248 c-96 -143 -183 -355 -221 -537 -8 -41 -13 -79 -10 -83 3
-5 56 -6 117 -2 64 4 174 1 256 -5 94 -8 147 -9 153 -3 25 25 -60 324 -160
567 -48 118 -58 135 -76 135 -6 0 -33 -32 -59 -72z"/>
<path fill="white" d="M7992 8448 c-13 -13 -18 -441 -6 -472 6 -15 154 -16 1574 -16 1420 0
1568 1 1574 16 3 9 6 114 6 234 0 185 -2 221 -16 234 -14 14 -170 16 -1568 16
-1194 0 -1555 -3 -1564 -12z"/>
</g>
</svg>
