<?xml version="1.0" standalone="no"?>
<!DOCTYPE svg PUBLIC "-//W3C//DTD SVG 20010904//EN"
 "http://www.w3.org/TR/2001/REC-SVG-20010904/DTD/svg10.dtd">
<svg version="1.0" xmlns="http://www.w3.org/2000/svg"
 width="3464.000000pt" height="1309.000000pt" viewBox="0 0 3464.000000 1309.000000"
 preserveAspectRatio="xMidYMid meet">
<metadata>
Created by potrace 1.16, written by Peter Selinger 2001-2019
</metadata>
<g transform="translate(0.000000,1309.000000) scale(0.100000,-0.100000)"
fill="#000000" stroke="none">
<path fill="white" d="M3426 12848 c-509 -510 -929 -1041 -1308 -1656 -48 -79 -88 -146 -88
-149 0 -3 -20 -37 -44 -77 -70 -112 -268 -497 -359 -696 -8 -19 -32 -71 -52
-114 -116 -251 -282 -697 -376 -1006 -68 -227 -102 -350 -134 -485 -7 -33 -21
-89 -30 -125 -9 -36 -21 -87 -26 -115 -4 -27 -16 -84 -24 -125 -17 -80 -40
-208 -56 -303 -5 -33 -12 -63 -15 -68 -3 -6 -10 -47 -15 -92 -4 -45 -15 -136
-24 -202 -8 -66 -19 -172 -25 -235 -5 -63 -15 -151 -21 -195 -8 -53 -12 -261
-13 -610 0 -427 3 -566 17 -715 22 -242 25 -273 43 -415 33 -279 41 -332 64
-445 5 -25 18 -97 30 -160 11 -63 25 -133 30 -155 5 -22 17 -76 26 -120 9 -44
26 -114 37 -155 10 -41 25 -100 32 -131 38 -170 177 -611 276 -874 92 -248
152 -392 266 -645 9 -19 57 -118 108 -220 438 -882 959 -1608 1660 -2317 l239
-243 6096 0 6095 0 190 193 c272 274 386 398 618 676 174 207 482 635 638 886
31 50 78 126 106 170 160 255 543 1007 543 1067 0 26 56 165 138 343 68 149
169 397 202 498 11 33 23 93 27 132 3 38 23 124 43 190 36 112 61 211 109 415
69 295 144 769 181 1145 33 333 39 1245 10 1530 -48 471 -115 913 -185 1212
-59 254 -80 339 -101 413 -13 47 -32 110 -40 140 -102 356 -209 652 -393 1090
-134 318 -385 796 -603 1145 -194 311 -575 842 -678 945 -3 3 -23 27 -45 55
-120 150 -348 398 -558 608 l-238 237 -6065 0 -6065 0 -243 -242z m1092 -1817
c250 -65 687 -451 935 -825 36 -54 96 -158 134 -232 37 -73 74 -136 81 -139 7
-3 52 11 100 31 177 74 408 141 612 177 192 35 280 42 525 42 265 0 371 -9
585 -52 116 -23 157 -33 265 -63 87 -25 259 -87 304 -109 83 -42 86 -41 132
51 136 271 296 494 505 700 188 186 420 355 559 408 84 31 213 38 307 15 188
-45 286 -137 438 -410 12 -22 68 -119 125 -215 201 -346 245 -426 270 -504 83
-257 -50 -552 -298 -660 -29 -13 -97 -35 -152 -49 -163 -42 -252 -75 -394
-143 -158 -76 -251 -131 -251 -148 0 -6 20 -39 44 -73 147 -202 321 -545 394
-778 26 -82 21 -197 -13 -279 -27 -69 -28 -72 -15 -145 64 -376 64 -670 1
-1043 -5 -31 -14 -73 -20 -95 -5 -21 -20 -76 -32 -123 -71 -281 -205 -576
-385 -845 -200 -299 -279 -361 -401 -310 -72 30 -113 93 -113 170 0 56 17 91
85 175 134 165 293 439 371 641 71 182 125 391 156 604 28 194 7 703 -31 749
-6 7 -37 16 -69 19 -139 15 -303 77 -435 164 -50 33 -192 166 -464 436 l-393
390 -29 -24 c-295 -241 -418 -330 -631 -454 -399 -232 -812 -382 -1280 -464
-252 -44 -375 -51 -965 -51 -308 0 -570 -3 -582 -6 -28 -8 -32 -19 -49 -144
-18 -127 -20 -508 -4 -619 68 -463 219 -832 485 -1186 353 -470 901 -820 1460
-933 205 -42 265 -47 530 -47 227 0 276 3 390 23 352 63 595 154 909 341 66
39 131 72 145 73 127 7 210 -64 211 -180 0 -59 -15 -95 -57 -133 -32 -30 -164
-114 -239 -152 -27 -14 -60 -33 -73 -44 l-23 -19 60 -89 c116 -173 206 -390
246 -590 28 -141 38 -315 22 -388 -24 -118 -88 -212 -184 -271 -48 -30 -45
-25 -61 -124 -26 -171 -132 -293 -306 -352 -49 -17 -50 -17 -52 -61 -15 -273
-94 -435 -271 -553 -95 -63 -176 -88 -297 -94 -143 -6 -275 33 -380 114 -42
32 -56 31 -115 -12 -88 -63 -189 -96 -310 -102 -172 -7 -313 44 -428 157 -124
121 -182 258 -182 433 0 38 -4 78 -10 88 -6 10 -33 25 -63 34 -113 33 -217
126 -266 238 -11 23 -25 80 -32 126 -12 81 -13 82 -54 106 -59 35 -132 118
-162 183 -21 45 -27 77 -31 154 -14 286 92 641 267 904 34 50 61 95 61 102 0
6 -44 35 -97 64 -293 157 -621 430 -836 694 -292 358 -498 794 -587 1235 -39
197 -50 316 -50 560 0 233 7 325 37 492 17 95 15 113 -16 202 -24 66 -28 190
-10 247 25 77 62 177 85 227 13 29 24 55 24 59 0 3 27 59 60 124 62 123 164
293 231 388 22 30 39 60 39 67 0 20 -135 99 -285 167 -109 49 -251 99 -348
123 -34 8 -75 19 -92 23 -119 31 -255 139 -319 253 -77 138 -96 294 -52 429
21 65 42 106 125 251 283 494 375 648 420 706 64 81 186 154 300 181 64 16
184 12 259 -8z m8982 -987 c454 -64 799 -191 1189 -435 51 -33 99 -59 107 -59
25 0 232 109 366 193 140 87 180 101 293 101 91 0 106 -3 168 -32 91 -42 178
-126 220 -211 29 -61 32 -74 32 -166 0 -58 -6 -119 -14 -145 -61 -196 -117
-339 -197 -507 l-56 -118 22 -40 c410 -735 498 -1530 257 -2320 -99 -324 -290
-679 -515 -959 -95 -118 -135 -146 -212 -146 -107 0 -180 72 -180 178 0 66 3
72 110 207 239 301 400 625 484 975 53 219 79 427 55 434 -8 2 -63 11 -124 20
-127 20 -293 62 -419 106 -156 55 -403 183 -520 269 -94 70 -84 70 -204 3
-309 -171 -623 -287 -942 -346 -275 -52 -200 -49 -1543 -55 -1103 -5 -1259 -8
-1267 -21 -5 -8 -8 -22 -5 -30 2 -8 6 -44 10 -80 18 -178 74 -404 148 -595
224 -578 639 -1042 1197 -1338 396 -210 863 -309 1312 -278 435 30 776 136
1166 363 117 68 161 79 227 54 128 -49 162 -212 63 -303 -33 -31 -178 -118
-283 -171 -49 -25 -93 -50 -97 -56 -8 -12 -8 -11 73 -118 146 -191 249 -414
299 -648 10 -49 24 -165 31 -257 10 -148 9 -179 -6 -258 -33 -181 -136 -331
-290 -420 -53 -31 -189 -75 -232 -75 -67 0 -73 -9 -73 -118 0 -192 -49 -311
-180 -442 -135 -136 -260 -185 -450 -178 -145 6 -225 36 -359 131 l-40 29 -53
-41 c-106 -80 -231 -121 -367 -121 -264 0 -485 158 -576 410 -21 60 -28 100
-32 198 -7 137 1 125 -93 136 -165 19 -333 130 -420 276 -65 108 -82 168 -87
316 -15 367 78 692 283 994 35 52 78 112 95 132 19 22 29 43 26 52 -3 8 -43
34 -89 57 -534 267 -1006 742 -1277 1287 -207 417 -305 830 -305 1287 1 541
137 1036 412 1495 237 395 586 746 982 987 110 67 271 150 365 188 50 20 99
40 110 45 39 18 202 69 300 95 183 47 402 82 565 89 140 6 434 -5 540 -20z
m-7562 -3093 c85 -43 102 -89 102 -268 0 -119 -3 -142 -21 -181 -64 -130 -258
-130 -326 2 -19 36 -30 202 -19 289 18 138 149 217 264 158z m2099 8 c15 -5
41 -22 56 -37 52 -49 57 -68 57 -237 0 -147 -1 -157 -24 -194 -37 -58 -87 -84
-158 -84 -49 0 -66 5 -100 29 -65 45 -82 90 -87 218 -2 64 2 132 9 164 13 60
57 117 105 138 37 16 104 18 142 3z m4089 -118 c88 -40 107 -94 102 -293 -3
-146 -3 -146 -34 -184 -43 -54 -80 -72 -143 -73 -70 -1 -127 31 -161 91 -24
41 -25 51 -25 193 0 168 7 192 70 242 58 47 123 55 191 24z m2151 0 c26 -12
52 -35 70 -62 27 -41 28 -49 32 -183 2 -83 -1 -155 -8 -177 -45 -149 -250
-175 -333 -42 -22 36 -23 48 -23 193 0 174 6 196 70 247 58 47 123 55 192 24z
m-7596 -73 c19 -6 63 -33 99 -59 103 -77 168 -77 268 0 82 64 126 78 188 61
99 -28 154 -122 132 -224 -9 -42 -21 -61 -67 -106 -60 -59 -164 -118 -246
-141 -72 -20 -227 -18 -295 4 -176 57 -310 182 -310 291 0 72 58 147 135 174
40 14 56 14 96 0z m6240 -131 c20 -12 56 -37 79 -55 45 -34 109 -56 138 -48 9
2 29 7 44 10 15 3 48 25 75 48 86 74 162 88 239 43 61 -36 89 -86 89 -160 0
-52 -4 -66 -33 -106 -66 -92 -194 -167 -331 -195 -95 -19 -158 -15 -261 16
-116 35 -249 130 -284 204 -20 42 -21 115 -2 159 39 93 164 135 247 84z"/>
<path fill="white" d="M4305 10666 c-55 -25 -79 -60 -245 -351 -9 -16 -43 -75 -75 -130
-226 -390 -225 -388 -225 -439 1 -70 66 -158 128 -172 294 -67 521 -164 849
-360 l32 -19 68 65 c127 121 232 206 374 303 53 37 102 73 109 82 25 31 -155
349 -297 525 -162 199 -441 438 -578 496 -43 17 -101 17 -140 0z"/>
<path fill="white" d="M9362 10665 c-38 -17 -185 -119 -262 -183 -166 -138 -322 -314 -443
-497 -62 -95 -177 -319 -177 -345 0 -8 10 -26 21 -40 11 -14 35 -48 53 -76 31
-46 38 -51 91 -63 120 -27 197 -73 317 -189 54 -52 83 -72 94 -68 9 4 55 30
103 59 166 103 417 217 566 257 110 30 154 42 187 51 75 20 138 101 138 176 0
47 -19 89 -108 240 -38 65 -131 226 -207 358 -76 132 -147 253 -158 269 -40
57 -144 82 -215 51z"/>
<path fill="white" d="M6700 9714 c-14 -2 -68 -9 -120 -15 -726 -84 -1405 -494 -1822 -1099
-134 -194 -228 -373 -304 -579 -19 -51 -21 -68 -11 -79 17 -21 1130 -11 1327
12 251 30 410 64 665 142 182 56 282 96 490 199 333 164 600 350 866 601 47
45 96 87 110 94 13 8 52 14 86 14 50 0 67 -5 95 -26 18 -14 229 -221 468 -460
239 -239 455 -448 480 -465 25 -17 68 -42 96 -56 90 -46 233 -73 249 -47 19
31 -133 357 -258 552 -41 64 -109 162 -151 216 -96 126 -272 311 -333 351 -43
29 -53 31 -132 31 -143 1 -203 43 -241 170 -15 52 -29 76 -57 100 -33 30 -203
119 -284 150 -19 7 -50 19 -69 27 -136 54 -332 109 -470 132 -36 6 -92 16
-125 22 -59 11 -506 21 -555 13z"/>
<path fill="white" d="M5986 4379 c-36 -29 -124 -152 -173 -245 -82 -155 -129 -320 -140
-497 l-6 -109 23 4 c17 2 50 42 121 143 54 77 112 152 128 167 124 112 321 -1
296 -169 -5 -34 -41 -96 -161 -276 -103 -155 -154 -241 -154 -259 0 -61 -47
-58 988 -58 l943 0 25 25 c19 19 23 31 18 47 -4 12 -73 123 -155 245 -81 123
-153 240 -159 262 -25 95 32 193 131 223 55 16 123 -2 167 -45 19 -18 74 -93
123 -169 50 -75 96 -139 104 -142 18 -6 45 19 45 43 0 34 -30 244 -41 285 -36
140 -92 263 -174 385 -53 81 -118 161 -129 161 -1 0 -40 -11 -87 -25 -123 -37
-225 -59 -449 -97 -103 -18 -606 -17 -720 0 -199 31 -316 56 -492 107 -43 13
-49 12 -72 -6z"/>
<path fill="white" d="M6291 2691 c-14 -25 1 -147 22 -187 68 -129 248 -154 349 -47 42 44
59 100 56 179 l-3 69 -207 3 c-196 2 -208 1 -217 -17z"/>
<path fill="white" d="M7097 2704 c-4 -4 -7 -37 -7 -74 0 -136 81 -230 204 -238 56 -4 71
-1 115 23 27 15 61 44 75 64 30 42 49 121 44 183 l-3 43 -211 3 c-115 1 -213
-1 -217 -4z"/>
<path fill="white" d="M12930 9690 c-115 -7 -226 -22 -303 -40 -145 -32 -196 -47 -317 -86
-255 -84 -557 -251 -780 -431 -410 -330 -723 -816 -855 -1329 -39 -150 -78
-402 -67 -432 4 -11 238 -12 1261 -9 1107 3 1267 6 1351 20 424 74 767 203
1092 411 561 359 962 888 1182 1559 21 63 20 83 -5 108 -26 26 -50 21 -127
-28 -124 -80 -303 -176 -450 -241 -73 -33 -104 -42 -148 -42 -54 0 -62 4 -156
68 -397 271 -728 402 -1168 461 -106 15 -374 20 -510 11z"/>
<path fill="white" d="M15272 8167 c-113 -141 -266 -303 -377 -397 -47 -40 -85 -78 -85 -86
0 -29 226 -152 389 -211 156 -56 394 -112 427 -99 20 8 12 94 -27 291 -48 247
-178 615 -219 615 -10 0 -54 -46 -108 -113z"/>
<path fill="white" d="M12254 4348 c-96 -88 -231 -272 -216 -294 14 -19 139 -112 222 -164
173 -109 199 -143 200 -260 0 -36 4 -71 8 -78 7 -10 145 -12 658 -10 l649 3 5
75 c10 129 24 148 207 272 87 59 174 120 193 136 l35 30 -20 38 c-39 74 -200
260 -245 284 -9 4 -62 -4 -125 -20 -157 -40 -334 -67 -531 -81 -301 -22 -661
18 -971 107 -16 4 -33 -4 -69 -38z"/>
<path fill="white" d="M11886 3671 c-12 -20 -26 -153 -26 -257 0 -103 2 -116 28 -165 33
-64 116 -122 167 -117 l30 3 2 205 c2 113 0 210 -5 215 -11 16 -170 125 -181
125 -5 0 -12 -4 -15 -9z"/>
<path fill="white" d="M14247 3619 c-51 -36 -89 -69 -92 -82 -3 -12 -4 -107 -3 -212 l3
-190 24 -3 c71 -10 165 66 196 158 16 47 16 67 6 206 -12 163 -16 184 -35 184
-6 0 -51 -27 -99 -61z"/>
<path fill="white" d="M12478 3159 c-16 -9 -18 -33 -18 -282 0 -150 4 -289 9 -310 24 -100
121 -177 227 -177 109 0 191 60 230 167 8 24 13 84 14 159 0 134 10 172 57
215 42 39 66 49 124 49 75 0 129 -34 163 -102 24 -48 26 -62 26 -179 0 -141 9
-174 62 -235 86 -97 254 -99 345 -3 61 64 63 78 63 398 0 277 -1 291 -19 301
-27 14 -1259 13 -1283 -1z"/>
</g>
</svg>
