<?xml version="1.0" standalone="no"?>
<!DOCTYPE svg PUBLIC "-//W3C//DTD SVG 20010904//EN"
 "http://www.w3.org/TR/2001/REC-SVG-20010904/DTD/svg10.dtd">
<svg version="1.0" xmlns="http://www.w3.org/2000/svg"
 width="2615.000000pt" height="988.000000pt" viewBox="0 0 2615.000000 988.000000"
 preserveAspectRatio="xMidYMid meet">
<metadata>
Created by potrace 1.16, written by Peter Selinger 2001-2019
</metadata>
<g transform="translate(0.000000,988.000000) scale(0.100000,-0.100000)"
fill="#000000" stroke="none">
<path d="M2617 9753 c-250 -248 -488 -520 -687 -788 -163 -219 -418 -611 -406
-623 7 -7 3 -13 71 98 286 468 611 880 1001 1268 96 94 169 172 162 172 -6 0
-69 -57 -141 -127z"/>
<path d="M12086 9722 c229 -227 427 -450 605 -682 218 -284 468 -673 613 -952
25 -50 46 -73 46 -52 0 9 -164 303 -220 394 -232 374 -472 697 -753 1015 -118
132 -422 435 -437 435 -8 0 58 -71 146 -158z"/>
<path d="M3195 8329 c-103 -35 -189 -100 -243 -184 -23 -35 -79 -132 -160
-275 -14 -25 -53 -92 -87 -150 -98 -168 -102 -174 -124 -237 -31 -88 -29 -182
8 -271 59 -146 156 -227 316 -267 158 -38 402 -141 483 -203 l22 -17 -76 -115
c-133 -203 -274 -521 -274 -619 0 -40 15 -104 32 -138 11 -23 9 -55 -16 -243
-76 -559 111 -1180 491 -1630 168 -199 387 -379 608 -500 33 -18 64 -36 69
-41 5 -4 -14 -44 -44 -90 -122 -190 -184 -378 -197 -600 -5 -86 -3 -116 12
-163 19 -61 74 -131 129 -166 30 -18 35 -28 46 -88 22 -126 96 -220 206 -261
32 -13 62 -28 66 -34 4 -7 8 -39 8 -72 0 -218 152 -397 370 -436 112 -20 245
14 339 84 l34 26 41 -28 c71 -49 122 -70 196 -82 189 -32 377 68 465 246 31
63 37 87 43 171 8 106 4 101 85 129 97 34 183 151 194 263 6 51 8 55 60 94
129 95 155 211 108 479 -26 148 -98 323 -187 452 -21 33 -37 65 -35 71 3 7 29
25 59 41 92 48 184 112 206 143 44 61 19 162 -47 197 -55 28 -100 20 -192 -37
-205 -125 -424 -210 -659 -254 -173 -33 -465 -37 -625 -10 -414 71 -755 247
-1041 534 -351 354 -545 824 -544 1316 1 128 19 310 34 334 5 9 111 12 421 12
393 0 525 6 695 31 536 77 1046 309 1467 666 34 29 65 53 68 53 4 0 134 -127
288 -281 155 -155 305 -298 332 -319 101 -76 181 -110 324 -139 101 -20 94 -6
112 -221 36 -449 -95 -889 -379 -1267 -95 -127 -107 -164 -76 -228 9 -20 31
-46 48 -56 35 -21 102 -25 140 -8 39 18 155 170 248 324 262 435 362 976 272
1466 -15 81 -15 89 2 120 11 22 19 64 22 119 4 79 2 92 -33 184 -52 139 -155
339 -237 462 -55 83 -67 108 -58 119 23 28 270 144 371 175 219 66 243 75 295
113 60 43 123 127 149 202 12 32 18 79 18 130 1 124 2 121 -282 610 -67 116
-136 225 -154 243 -126 132 -310 168 -477 94 -150 -66 -424 -306 -572 -502
-62 -82 -148 -222 -192 -312 -15 -32 -31 -60 -36 -63 -5 -3 -37 6 -71 21 -266
112 -548 166 -859 166 -321 1 -599 -53 -871 -167 -32 -14 -62 -25 -67 -25 -4
0 -30 44 -57 97 -142 286 -393 565 -660 735 -102 66 -170 88 -263 87 -42 0
-90 -5 -107 -10z m242 -328 c231 -156 422 -375 545 -624 l43 -89 -26 -21 c-14
-12 -66 -50 -115 -84 -49 -34 -133 -103 -187 -153 -61 -56 -102 -88 -110 -83
-7 4 -34 21 -62 39 -136 86 -337 173 -509 219 -101 28 -129 43 -156 88 -34 55
-26 91 46 217 37 63 77 133 90 156 215 378 227 394 310 394 36 0 57 -10 131
-59z m3752 44 c31 -15 56 -52 149 -215 33 -58 95 -166 137 -240 111 -192 118
-208 111 -248 -12 -75 -47 -103 -172 -137 -177 -47 -337 -116 -502 -214 l-83
-50 -74 68 c-84 76 -146 113 -221 130 -46 11 -55 18 -93 73 -49 72 -50 71 32
219 102 185 229 339 386 468 183 152 257 184 330 146z m-1805 -715 c228 -19
463 -82 671 -180 126 -59 161 -88 179 -149 8 -27 20 -58 28 -70 22 -38 80 -61
150 -61 78 0 101 -13 203 -117 138 -139 256 -300 354 -484 53 -100 111 -237
111 -263 0 -20 -36 -21 -106 -2 -113 30 -144 55 -519 427 -285 283 -367 358
-393 364 -65 13 -97 -1 -189 -87 -398 -369 -813 -576 -1371 -684 -131 -26
-300 -34 -709 -34 -355 0 -443 3 -443 13 0 11 17 59 52 151 6 16 33 71 60 123
362 702 1124 1119 1922 1053z m-703 -4049 c199 -49 322 -64 534 -64 217 1 349
17 550 68 150 38 137 42 211 -62 96 -133 162 -323 166 -478 4 -116 -11 -112
-101 23 -40 60 -82 118 -94 129 -90 82 -227 18 -227 -105 0 -33 18 -67 117
-218 64 -98 118 -187 121 -197 13 -48 30 -47 -742 -47 -754 0 -746 0 -746 42
0 10 50 94 112 185 61 92 116 182 121 199 31 101 -69 204 -166 172 -46 -16
-70 -40 -155 -161 -41 -59 -80 -106 -86 -104 -15 6 -10 158 7 232 30 125 100
272 175 365 43 53 53 61 68 56 7 -3 68 -18 135 -35z m389 -1300 c0 -81 -23
-123 -85 -158 -46 -26 -89 -29 -136 -9 -62 26 -93 72 -104 154 -11 81 -9 82
171 82 l154 0 0 -69z m608 29 c7 -66 -8 -118 -41 -154 -112 -118 -287 -32
-287 141 0 22 3 43 7 47 4 3 77 5 162 4 l156 -3 3 -35z"/>
<path d="M9690 7590 c-938 -91 -1732 -804 -1924 -1727 -65 -315 -60 -661 14
-966 144 -599 554 -1123 1105 -1417 114 -61 112 -57 63 -115 -164 -198 -258
-450 -274 -739 -11 -190 30 -313 141 -421 65 -63 128 -95 230 -116 l80 -16 6
-99 c3 -54 12 -118 21 -141 56 -153 189 -269 346 -302 131 -27 230 -2 389 99
19 12 26 10 75 -23 64 -44 148 -75 226 -83 117 -13 263 40 350 124 100 97 142
197 142 333 0 63 4 91 13 93 6 2 41 9 77 16 93 17 166 56 235 125 107 106 141
211 132 410 -12 275 -96 509 -257 720 -28 35 -50 69 -50 74 0 6 31 26 69 45
120 60 215 122 239 156 43 63 20 160 -47 195 -51 26 -105 19 -174 -21 -147
-87 -273 -146 -402 -189 -437 -145 -891 -133 -1315 35 -76 30 -242 114 -309
157 -232 147 -470 387 -610 616 -93 153 -176 346 -221 512 -23 88 -61 325 -54
337 3 5 389 8 857 8 849 0 997 5 1197 36 272 42 569 148 799 283 28 17 57 31
62 31 6 0 54 -29 107 -64 144 -95 301 -166 497 -226 17 -5 71 -16 120 -25 176
-31 160 -23 157 -80 -5 -98 -39 -270 -80 -400 -61 -196 -190 -435 -320 -595
-85 -106 -92 -118 -92 -172 0 -125 142 -181 234 -92 44 43 137 165 205 268
108 165 220 421 272 616 89 340 93 758 10 1080 -51 195 -90 300 -177 473 -35
71 -64 135 -64 142 0 8 18 50 39 95 40 81 103 239 137 340 11 34 18 85 19 135
0 69 -4 88 -29 138 -59 115 -162 177 -294 177 -84 -1 -117 -13 -252 -97 -87
-54 -221 -123 -238 -123 -8 0 -55 25 -105 56 -263 163 -535 264 -835 309 -121
19 -416 27 -542 15z m418 -280 c322 -34 611 -142 890 -333 139 -95 148 -95
342 1 80 39 181 94 225 121 83 54 114 61 136 35 11 -14 7 -36 -31 -147 -114
-338 -336 -671 -605 -906 -320 -280 -672 -442 -1115 -512 -100 -16 -1916 -25
-1934 -10 -10 8 -10 31 1 113 58 456 300 896 656 1195 403 338 919 497 1435
443z m1531 -1097 c55 -110 129 -351 149 -488 22 -147 23 -155 10 -156 -68 -6
-254 41 -383 96 -102 44 -219 107 -230 125 -3 5 65 80 152 167 87 87 181 188
208 225 28 37 56 68 62 68 7 0 21 -17 32 -37z m-2274 -2918 c79 -25 258 -53
404 -65 203 -17 445 6 673 62 l88 22 31 -30 c45 -43 134 -154 153 -191 l16
-32 -58 -44 c-31 -24 -96 -69 -144 -100 -100 -64 -118 -91 -126 -184 l-5 -63
-491 2 -491 3 -6 60 c-9 96 -21 111 -166 210 -182 124 -172 109 -123 182 53
80 153 183 176 183 11 0 42 -7 69 -15z m-309 -563 l69 -47 3 -158 c3 -175 1
-181 -61 -157 -50 20 -94 67 -107 117 -18 61 -2 293 19 293 4 0 39 -21 77 -48z
m1791 21 c4 -16 7 -85 7 -154 1 -117 -1 -127 -24 -162 -29 -42 -90 -80 -123
-75 -22 3 -22 6 -25 151 -1 81 1 154 6 162 8 16 131 105 144 105 4 0 11 -12
15 -27z m-447 -597 c0 -226 -1 -234 -23 -267 -64 -95 -182 -114 -267 -43 -47
40 -54 60 -60 184 -4 67 -12 127 -21 145 -45 93 -186 100 -239 12 -16 -25 -20
-50 -20 -122 0 -110 -12 -155 -52 -201 -69 -79 -179 -83 -256 -11 -47 44 -52
74 -52 307 0 119 3 220 7 223 3 4 226 7 495 7 l488 0 0 -234z"/>
<path d="M4364 5250 c-36 -14 -72 -67 -80 -116 -11 -75 0 -205 20 -236 27 -42
66 -62 119 -62 56 0 93 24 119 75 24 47 25 226 2 275 -29 61 -113 91 -180 64z"/>
<path d="M5943 5241 c-56 -35 -65 -67 -61 -206 3 -121 4 -124 33 -155 66 -68
180 -58 221 21 10 20 14 63 14 154 l0 125 -33 37 c-29 31 -41 37 -88 40 -42 3
-61 0 -86 -16z"/>
<path d="M9060 5173 c-73 -24 -100 -66 -107 -171 -12 -169 35 -252 141 -252
39 0 60 6 80 21 47 37 56 68 56 195 0 100 -3 121 -20 149 -28 46 -102 74 -150
58z"/>
<path d="M10665 5166 c-16 -7 -41 -26 -55 -41 -23 -25 -25 -35 -28 -150 -3
-99 0 -129 13 -154 22 -45 70 -71 127 -71 61 0 112 41 129 103 15 58 7 214
-14 253 -31 59 -113 88 -172 60z"/>
<path d="M4953 5099 c-76 -37 -102 -111 -66 -186 21 -45 112 -117 183 -145 74
-29 213 -31 285 -4 68 26 151 81 182 123 31 40 37 113 14 157 -38 70 -133 89
-202 40 -84 -59 -95 -64 -129 -64 -19 0 -47 8 -61 18 -15 9 -44 29 -65 44 -56
38 -91 42 -141 17z"/>
<path d="M9652 5023 c-59 -11 -108 -97 -95 -166 9 -44 85 -120 155 -155 169
-84 345 -60 479 65 58 54 75 102 59 162 -27 100 -159 132 -231 55 -28 -30 -80
-54 -118 -54 -15 0 -49 15 -75 33 -101 67 -114 71 -174 60z"/>
<path d="M13530 2246 c0 -34 -201 -440 -333 -671 -155 -273 -436 -683 -606
-885 -25 -30 -64 -77 -86 -104 -69 -87 -245 -277 -400 -433 -84 -84 -147 -153
-140 -153 19 0 379 371 518 534 204 239 419 530 567 766 29 47 74 119 100 160
26 41 69 116 95 165 26 50 51 95 55 100 12 16 145 281 199 399 51 110 59 136
41 136 -5 0 -10 -6 -10 -14z"/>
<path d="M1210 2111 c0 -28 278 -549 391 -731 181 -295 436 -638 683 -920 136
-155 438 -460 456 -460 8 0 -70 84 -172 188 -531 533 -937 1102 -1266 1774
-68 140 -92 178 -92 149z"/>
</g>
</svg>
