<?xml version="1.0" standalone="no"?>
<!DOCTYPE svg PUBLIC "-//W3C//DTD SVG 20010904//EN"
 "http://www.w3.org/TR/2001/REC-SVG-20010904/DTD/svg10.dtd">
<svg version="1.0" xmlns="http://www.w3.org/2000/svg"
 width="3464.000000pt" height="1309.000000pt" viewBox="0 0 3464.000000 1309.000000"
 preserveAspectRatio="xMidYMid meet">
<metadata>
Created by potrace 1.16, written by Peter Selinger 2001-2019
</metadata>
<g transform="translate(0.000000,1309.000000) scale(0.100000,-0.100000)"
fill="#000000" stroke="none">
<path fill="white" d="M3426 12848 c-509 -510 -929 -1041 -1308 -1656 -48 -79 -88 -146 -88
-149 0 -3 -20 -37 -44 -77 -70 -112 -268 -497 -359 -696 -8 -19 -32 -71 -52
-114 -116 -251 -282 -697 -376 -1006 -68 -227 -102 -350 -134 -485 -7 -33 -21
-89 -30 -125 -9 -36 -21 -87 -26 -115 -4 -27 -16 -84 -24 -125 -17 -80 -40
-208 -56 -303 -5 -33 -12 -63 -15 -68 -3 -6 -10 -47 -15 -92 -4 -45 -15 -136
-24 -202 -8 -66 -19 -172 -25 -235 -5 -63 -15 -151 -21 -195 -8 -53 -12 -261
-13 -610 0 -427 3 -566 17 -715 22 -242 25 -273 43 -415 33 -279 41 -332 64
-445 5 -25 18 -97 30 -160 11 -63 25 -133 30 -155 5 -22 17 -76 26 -120 9 -44
26 -114 37 -155 10 -41 25 -100 32 -131 38 -170 177 -611 276 -874 92 -248
152 -392 266 -645 9 -19 57 -118 108 -220 438 -882 959 -1608 1660 -2317 l239
-243 6096 0 6095 0 190 193 c272 274 386 398 618 676 174 207 482 635 638 886
31 50 78 126 106 170 160 255 543 1007 543 1067 0 26 56 165 138 343 68 149
169 397 202 498 11 33 23 93 27 132 3 38 23 124 43 190 36 112 61 211 109 415
69 295 144 769 181 1145 33 333 39 1245 10 1530 -48 471 -115 913 -185 1212
-59 254 -80 339 -101 413 -13 47 -32 110 -40 140 -102 356 -209 652 -393 1090
-134 318 -385 796 -603 1145 -194 311 -575 842 -678 945 -3 3 -23 27 -45 55
-120 150 -348 398 -558 608 l-238 237 -6065 0 -6065 0 -243 -242z m4179 -462
c525 -258 1024 -409 1600 -485 364 -48 827 -48 1185 0 234 31 583 102 735 150
17 5 68 21 115 35 248 76 478 168 714 284 l162 80 129 0 c71 0 169 -5 219 -10
166 -19 260 -32 321 -45 33 -7 87 -18 120 -25 277 -54 664 -210 1051 -423 43
-24 138 -74 209 -112 72 -37 135 -71 140 -75 6 -4 73 -40 150 -80 77 -40 154
-81 170 -90 32 -19 295 -159 465 -248 58 -30 119 -62 135 -72 27 -16 185 -101
440 -235 384 -203 402 -216 431 -292 26 -68 33 -42 -171 -688 -48 -152 -98
-312 -171 -548 -13 -42 -35 -113 -49 -157 -14 -44 -36 -116 -50 -160 -14 -44
-36 -116 -50 -160 -14 -44 -36 -116 -50 -160 -14 -44 -36 -116 -50 -160 -14
-44 -36 -116 -50 -160 -28 -91 -52 -167 -123 -395 -177 -567 -225 -713 -248
-747 -32 -45 -98 -78 -160 -78 -37 0 -530 131 -674 179 -14 5 -43 14 -65 20
-22 6 -96 27 -165 47 -69 19 -153 44 -188 54 -34 11 -69 17 -77 14 -13 -5 -15
-399 -15 -3443 l-1 -3436 -23 -45 c-15 -31 -38 -55 -71 -75 l-48 -30 -3796 0
c-3636 0 -3798 1 -3834 18 -47 23 -74 51 -98 102 -18 39 -19 149 -19 3471 0
2736 -3 3433 -12 3437 -7 2 -87 -17 -178 -43 -216 -63 -830 -238 -898 -256
-87 -23 -151 -19 -203 14 -54 35 -75 75 -124 237 -20 66 -42 138 -50 160 -7
22 -29 92 -49 155 -19 63 -106 340 -192 615 -86 275 -167 535 -180 578 -13 42
-35 113 -49 157 -14 44 -36 116 -50 160 -14 44 -36 116 -50 160 -14 44 -36
115 -49 158 -13 42 -47 151 -76 242 -28 91 -62 199 -75 240 -13 41 -47 149
-75 240 -75 235 -71 298 20 371 19 15 206 118 415 229 209 111 412 219 450
240 144 77 503 269 600 320 55 29 152 81 215 115 63 34 169 90 235 125 66 35
155 82 197 106 513 282 908 412 1438 473 41 4 140 9 220 10 l145 1 130 -64z"/>
<path fill="white" d="M7115 12043 c-100 -9 -325 -51 -440 -82 -267 -72 -508 -173 -805
-336 -41 -23 -124 -68 -185 -100 -60 -32 -166 -88 -235 -125 -147 -79 -431
-230 -650 -346 -85 -45 -165 -90 -178 -101 l-23 -18 97 -273 c62 -174 101
-272 110 -272 8 0 103 48 211 106 109 59 236 127 283 152 93 49 201 107 295
157 188 102 801 428 861 458 131 66 409 151 609 186 33 6 118 17 188 25 70 7
131 16 134 20 7 7 -3 53 -43 186 -15 52 -41 156 -58 230 l-31 135 -50 1 c-28
1 -68 -1 -90 -3z"/>
<path fill="white" d="M12338 12044 c-3 -5 -11 -36 -18 -69 -14 -72 -70 -290 -101 -397 -13
-43 -20 -80 -17 -83 3 -3 66 -13 139 -21 171 -19 383 -63 524 -107 181 -58
239 -83 500 -224 83 -44 317 -169 520 -278 204 -109 397 -212 430 -230 290
-155 463 -245 472 -245 5 0 17 19 26 43 64 173 105 288 139 386 37 110 38 115
21 132 -10 9 -97 58 -193 109 -162 85 -223 118 -355 190 -27 15 -99 53 -160
85 -60 32 -240 128 -400 213 -487 261 -606 314 -910 402 -214 62 -601 121
-617 94z"/>
<path fill="white" d="M7700 11878 c0 -27 83 -289 126 -396 244 -611 603 -1011 1104 -1230
168 -73 348 -118 603 -152 175 -23 529 -8 727 30 549 105 998 428 1298 934
141 237 215 405 298 681 38 124 41 145 18 145 -8 0 -77 -24 -152 -54 -426
-167 -875 -280 -1317 -331 -253 -28 -364 -35 -606 -35 -292 0 -529 19 -864 70
-96 15 -343 68 -455 98 -19 5 -71 19 -115 31 -128 35 -349 109 -497 167 -142
56 -168 62 -168 42z"/>
<path fill="white" d="M7317 11084 c-242 -25 -488 -86 -667 -166 -30 -14 -251 -130 -490
-258 -432 -231 -498 -266 -680 -363 -52 -27 -122 -64 -155 -82 -33 -18 -105
-56 -160 -86 -232 -124 -220 -116 -219 -146 1 -25 14 -66 89 -273 13 -36 54
-148 90 -250 37 -102 80 -211 96 -244 120 -237 338 -413 595 -481 33 -9 108
-20 167 -25 59 -6 122 -16 140 -24 41 -17 86 -62 103 -103 12 -27 14 -645 14
-3790 0 -2067 4 -3764 8 -3771 7 -10 724 -12 3553 -10 l3544 3 5 3775 c4 2780
8 3782 16 3800 17 36 63 79 103 96 18 8 82 18 140 24 122 11 193 28 297 71
144 60 276 161 367 282 81 107 127 200 191 387 14 41 33 95 42 120 9 25 31 88
49 140 19 52 47 133 64 180 17 47 31 92 31 102 0 17 -30 35 -225 138 -55 29
-122 65 -150 80 -27 15 -90 49 -140 75 -49 26 -121 64 -160 85 -38 21 -106 57
-150 80 -44 24 -107 57 -140 75 -33 18 -87 47 -120 65 -502 271 -631 336 -759
379 -120 41 -150 50 -276 76 -123 26 -466 63 -492 52 -9 -3 -35 -42 -57 -87
-113 -223 -274 -444 -460 -631 -181 -181 -311 -282 -506 -390 -480 -268 -1110
-361 -1719 -255 -151 27 -408 101 -501 146 -11 5 -49 22 -85 38 -99 43 -254
136 -365 217 -292 213 -540 508 -735 870 -23 44 -48 83 -54 87 -15 10 -88 8
-239 -8z m1600 -3007 c22 -15 50 -46 64 -70 l24 -42 0 -2020 c0 -1865 -1
-2023 -17 -2055 -23 -48 -65 -86 -117 -105 -37 -13 -111 -15 -465 -15 -386 0
-424 2 -461 19 -51 23 -101 79 -114 128 -7 26 -11 474 -11 1380 0 738 -3 1344
-8 1347 -4 2 -82 -20 -172 -50 -216 -71 -284 -70 -351 3 -38 40 -37 37 -149
373 -113 338 -120 377 -79 450 18 31 109 105 432 347 226 170 424 316 441 325
28 16 71 17 487 15 l456 -2 40 -28z m2252 22 c278 -45 494 -141 701 -314 216
-180 385 -450 450 -720 38 -161 40 -195 40 -1122 0 -947 -1 -973 -45 -1138
-130 -485 -515 -868 -995 -989 -116 -29 -210 -40 -340 -40 -387 0 -727 146
-1000 430 -158 164 -277 377 -336 600 -42 162 -44 204 -44 1136 0 842 1 900
20 1010 75 443 332 796 735 1008 121 64 262 109 430 139 72 13 306 13 384 0z
m1459 -5725 c56 -23 101 -72 117 -128 19 -62 22 -604 4 -687 -15 -69 -74 -130
-143 -148 -88 -22 -180 22 -227 109 -10 18 -15 83 -17 247 -4 217 -4 221 -25
227 -29 7 -316 7 -344 0 -21 -6 -22 -10 -25 -222 -3 -202 -5 -220 -25 -259
-26 -48 -71 -85 -126 -103 -83 -26 -190 29 -228 118 -17 40 -19 73 -19 372 l0
328 28 53 c22 43 38 59 81 81 l53 28 429 0 c366 0 435 -2 467 -16z"/>
<path fill="white" d="M8074 7707 c-11 -6 -152 -110 -312 -231 -177 -132 -292 -225 -292
-235 0 -14 54 -183 75 -233 4 -10 13 -18 20 -18 7 0 102 30 211 66 177 58 206
65 261 62 89 -5 147 -55 173 -147 6 -23 10 -523 10 -1418 l0 -1383 195 0 195
0 -2 1773 -3 1772 -255 2 c-187 2 -261 -1 -276 -10z"/>
<path fill="white" d="M10805 7700 c-407 -74 -714 -380 -796 -795 -20 -100 -21 -1840 -1
-1930 55 -251 178 -452 370 -603 225 -177 534 -243 824 -178 352 80 640 358
729 704 38 149 40 228 36 1112 -4 923 -2 888 -58 1051 -64 187 -197 360 -369
481 -120 84 -233 131 -389 159 -127 23 -215 23 -346 -1z m351 -406 c136 -44
252 -135 326 -254 91 -148 88 -109 88 -1102 0 -944 2 -913 -61 -1045 -56 -118
-165 -224 -290 -281 -53 -24 -181 -52 -239 -52 -58 0 -186 28 -239 52 -161 74
-280 212 -330 385 -21 71 -21 82 -19 965 l3 893 23 64 c62 170 206 316 368
369 86 29 90 30 195 31 78 1 111 -4 175 -25z"/>
<path fill="white" d="M10905 6913 c-47 -24 -86 -64 -106 -108 -18 -38 -19 -83 -19 -856 0
-709 2 -822 15 -860 29 -82 98 -129 187 -129 90 0 162 57 188 149 14 50 13
1623 -1 1674 -30 109 -172 179 -264 130z"/>
<path fill="white" d="M4086 10671 c-81 -42 -152 -84 -156 -92 -6 -11 14 -88 61 -240 75
-239 105 -333 143 -456 13 -43 54 -175 91 -293 37 -118 75 -242 85 -275 10
-33 46 -148 80 -255 33 -107 69 -222 80 -255 10 -33 41 -134 70 -225 28 -91
74 -237 101 -325 28 -88 54 -171 59 -185 5 -14 27 -85 50 -158 23 -73 47 -135
55 -138 12 -5 972 264 1023 286 22 10 23 13 20 136 l-3 126 -110 28 c-374 94
-683 337 -858 675 -45 87 -49 97 -209 545 -407 1143 -416 1168 -427 1174 -3 2
-73 -30 -155 -73z"/>
<path fill="white" d="M15352 10741 c-6 -4 -73 -178 -147 -387 -75 -208 -145 -404 -156
-434 -11 -30 -29 -80 -39 -110 -10 -30 -37 -107 -60 -170 -23 -63 -46 -126
-50 -140 -4 -14 -25 -70 -45 -125 -20 -55 -47 -129 -59 -165 -152 -434 -512
-760 -956 -865 -41 -10 -81 -22 -88 -28 -9 -7 -12 -42 -10 -131 l3 -121 250
-72 c138 -40 282 -82 320 -92 39 -11 135 -38 215 -61 209 -60 251 -71 259 -65
13 8 20 27 175 525 18 58 49 157 69 220 20 63 59 189 87 280 28 91 73 235 100
320 102 324 391 1248 431 1378 27 86 30 81 -86 142 -44 24 -107 57 -140 76
-34 18 -66 29 -73 25z"/>
</g>
</svg>
