<?xml version="1.0" standalone="no"?>
<!DOCTYPE svg PUBLIC "-//W3C//DTD SVG 20010904//EN"
 "http://www.w3.org/TR/2001/REC-SVG-20010904/DTD/svg10.dtd">
<svg version="1.0" xmlns="http://www.w3.org/2000/svg"
 width="3464.000000pt" height="1309.000000pt" viewBox="0 0 3464.000000 1309.000000"
 preserveAspectRatio="xMidYMid meet">
<metadata>
Created by potrace 1.16, written by Peter Selinger 2001-2019
</metadata>
<g transform="translate(0.000000,1309.000000) scale(0.100000,-0.100000)"
fill="#000000" stroke="none">
<path fill="white" d="M3426 12848 c-509 -510 -929 -1041 -1308 -1656 -48 -79 -88 -146 -88
-149 0 -3 -20 -37 -44 -77 -70 -112 -268 -497 -359 -696 -8 -19 -32 -71 -52
-114 -116 -251 -282 -697 -376 -1006 -68 -227 -102 -350 -134 -485 -7 -33 -21
-89 -30 -125 -9 -36 -21 -87 -26 -115 -4 -27 -16 -84 -24 -125 -17 -80 -40
-208 -56 -303 -5 -33 -12 -63 -15 -68 -3 -6 -10 -47 -15 -92 -4 -45 -15 -136
-24 -202 -8 -66 -19 -172 -25 -235 -5 -63 -15 -151 -21 -195 -8 -53 -12 -261
-13 -610 0 -427 3 -566 17 -715 22 -242 25 -273 43 -415 33 -279 41 -332 64
-445 5 -25 18 -97 30 -160 11 -63 25 -133 30 -155 5 -22 17 -76 26 -120 9 -44
26 -114 37 -155 10 -41 25 -100 32 -131 38 -170 177 -611 276 -874 92 -248
152 -392 266 -645 9 -19 57 -118 108 -220 438 -882 959 -1608 1660 -2317 l239
-243 6096 0 6095 0 190 193 c272 274 386 398 618 676 174 207 482 635 638 886
31 50 78 126 106 170 160 255 543 1007 543 1067 0 26 56 165 138 343 68 149
169 397 202 498 11 33 23 93 27 132 3 38 23 124 43 190 36 112 61 211 109 415
69 295 144 769 181 1145 33 333 39 1245 10 1530 -48 471 -115 913 -185 1212
-59 254 -80 339 -101 413 -13 47 -32 110 -40 140 -102 356 -209 652 -393 1090
-134 318 -385 796 -603 1145 -194 311 -575 842 -678 945 -3 3 -23 27 -45 55
-120 150 -348 398 -558 608 l-238 237 -6065 0 -6065 0 -243 -242z m7251 11
c30 -12 168 -54 418 -129 88 -26 214 -65 280 -85 66 -20 134 -40 150 -45 17
-4 91 -27 165 -50 74 -23 144 -44 155 -47 11 -3 49 -14 85 -25 36 -11 130 -39
210 -63 80 -24 244 -73 365 -110 398 -120 548 -166 730 -220 222 -66 664 -199
885 -267 91 -27 201 -60 245 -73 285 -83 466 -140 506 -161 57 -28 103 -73
132 -128 l22 -41 0 -5125 c0 -4073 -3 -5133 -13 -5166 -16 -55 -78 -123 -138
-154 l-49 -25 -650 -2 c-357 -2 -660 -5 -672 -8 -21 -5 -22 -9 -25 -228 -5
-255 -13 -296 -78 -370 -23 -26 -64 -57 -95 -72 l-54 -25 -1178 2 -1178 3
-135 27 c-394 78 -721 212 -1011 415 -42 29 -83 53 -91 53 -8 0 -40 -18 -70
-40 -262 -187 -649 -357 -938 -410 -287 -54 -162 -50 -1427 -50 l-1161 0 -63
33 c-76 39 -130 105 -147 178 -7 30 -12 137 -12 259 0 197 -1 210 -19 220 -13
6 -236 10 -653 10 -388 0 -650 4 -677 11 -92 21 -174 104 -199 202 -9 37 -12
1186 -12 5137 l0 5089 21 56 c25 67 79 125 143 153 40 18 203 71 306 100 31 9
455 137 940 284 91 27 253 76 360 108 107 32 294 88 415 125 121 36 234 70
250 75 17 4 107 31 200 60 94 28 258 78 365 110 107 32 272 82 365 110 94 29
184 56 200 60 17 4 91 27 165 50 74 23 158 48 185 55 28 7 70 20 95 28 25 8
86 27 135 42 50 14 122 37 160 50 l70 23 997 1 c693 1 1005 -2 1025 -10z"/>
<path fill="white" d="M9074 12316 c-3 -8 2 -72 11 -143 44 -357 90 -724 111 -893 8 -69 21
-172 29 -230 16 -121 14 -107 106 -845 38 -308 74 -596 79 -640 11 -92 52
-420 75 -605 9 -69 20 -159 25 -200 12 -97 47 -384 60 -480 5 -41 16 -131 25
-200 9 -69 20 -159 25 -200 5 -41 12 -96 15 -121 5 -42 34 -101 35 -71 0 6 9
76 19 155 11 78 25 185 31 237 6 52 18 142 25 200 8 58 19 148 25 200 6 52 15
127 20 165 6 39 17 126 25 195 9 69 20 159 25 200 6 41 17 131 25 200 9 69 20
159 25 200 11 81 33 262 50 405 6 50 17 135 25 190 7 55 18 147 25 205 6 58
15 132 21 165 5 33 16 119 24 190 8 72 19 162 25 200 14 99 73 574 85 680 3
28 10 82 15 120 5 39 17 126 25 195 27 216 34 272 51 397 9 67 13 127 9 132
-4 8 -188 11 -586 11 -491 0 -580 -2 -585 -14z"/>
<path fill="white" d="M8390 12198 c-52 -16 -147 -45 -210 -64 -63 -20 -126 -39 -140 -44
-14 -4 -71 -20 -128 -35 -56 -15 -105 -32 -108 -37 -6 -9 4 -30 213 -453 163
-330 187 -391 178 -461 -10 -81 -45 -145 -107 -194 -30 -23 -164 -107 -299
-187 -134 -80 -252 -153 -262 -162 -17 -17 -16 -21 26 -112 70 -148 272 -572
383 -806 30 -62 79 -166 110 -230 31 -65 71 -149 89 -188 18 -38 67 -141 109
-229 42 -87 76 -160 76 -161 0 -1 36 -78 81 -171 45 -93 96 -200 114 -239 18
-38 84 -178 147 -310 63 -132 197 -414 298 -627 101 -214 187 -388 192 -388
11 0 10 57 -2 138 -6 37 -19 141 -31 232 -11 91 -31 255 -45 365 -13 110 -29
236 -34 280 -5 44 -32 258 -59 475 -28 217 -59 469 -71 560 -11 91 -24 199
-30 240 -5 41 -16 131 -25 200 -9 69 -20 159 -26 200 -5 41 -19 149 -30 240
-34 285 -85 692 -119 960 -6 47 -29 229 -51 405 -87 695 -99 791 -104 813 -7
28 -18 27 -135 -10z"/>
<path fill="white" d="M10812 12222 c-7 -5 -15 -24 -17 -43 -5 -34 -38 -296 -55 -439 -5
-41 -16 -129 -25 -195 -9 -66 -20 -156 -25 -200 -16 -139 -29 -247 -40 -330
-6 -44 -15 -114 -20 -155 -5 -41 -16 -127 -24 -190 -8 -63 -20 -158 -26 -210
-6 -52 -18 -144 -26 -205 -7 -60 -19 -148 -24 -195 -6 -47 -15 -116 -20 -155
-5 -38 -16 -131 -25 -205 -9 -74 -26 -202 -36 -285 -11 -82 -24 -186 -29 -230
-5 -44 -16 -134 -25 -200 -9 -66 -20 -156 -25 -200 -26 -221 -31 -264 -40
-315 -5 -30 -14 -102 -20 -160 -7 -58 -18 -150 -25 -205 -8 -55 -19 -143 -25
-195 -13 -113 -45 -364 -75 -598 -18 -138 -19 -206 -4 -196 10 6 53 93 129
259 13 28 54 115 91 194 38 79 69 145 69 147 0 2 34 74 75 160 41 86 75 158
75 159 0 2 27 61 61 132 34 70 90 190 125 265 35 76 82 177 105 225 23 48 56
120 74 158 55 119 101 216 150 320 26 55 91 195 145 310 54 116 119 255 145
310 26 55 60 127 75 160 40 86 90 193 150 320 111 236 141 305 135 314 -6 11
-80 57 -343 213 -215 127 -264 164 -303 232 -24 42 -29 63 -29 116 0 36 5 82
10 102 6 20 94 207 196 414 102 208 183 383 180 389 -2 6 -39 22 -83 35 -110
32 -555 167 -573 174 -8 3 -21 2 -28 -2z"/>
<path fill="white" d="M7175 11838 c-33 -11 -132 -41 -220 -68 -88 -26 -259 -78 -380 -115
-121 -37 -247 -75 -280 -85 -33 -10 -224 -68 -425 -128 -201 -61 -509 -154
-685 -208 -176 -53 -326 -101 -333 -106 -9 -8 -12 -979 -10 -4817 l3 -4806
495 0 495 0 5 3430 c4 2527 8 3438 16 3461 35 94 118 166 212 184 134 25 267
-53 316 -184 8 -23 12 -1022 16 -3811 l5 -3780 980 0 c1069 0 1004 -3 1235 58
181 49 236 66 315 100 131 56 199 93 271 149 81 61 77 57 132 127 l42 54 0
1984 0 1985 -30 68 c-17 38 -64 139 -105 226 -41 86 -75 157 -75 159 0 1 -24
54 -54 116 -29 63 -142 303 -251 534 -108 231 -235 501 -282 600 -47 99 -93
198 -103 220 -10 22 -41 90 -70 150 -29 61 -83 175 -120 255 -37 80 -90 192
-118 250 -103 218 -165 350 -232 495 -17 39 -67 144 -110 235 -43 91 -96 204
-119 253 -22 48 -60 126 -82 175 -23 48 -76 161 -119 252 -43 91 -91 194 -108
230 -16 36 -53 113 -80 172 -28 59 -60 127 -71 151 -11 24 -46 98 -77 163 -31
65 -87 184 -124 264 -37 80 -86 184 -109 233 -49 103 -66 172 -58 238 15 121
61 164 400 366 226 135 277 170 276 187 0 33 -292 601 -309 603 -8 0 -42 -8
-75 -19z m1405 -7632 c182 -59 314 -192 376 -376 16 -47 19 -86 19 -265 0
-193 -2 -215 -23 -277 -62 -179 -218 -323 -402 -369 -81 -21 -1462 -21 -1535
0 -193 54 -337 187 -401 372 -16 47 -19 84 -19 274 0 242 6 273 68 385 41 73
145 174 216 210 57 28 140 55 196 63 17 3 350 4 740 3 656 -1 714 -3 765 -20z"/>
<path fill="white" d="M7152 3658 c-17 -17 -16 -172 2 -187 9 -8 185 -10 637 -9 l624 3 0
100 0 100 -625 3 c-479 2 -629 -1 -638 -10z"/>
<path fill="white" d="M12053 11852 c-7 -4 -40 -66 -74 -137 -34 -72 -97 -204 -140 -294
-44 -90 -79 -170 -79 -176 0 -7 125 -87 278 -179 152 -92 294 -182 314 -201
57 -53 88 -122 89 -197 1 -87 11 -60 -226 -563 -70 -148 -142 -301 -160 -340
-61 -131 -193 -410 -259 -548 -36 -76 -66 -140 -66 -142 0 -1 -38 -82 -85
-180 -47 -97 -85 -178 -85 -180 0 -1 -38 -82 -85 -180 -47 -97 -85 -178 -85
-180 0 -1 -30 -65 -66 -141 -36 -77 -97 -204 -134 -284 -37 -80 -93 -197 -123
-260 -69 -145 -122 -258 -232 -495 -18 -38 -60 -126 -92 -195 -33 -69 -74
-154 -91 -190 -16 -36 -51 -110 -77 -165 -26 -55 -62 -131 -80 -170 -18 -38
-61 -128 -95 -200 -34 -71 -75 -157 -90 -190 -15 -33 -47 -100 -70 -150 -55
-116 -113 -240 -160 -340 -21 -44 -62 -129 -91 -190 l-54 -110 -3 -277 c-2
-187 0 -284 8 -298 10 -19 20 -20 176 -20 233 0 298 -21 368 -117 122 -168 25
-393 -185 -431 -37 -7 -130 -12 -207 -12 -129 0 -142 -2 -152 -19 -6 -13 -10
-217 -10 -595 0 -509 2 -576 16 -590 13 -13 44 -16 183 -16 93 0 183 -5 202
-11 111 -35 175 -103 200 -213 16 -71 2 -139 -43 -207 -65 -97 -158 -128 -390
-129 -137 0 -148 -1 -158 -20 -7 -14 -10 -180 -8 -523 l3 -504 43 -56 c127
-164 382 -295 742 -380 226 -53 197 -52 1225 -52 l960 0 5 3765 c6 4101 1
3808 62 3897 105 155 336 156 448 2 64 -89 60 167 60 -3574 l0 -3395 493 2
492 3 0 4815 0 4815 -105 32 c-58 17 -188 57 -290 88 -102 30 -223 67 -270 81
-47 14 -128 39 -180 55 -52 16 -194 58 -315 95 -121 36 -278 84 -350 105 -71
22 -233 71 -360 109 -189 56 -445 133 -515 155 -8 2 -20 1 -27 -3z m282 -7649
c100 -35 146 -65 225 -143 75 -75 111 -133 146 -235 27 -77 27 -437 0 -515
-68 -197 -200 -328 -391 -387 -56 -17 -110 -18 -785 -18 -675 0 -729 1 -785
18 -179 55 -323 191 -379 359 -47 136 -47 429 -1 565 56 163 179 287 350 352
69 26 173 29 850 27 696 -1 711 -2 770 -23z"/>
<path fill="white" d="M10897 3663 c-12 -12 -8 -178 5 -191 14 -14 1234 -17 1256 -4 9 6 12
34 10 103 l-3 94 -631 3 c-347 1 -634 -1 -637 -5z"/>
</g>
</svg>
